<svg width="98" height="20" viewBox="0 0 98 20" fill="none" xmlns="http://www.w3.org/2000/svg">
<path d="M42 17H39V4H42V17ZM46 17H44V4H46V17ZM53 8C53.9455 8 55.3983 8.34912 56 9C56.6188 9.65087 57 9.85651 57 11V17H54V12C54 10.8215 54.0314 10 53 10C51.8483 10 51 10.5399 51 12V17H49V8H51V9C51.5328 8.17321 51.8312 8 53 8ZM66 16C65.1234 16.8971 64.272 17 63 17C61.728 17 60.8766 16.8971 60 16C59.1234 15.1029 58 13.3018 58 12C58 10.6982 59.1234 9.89714 60 9C60.8766 8.10284 61.728 8 63 8C64.272 8 65.1234 8.10284 66 9C66.8766 9.89714 67 10.6982 67 12C67 13.3018 66.8766 15.1029 66 16ZM61 14C61.4469 14.4574 62.3297 15 63 15C63.6704 15 64.5531 14.4574 65 14C65.4469 13.5426 65 12.7036 65 12C65 11.2964 65.4469 11.4574 65 11C64.5531 10.5426 63.6704 10 63 10C62.3297 10 61.4469 10.5426 61 11C60.5702 11.4574 61 11.2964 61 12C61 12.7036 60.5702 13.5426 61 14ZM76 9V4H78V17H76V16C75.3468 16.862 74.2032 17 73 17C71.8483 17 70.8251 16.8971 70 16C69.1921 15.1029 69 13.3018 69 12C69 10.6982 69.1921 9.89714 70 9C70.8251 8.10284 71.8483 8 73 8C74.2032 8 75.3468 8.13803 76 9ZM72 14C72.464 14.4573 73.3124 15 74 15C74.6876 15 74.5531 14.4573 75 14C75.4469 13.525 76 12.7213 76 12C76 11.2787 75.4469 11.4574 75 11C74.5531 10.525 74.6876 10 74 10C73.3124 10 72.464 10.525 72 11C71.5531 11.4574 71 11.2787 71 12C71 12.7213 71.5531 13.525 72 14ZM89 13H82C82.2922 14.1083 83.6764 15 85 15C85.8423 15 86.5703 14.5805 87 14L88 15C87.1577 16.2489 86.6502 17 85 17C83.5732 17 81.8594 16.8795 81 16C80.1405 15.1204 80 13.337 80 12C80 10.6807 80.1577 9.87959 81 9C81.8423 8.10284 82.6764 8 84 8C85.2548 8 87.192 8.10284 88 9C88.825 9.89711 89 10.6807 89 12C89 12.2991 89.0516 12.6658 89 13ZM82 12H87C86.7422 10.8038 85.0142 10 84 10C82.8139 10 82.2578 10.8741 82 12ZM94 8C95.3923 8 96.3294 8.80381 97 10L95 11C94.7248 10.4019 94.6356 10 94 10C93.4325 10 93 9.56015 93 10C93 10.4749 93.1241 10.7713 94 11C95.2552 11.2639 97.017 12.1177 97 14C97 14.8971 96.6706 15.5074 96 16C95.3473 16.4749 94.979 17 94 17C92.2293 17 90.6365 16.3897 90 15L92 14C92.2573 14.7564 93.1232 15 94 15C94.7899 15 95 14.5101 95 14C95 13.525 93.8768 13.2286 93 13C91.7278 12.6658 90 12.8295 90 11C90 10.138 90.3814 8.49256 91 8C91.6365 7.48986 93.0712 8 94 8ZM33 4L38 17H35L34 14H29V17H26L30 4H33ZM32 7L30 12H34L32 7Z" fill="#727272"/>
<mask id="mask0_218_698" style="mask-type:alpha" maskUnits="userSpaceOnUse" x="0" y="0" width="20" height="20">
<path d="M20 10C20 4.47715 15.5228 0 10 0C4.47715 0 0 4.47715 0 10C0 15.5228 4.47715 20 10 20C15.5228 20 20 15.5228 20 10Z" fill="white"/>
</mask>
<g mask="url(#mask0_218_698)">
<path d="M20 10C20 4.47715 15.5228 0 10 0C4.47715 0 0 4.47715 0 10C0 15.5228 4.47715 20 10 20C15.5228 20 20 15.5228 20 10Z" fill="white"/>
<path fill-rule="evenodd" clip-rule="evenodd" d="M20 0V20V20L14 9C13.9925 8.98539 14.008 9.01433 14 9V9L12 6C11.7004 5.42513 11.6482 5 11 5H8C7.93004 5 8.06205 4.96766 8 5C7.78706 5.11096 7.88903 4.78706 8 5L15 20V20H16H4L9 11V11C9.07764 10.7966 9.19782 10.1031 9 10C8.938 9.96773 9.06995 10 9 10H7H6C5.38802 10.0324 5.28532 10.4525 5 11L0 20V20V0H20Z" fill="#727272"/>
</g>
</svg>
