<svg width="86" height="33" viewBox="0 0 86 33" fill="none" xmlns="http://www.w3.org/2000/svg">
<g clip-path="url(#clip0_218_707)">
<path d="M40 17V33H63H86V17V0H63H40V17ZM44 11V14H45C45.616 13.3206 45.8773 13 47 13C49.2999 13.0138 50.7946 14.6169 51 18C51.178 21.0505 50.2595 23.1126 49 24C48.4798 24.3605 47.931 23.9445 47 24C45.7679 24.0555 45.6023 23.7071 45 23H44V24C43.9179 24.6239 44.5339 24 44 24H43V16V8H44V8V11ZM54 16V24H53V24V16V8V8H54V16ZM77 13V18L79 16C80.0816 14.6689 80.8905 13.0971 81 13C81.0958 12.9168 81.6304 12.9722 82 13V13L80 15C78.9868 16.2202 79.0411 17.9029 79 18C78.959 18.0832 79.8637 19.2807 81 21C82.1363 22.7193 83 23.9584 83 24C83 24.0416 82.3696 24 82 24H81L79 21L78 19H77V20V22V24H76H75V16V8H76H77V13ZM62 13C62.6845 13.1941 63.5618 14.2374 64 15C64.9994 16.7193 64.9994 20.2806 64 22C63.5482 22.8042 62.7393 23.792 62 24C61.6714 24.0971 60.5613 24.0277 60 24C58.7541 23.9306 57.6845 24.0122 57 23C56.3291 22.0156 56.0548 21.4126 56 19C55.9452 17.0726 56.7536 16.8319 57 16C57.575 14.0865 58.2066 13 60 13C60.5202 13 61.7125 12.9029 62 13ZM72 13C73.0678 13.5408 72.9042 14.6135 73 16V17V17H72V16C71.8083 14.5718 71.3143 14 70 14C68.672 14 67.3971 14.6689 67 16C66.7125 16.9845 66.7125 20.0156 67 21C67.3971 22.3311 68.6583 23 70 23C71.2869 23 71.8083 22.2063 72 21C72.0822 20.4869 72.4113 21 73 21H74H73C72.8083 22.3727 72.2047 23.5979 71 24C70.3428 24.2218 68.5612 24.2911 68 24C67.3017 23.6256 66.3285 22.8458 66 22C65.7125 21.2929 66 21.4126 66 19C66 16.6428 65.7535 15.6378 66 15C66.6982 13.2807 68.1791 13 70 13C70.9172 13 71.4112 12.695 72 13Z" fill="#727272"/>
<path d="M44.9998 14C44.4077 14.2695 44.3024 14.3935 43.9998 15C43.7761 15.4447 43.9998 16.6147 43.9998 19C43.9998 21.9648 44.2629 21.3666 44.9998 22C45.5524 22.4716 46.2234 23.0673 46.9998 23C48.5392 22.8382 48.9998 21.0322 48.9998 18C48.9867 15.6147 48.0129 14.4313 46.9998 14C46.434 13.7575 45.5787 13.7439 44.9998 14Z" fill="#727272"/>
<path d="M58.9996 13.9998C58.3601 14.2553 57.3048 15.1661 56.9996 15.9998C56.7961 16.5512 56.9996 16.6551 56.9996 17.9998C56.9996 20.0034 57.2584 21.2064 57.9996 21.9998C58.5664 22.5914 59.1276 22.9998 59.9996 22.9998C61.2494 22.9998 62.4182 22.1966 62.9996 20.9998C63.2612 20.4619 62.956 20.331 62.9996 18.9998C63.1013 16.3373 62.2785 14.6049 60.9996 13.9998C60.3311 13.6905 59.6681 13.7309 58.9996 13.9998Z" fill="#727272"/>
<path d="M2.99988 17C1.64071 21.3088 0.0281935 24.9157 -0.000122377 25C-0.0425963 25.1403 0.654871 25 1.99988 25H2.99988L3.99988 23V22H5.99988H8.99988V23L9.99988 25H10.9999C11.9626 25 12.9999 25.0561 12.9999 25C12.9999 24.9439 11.3733 21.3508 9.99988 17L7.99988 9H5.99988H4.99988L2.99988 17ZM6.99988 16C7.35383 17.3614 7.99988 18.958 7.99988 19C7.99988 19.0421 6.77856 19 5.99988 19C4.69734 19 4.94325 19.2245 4.99988 19C6.01926 15.0421 6.92909 13.9157 6.99988 14C7.05651 14.0561 6.63177 14.6385 6.99988 16Z" fill="#727272"/>
<path d="M14 17V25H16H17V20V15L19 20L22 25H23H25V17V9H23H22V14V19L19 14L17 9H16H14V17Z" fill="#727272"/>
<path d="M25 8.99976C25 9.0559 25.9229 11.2489 27 13.9998L29 18.9998V21.9998V24.9998H31H32V21.9998V18.9998L34 13.9998C35.064 11.319 35.9737 9.098 36 8.99976C36.0525 8.85941 35.3136 8.97169 34 8.99976H33L32 11.9998C31.4089 13.8665 31.0394 15.9576 31 15.9998C30.9607 16.0418 29.6043 13.9366 29 11.9998L28 8.99976H27C26.1068 8.99976 25 8.94361 25 8.99976Z" fill="#727272"/>
</g>
<defs>
<clipPath id="clip0_218_707">
<rect width="86" height="33" fill="white"/>
</clipPath>
</defs>
</svg>
