<svg width="114" height="28" viewBox="0 0 114 28" fill="none" xmlns="http://www.w3.org/2000/svg">
<g clip-path="url(#clip0_218_935)">
<path d="M13 0L0 3H13V0Z" fill="#727272"/>
<path d="M0 4C0.178747 5.40966 0.762956 6.74158 1 8H13V4H0Z" fill="#727272"/>
<path d="M1 10C1.30644 11.4337 1.6315 12.7646 2 14H13V10H1Z" fill="#727272"/>
<path d="M3 15C3.52201 16.4805 4.41555 17.8082 5 19H14V15H3Z" fill="#727272"/>
<path d="M5 20C5.84256 21.61 7.15472 22.926 8 24H13V20H5Z" fill="#727272"/>
<path d="M9 25C11.2285 27.3972 13 28 13 28V25H9Z" fill="#727272"/>
<path d="M15 0V28C15 28 25.5565 24.8363 28 3L15 0Z" fill="#727272"/>
<path fill-rule="evenodd" clip-rule="evenodd" d="M41.0002 15.0002L36.0002 2.00016V2.00016C35.8918 2.00016 36.0931 1.96813 36.0002 2.00016C35.9228 2.03219 35.0776 1.92008 35.0002 2.00016C34.9383 2.08024 35.0466 1.9361 35.0002 2.00016C34.9537 2.06423 35.0621 2.85603 35.0002 3.00016C34.9382 3.1283 35.0312 2.90407 35.0002 3.00016C34.9693 3.08024 35.0621 2.82399 35.0002 3.00016C34.9537 3.17634 35.0312 3.92009 35.0002 4.00016L31.0002 15.0002C30.5977 16.0733 29.3254 16.5678 29.0002 17.0002C28.8919 17.1443 29.2943 16.9201 29.0002 17.0002C28.7061 17.0803 28.1859 17.0002 28.0002 17.0002C27.9382 17.0002 28.0002 17.7759 28.0002 18.0002C28.0002 18.1763 27.9382 17.9361 28.0002 18.0002C28.2634 17.9842 28.7215 18.0161 29.0002 18.0002C29.2943 17.9841 29.768 18.0161 30.0002 18.0002C30.2324 17.9841 30.6907 18.0002 31.0002 18.0002C31.0467 18.0002 31.4522 17.9201 33.0002 18.0002C33.0312 17.9201 33.0157 18.1923 33.0002 18.0002C33.0002 17.808 33.0467 17.0002 33.0002 17.0002C32.8609 17.0002 32.3098 17.0642 32.0002 17.0002C31.6906 16.9201 32.1396 17.1123 32.0002 17.0002C31.8764 16.9041 31.0002 16.2243 31.0002 16.0002C31.0002 15.6959 31.7371 15.8009 32.0002 15.0002L33.0002 12.0002V12.0002C34.1612 11.9201 35.1953 12.0002 36.0002 12.0002C36.573 12.0002 37.3965 11.9521 38.0002 12.0002C38.0466 12.0002 37.9538 11.9361 38.0002 12.0002L39.0002 15.0002C39.0466 15.1604 38.9537 15.7118 39.0002 16.0002C39.0621 16.2724 39.0002 15.792 39.0002 16.0002C39.0002 16.1284 39.0312 16.8721 39.0002 17.0002C38.9538 17.1283 38.2788 16.9201 38.0002 17.0002C37.7215 17.0803 38.1859 17.0002 38.0002 17.0002C37.9383 17.0002 38.0156 17.7919 38.0002 18.0002C38.0002 18.1924 37.9383 17.9361 38.0002 18.0002C39.7804 17.9201 39.9847 18.0002 40.0002 18.0002C40.155 18.0002 41.4522 17.9201 43.0002 18.0002C43.0312 17.9041 43.0002 18.0642 43.0002 18.0002C43.0002 17.6959 43.0621 17.0002 43.0002 17.0002C42.8144 17.0002 42.3872 17.1443 42.0002 17.0002C41.6132 16.84 41.0931 16.2404 41.0002 16.0002C40.8299 15.5998 41.2789 15.7529 41.0002 15.0002ZM35.0002 11.0002C34.7061 11.0002 33.8052 11.0322 33.0002 11.0002C32.9693 11.0002 33.0002 11.0642 33.0002 11.0002L35.0002 5.00016L37.0002 11.0002V11.0002C36.2727 11.0482 35.6813 11.0002 35.0002 11.0002Z" fill="#727272"/>
<path d="M45.9996 9.00021H43.9996C43.9192 9.00021 43.9996 8.34167 43.9996 8.00021C43.9996 7.90265 43.9835 8.01648 43.9996 8.00021C44.466 7.78883 45.4528 7.65062 45.9996 7.00021C46.1766 6.78883 45.8388 6.26038 45.9996 6.00021C46.1766 5.72379 45.887 5.19533 45.9996 5.00021C46.1121 4.80509 46.9996 5.01647 46.9996 5.00021C47.4822 5.00021 46.9996 4.91892 46.9996 5.00021V8.00021C47.4177 8.00021 48.1472 7.98395 48.9996 8.00021H50.9996C51.1284 8.00021 50.9996 7.85387 50.9996 8.00021C50.9996 8.29289 51.1604 8.67501 50.9996 9.00021H46.9996V15.0002C46.9996 15.6507 47.6779 15.61 47.9996 16.0002C48.3374 16.3905 48.4689 17.0002 48.9996 17.0002C49.4822 17.0002 50.4849 16.3091 50.9996 16.0002C51.0478 15.9677 50.9031 16.8213 50.9996 17.0002C51.0962 17.1628 51.0157 16.9839 50.9996 17.0002C50.7584 17.2603 50.4983 17.7401 49.9996 18.0002C49.5011 18.2441 48.5304 18.0002 47.9996 18.0002C47.1955 18.0002 46.5465 17.5367 45.9996 17.0002C45.4688 16.4636 45.9996 15.992 45.9996 15.0002V9.00021Z" fill="#727272"/>
<path d="M50.9996 9.00021H52.9996V15.0002C52.9996 15.992 52.4689 16.4636 52.9996 17.0002C53.5464 17.5367 54.1954 18.0002 54.9996 18.0002C55.5304 18.0002 56.501 18.2441 56.9996 18.0002C57.4981 17.7401 57.7583 17.2603 57.9996 17.0002C58.0156 16.9839 58.0961 17.1628 57.9996 17.0002C57.9031 16.8213 58.0479 15.9677 57.9996 16.0002C57.4849 16.3091 56.4821 17.0002 55.9996 17.0002C55.4689 17.0002 55.3373 16.3905 54.9996 16.0002C54.678 15.61 53.9996 15.6507 53.9996 15.0002V9.00021H57.9996C58.1604 8.67501 57.9996 8.29289 57.9996 8.00021C57.9996 7.85387 58.1282 8.00021 57.9996 8.00021H55.9996C55.1471 7.98395 54.4178 8.00021 53.9996 8.00021V5.00021C53.9996 4.91892 54.4821 5.00021 53.9996 5.00021C53.9996 5.01647 53.1122 4.80509 52.9996 5.00021C52.8871 5.19533 53.1765 5.72379 52.9996 6.00021C52.8388 6.26038 53.1765 6.78883 52.9996 7.00021C52.4527 7.65062 51.4661 7.78883 50.9996 8.00021C50.9835 8.01648 50.9996 7.90265 50.9996 8.00021C50.9996 8.34167 50.9192 9.00021 50.9996 9.00021Z" fill="#727272"/>
<path fill-rule="evenodd" clip-rule="evenodd" d="M64 7.00006C64.75 7.00006 65.4293 6.72856 66 7.00006C66.5706 7.25647 66.7066 7.57774 67 8.00006C67.3099 8.4073 67.8696 9.56269 68 10.0001C68.1468 10.4224 68 10.5778 68 11.0001C68 11.3018 68.0979 11.9246 68 12.0001C67.9022 12.0604 67.2772 12.0001 67 12.0001H61C60.8696 12.0001 61 11.9247 61 12.0001C61 12.9503 61.3805 13.2007 62 14.0001C62.6195 14.7995 63.8261 16.0001 65 16.0001C65.3425 16.0001 65.6902 15.0604 66 15.0001C66.3098 14.9397 65.788 15.0755 66 15.0001C66.2282 14.9096 66.8532 15.0755 67 15.0001C67.163 14.9096 66.8858 15.0755 67 15.0001V15.0001C67.0978 15.0001 68 14.804 68 15.0001C68 15.1208 67.0978 14.8492 67 15.0001C66.6739 15.4224 66.6359 16.6532 66 17.0001C65.3641 17.3318 64.75 17.0001 64 17.0001C62.6467 17.0001 60.9783 16.9352 60 16.0001C59.0381 15.0499 59 13.3575 59 12.0001C59 10.4163 59.0869 8.92011 60 8.00006C60.9293 7.08 62.6141 7.00006 64 7.00006ZM64 8.00006C63.1521 8.00006 62.4565 8.32133 62 9.00006C61.5598 9.66368 61 10.5626 61 11.0001C61 11.1056 60.9022 11.0001 61 11.0001H66C66.0815 11.0001 66 10.1509 66 10.0001C66 9.5174 65.4403 9.61848 65 9.00006C64.5598 8.36658 64.7337 8.00006 64 8.00006Z" fill="#727272"/>
<path d="M73.9999 7.00019C73.4652 6.90198 73.3563 7.00019 72.9999 7.00019C72.0601 7.00019 70.7128 7.44365 69.9999 8.00019C69.3031 8.55675 68.9999 9.11623 68.9999 10.0002C68.9999 11.015 69.736 12.2636 70.9999 13.0002C71.1781 13.1148 71.6272 12.8037 71.9999 13.0002C72.3726 13.1966 72.8055 13.8692 72.9999 14.0002C73.2105 14.1147 72.7731 13.8038 72.9999 14.0002C73.243 14.1803 73.9027 14.7547 73.9999 15.0002C74.1133 15.2293 73.9999 14.7219 73.9999 15.0002C73.9999 15.5404 74.3402 16.7056 73.9999 17.0002C73.6759 17.2785 72.5184 17.0002 71.9999 17.0002C71.4003 17.0002 71.5184 16.4585 70.9999 16.0002C70.4975 15.5255 70.0971 15.4913 69.9999 15.0002C69.9836 14.902 69.243 15.0002 68.9999 15.0002C68.9351 15.0002 69.1296 14.902 68.9999 15.0002C68.9999 15.3276 68.9188 15.4437 68.9999 16.0002C69.0971 16.5567 68.9026 17.7383 68.9999 18.0002C69.2105 18.0329 69.6111 17.9019 69.9999 18.0002C70.3888 18.0984 70.7243 17.9675 70.9999 18.0002C71.2915 18.0492 71.6596 18.0002 71.9999 18.0002C73.0045 18.0002 74.2545 17.6386 74.9999 17.0002C75.7452 16.3455 75.9999 15.9659 75.9999 15.0002C75.9999 14.7547 76.1133 14.2293 75.9999 14.0002C75.9027 13.7547 76.1132 13.1475 75.9999 13.0002C75.8864 12.8365 75.2591 13.1966 74.9999 13.0002C74.7568 12.8038 74.1295 12.0821 73.9999 12.0002C73.8703 11.9183 74.3239 12.1803 73.9999 12.0002C73.692 11.8038 73.0647 12.0329 72.9999 12.0002C72.9188 11.951 73.3402 11.1803 72.9999 11.0002C72.6759 10.8038 72.0971 11.0657 71.9999 11.0002H70.9999C70.8216 10.8201 71.0647 10.1803 70.9999 10.0002C70.9351 9.8038 70.9999 9.24573 70.9999 9.00019C70.9999 8.03446 71.8332 8.00019 72.9999 8.00019C73.486 8.00019 73.6271 7.59097 73.9999 8.00019C74.3887 8.40942 74.9188 9.54185 74.9999 10.0002C75.0161 10.1148 74.7731 10.0002 74.9999 10.0002C75.2105 10.0002 74.9999 10.082 74.9999 10.0002C74.9675 9.08349 75.1619 7.75316 74.9999 7.00019C74.7892 6.96745 74.5508 7.08203 73.9999 7.00019Z" fill="#727272"/>
<path d="M78.9996 9.00021H76.9996C76.9192 9.00021 76.9996 8.34167 76.9996 8.00021C76.9996 7.90265 76.9835 8.01648 76.9996 8.00021C77.466 7.78883 78.4528 7.65062 78.9996 7.00021C79.1766 6.78883 78.8388 6.26038 78.9996 6.00021C79.1766 5.72379 78.887 5.19533 78.9996 5.00021C79.1122 4.80509 79.9996 5.01647 79.9996 5.00021C80.4822 5.00021 79.9996 4.91892 79.9996 5.00021V8.00021C80.4178 8.00021 81.1472 7.98395 81.9996 8.00021H83.9996C84.1283 8.00021 83.9996 7.85387 83.9996 8.00021C83.9996 8.29289 84.1605 8.67501 83.9996 9.00021H79.9996V15.0002C79.9996 15.6507 80.6779 15.61 80.9996 16.0002C81.3374 16.3905 81.4688 17.0002 81.9996 17.0002C82.4822 17.0002 83.4849 16.3091 83.9996 16.0002C84.0479 15.9677 83.9031 16.8213 83.9996 17.0002C84.0961 17.1628 84.0158 16.9839 83.9996 17.0002C83.7584 17.2603 83.4982 17.7401 82.9996 18.0002C82.501 18.2441 81.5304 18.0002 80.9996 18.0002C80.1954 18.0002 79.5465 17.5367 78.9996 17.0002C78.4689 16.4636 78.9996 15.992 78.9996 15.0002V9.00021Z" fill="#727272"/>
<path fill-rule="evenodd" clip-rule="evenodd" d="M92.0005 8C91.6195 7.59368 90.8734 7 90.0005 7C88.9688 7 88.0005 7.3529 87.0005 8C86.0005 8.63205 85.0005 9.35288 85.0005 10C85.1751 10.2859 85.5561 10 86.0005 10C86.6513 10 87.0005 10.5267 87.0005 10C87.0005 9.50338 86.6831 8.30097 87.0005 8C87.3179 7.68397 88.5243 8 89.0005 8C89.4449 8 89.6831 7.72912 90.0005 8C90.3179 8.25583 90.0005 8.51842 90.0005 9V11C90.0005 11.1806 90.1432 10.9549 90.0005 11C89.8099 11.0753 89.4766 11.8494 89.0005 12C88.5243 12.1505 88.302 11.8946 88.0005 12C87.7147 12.0903 87.4132 12.8044 87.0005 13C86.5878 13.1956 86.2385 12.8044 86.0005 13C85.7624 13.1806 85.1751 13.699 85.0005 14C84.8258 14.2859 85.0005 14.6689 85.0005 15C85.0005 15.7374 85.5243 15.6238 86.0005 16C86.4766 16.3612 87.2704 17 88.0005 17C88.3179 17 87.6989 17.0903 88.0005 17C88.3179 16.9097 88.7782 17.1355 89.0005 17C89.2385 16.8646 89.8258 16.1205 90.0005 16C90.1751 15.8646 89.9052 16.0903 90.0005 16C90.1116 15.8946 89.9845 16 90.0005 16C90.1274 16.316 90.6671 16.7141 91.0005 17C91.3338 17.2859 91.6354 17 92.0005 17C92.4608 17 93.3497 16.5267 94.0005 16C94.08 15.8796 94.0005 16.1956 94.0005 16C94.0005 15.8795 94.0639 16 94.0005 16C93.6672 16.2107 93.2226 16 93.0005 16C92.6989 16 92.1751 16.2107 92.0005 16C91.8258 15.7894 92.0005 15.316 92.0005 15V10C92.0005 9.11211 92.3813 8.39127 92.0005 8ZM88.0005 16C87.5719 16 87.2704 15.2106 87.0005 15C86.7306 14.7743 87.0005 14.4064 87.0005 14C87.0005 13.6539 86.7465 14.2558 87.0005 14C87.2703 13.7292 87.7306 13.1054 88.0005 13C88.2862 12.8796 88.5084 13.1505 89.0005 13C89.4925 12.8494 89.8735 12.0602 90.0005 12V15C90.0005 15.2558 90.3972 14.7442 90.0005 15C89.6037 15.2407 88.4291 16 88.0005 16Z" fill="#727272"/>
<path d="M102 6.99987C103.14 6.99987 104.545 7.244 105 7.99987C105.456 8.75573 105 10.3067 105 11.9999V13.9999C105 14.8766 104.87 15.5313 105 15.9999C105.032 16.1057 105.61 15.894 106 15.9999C106.391 16.0906 106.838 15.9999 107 15.9999C107.05 15.9999 106.984 16.8185 107 16.9999C107.017 17.1813 107.032 16.9243 107 16.9999C105.371 16.9243 104.114 16.9999 104 16.9999C103.967 16.9999 103.678 16.9243 102 16.9999C101.935 16.9394 102 17.1812 102 16.9999C102 16.8033 101.935 15.9999 102 15.9999C102.196 15.9999 102.658 16.0906 103 15.9999C103.358 15.894 102.967 16.1057 103 15.9999C103.114 15.5615 103 14.6197 103 13.9999V11.9999C103 10.5939 103.392 9.51385 103 8.99987C102.61 8.48591 101.88 7.99987 101 7.99987C100.479 7.99987 99.4892 8.63704 99.0003 8.99987C98.528 9.3476 99.0003 9.71264 99.0003 9.99987V13.9999C99.0003 14.8766 98.8701 15.5313 99.0003 15.9999C99.0324 16.1057 98.6096 15.894 99.0003 15.9999C99.391 16.0906 99.838 15.9999 100 15.9999C100.05 15.9999 99.9838 16.8185 100 16.9999C100.017 17.1813 100.032 16.9243 100 16.9999C98.3715 16.9243 98.114 16.9999 98.0003 16.9999C97.9022 16.9999 96.6768 16.9243 95.0003 16.9999C94.9352 16.9394 95.0003 17.1812 95.0003 16.9999C95.0003 16.8033 94.9352 15.9999 95.0003 15.9999C95.1957 15.9999 95.6262 16.0906 96.0003 15.9999C96.391 15.894 96.9673 16.1057 97.0003 15.9999C97.114 15.5615 97.0003 14.6197 97.0003 13.9999V9.99987C97.0003 9.41026 96.2278 9.22662 96.0003 8.99987C95.8371 8.81845 96.2443 8.06033 96.0003 7.99987C95.7719 7.92427 95.1636 7.99987 95.0003 7.99987C94.8546 7.99987 95.0003 8.0301 95.0003 7.99987C95.0003 7.63705 94.9032 8.01499 95.0003 7.99987C96.7264 7.758 98.4794 7.15104 99.0003 6.99987V6.99987V6.99987C99.0655 6.99987 98.9838 6.86382 99.0003 6.99987C99.0169 7.12081 99.0169 7.93939 99.0003 7.99987C98.9352 8.42314 99.0003 7.81846 99.0003 7.99987C99.0003 8.06033 98.9673 8.99987 99.0003 8.99987C99.0169 8.99987 98.9683 9.03009 99.0003 8.99987C99.3755 8.63704 99.3657 7.31732 100 6.99987C100.651 6.66728 101.414 6.99987 102 6.99987Z" fill="#727272"/>
<path d="M107 9.00021H109V15.0002C109 15.992 108.469 16.4636 109 17.0002C109.546 17.5367 110.195 18.0002 111 18.0002C111.53 18.0002 112.501 18.2441 113 18.0002C113.498 17.7401 113.758 17.2603 114 17.0002C114.016 16.9839 114.097 17.1628 114 17.0002C113.904 16.8213 114.048 15.9677 114 16.0002C113.485 16.3091 112.483 17.0002 112 17.0002C111.469 17.0002 111.338 16.3905 111 16.0002C110.678 15.61 110 15.6507 110 15.0002V9.00021H114C114.16 8.67501 114 8.29289 114 8.00021C114 7.85387 114.128 8.00021 114 8.00021H112C111.147 7.98395 110.418 8.00021 110 8.00021V5.00021C110 4.91892 110.483 5.00021 110 5.00021C110 5.01647 109.112 4.80509 109 5.00021C108.886 5.19533 109.176 5.72379 109 6.00021C108.839 6.26038 109.177 6.78883 109 7.00021C108.453 7.65062 107.466 7.78883 107 8.00021C106.984 8.01648 107 7.90265 107 8.00021C107 8.34167 106.919 9.00021 107 9.00021Z" fill="#727272"/>
<path d="M35.0005 24.0001L36.0005 21.0001C36.0751 20.5906 36.0005 20.1662 36.0005 20.0001C36.0005 19.9585 36.0176 20.0178 36.0005 20.0001C35.9889 19.9763 36.1324 20.0179 36.0005 20.0001C35.8685 19.9764 35.2759 19.0001 35.0005 19.0001C34.6964 19.0001 35.1267 19.8992 35.0005 20.0001C34.8742 20.095 34.1439 19.6677 34.0005 20.0001C33.989 20.0297 34.0464 20.0001 34.0005 20.0001C33.9258 20.0001 34.0406 20.0416 34.0005 20.0001V19.0001C34.2184 19.0654 34.857 19.0001 35.0005 19.0001C35.2242 19.0001 35.6447 18.9823 36.0005 19.0001C36.3562 19.0179 36.7767 19.0001 37.0005 19.0001C37.2242 19.0001 37.6333 19.0179 38.0005 19.0001C38.3677 18.9823 37.7767 19.0001 38.0005 19.0001C38.1267 19.0001 38.748 19.0654 39.0005 19.0001V20.0001C38.9488 20.0416 39.0808 20.0001 39.0005 20.0001C38.9489 20.0001 39.0005 20.0297 39.0005 20.0001C39.0005 19.6797 38.1152 20.101 38.0005 20.0001C37.8914 19.8933 38.2701 19.0001 38.0005 19.0001C37.4325 19.0001 37.0406 19.911 37.0005 20.0001C36.9202 20.1781 37.0807 20.5847 37.0005 21.0001L36.0005 24.0001C35.9373 24.3266 36.0005 24.7924 36.0005 25.0001C36.0005 25.0475 35.9259 24.9585 36.0005 25.0001C36.0808 25.0357 35.9258 24.9882 36.0005 25.0001H37.0005C37.012 25.0001 37.0005 24.9764 37.0005 25.0001C37.0005 25.0654 36.0349 24.9289 36.0005 25.0001C35.4726 24.9704 36.0693 25.0001 36.0005 25.0001C35.9889 25.0001 35.6201 24.9704 35.0005 25.0001C34.9889 24.9882 35.0005 25.0357 35.0005 25.0001C35.0005 24.8873 34.9603 25.0001 35.0005 25.0001C35.0693 25.0001 34.8628 25.0357 35.0005 25.0001C35.1382 24.9585 34.9775 25.0535 35.0005 25.0001C35.0865 24.7983 34.9373 24.368 35.0005 24.0001Z" fill="#727272"/>
<path d="M42.9996 22C42.9996 21.6179 42.3296 21 41.9996 21C41.8015 21 41.323 21.7337 40.9996 22C40.6828 22.2604 41.224 21.7453 40.9996 22C40.7818 22.2546 40.0655 22.8957 39.9996 23L40.9996 20C41.0854 19.612 40.9996 19.0463 40.9996 19C40.9996 18.9074 41.0391 19.0174 40.9996 19C40.6035 19.1274 40.4352 18.9652 39.9996 19C39.9467 19.0463 39.9996 18.9305 39.9996 19C39.9996 19.0347 39.9797 19 39.9996 19C40.4022 19 39.9996 19.8899 39.9996 20C39.9996 20.052 40.0589 19.7453 39.9996 20L38.9996 25C39.1053 25.0231 38.8808 25 38.9996 25C39.1184 25 39.9137 25.0231 39.9996 25V24C40.1315 23.4095 40.5441 23.5209 40.9996 23C41.4615 22.4732 41.7818 22 41.9996 22C42.125 22 41.9996 21.7511 41.9996 22C41.9996 22.1215 42.0458 22.8089 41.9996 23L40.9996 24C40.9533 24.2141 40.9996 24.9074 40.9996 25C40.9996 25.1331 41.9402 24.9132 41.9996 25C42.0589 25.081 41.894 25 41.9996 25C42.2041 25 41.7289 25.2083 41.9996 25C42.2702 24.7915 42.9137 24.1273 42.9996 24C42.9996 23.9768 43.0392 24.052 42.9996 24C42.9666 23.9421 43.0127 24 42.9996 24V24C42.96 24.0347 43.0458 23.9536 42.9996 24C42.9533 24.0404 43.059 23.9537 42.9996 24C42.9468 24.0463 42.059 23.9653 41.9996 24C41.9468 24.029 42.0392 24 41.9996 24C41.9336 24 41.9996 24.1446 41.9996 24C41.9996 23.9247 41.9798 24.0694 41.9996 24V23C42.092 22.6295 42.9996 22.2604 42.9996 22Z" fill="#727272"/>
<path fill-rule="evenodd" clip-rule="evenodd" d="M44.9995 21C45.2973 21 45.8701 20.855 45.9995 21C46.1354 21.1391 45.9995 21.8307 45.9995 22C45.9995 22.2661 46.2908 21.7399 45.9995 22C45.7083 22.26 45.349 22.8549 44.9995 23C44.6565 23.1391 44.2131 23 43.9995 23C43.9736 23 43.9995 23.7884 43.9995 24C43.9995 24.2721 43.8895 23.8549 43.9995 24C44.1161 24.139 43.8053 24 43.9995 24C44.0514 24 44.9542 24.0121 44.9995 24C45.0513 23.988 44.9542 24.0182 44.9995 24V24C45.0449 23.9759 44.9607 24.0302 44.9995 24C45.0383 23.9698 44.9672 24.0242 44.9995 24C45.0384 23.9758 44.9737 24.0242 44.9995 24C45.032 23.9698 44.9867 24.0181 44.9995 24V24C45.0125 24 44.9672 23.9396 44.9995 24C45.0384 24.0545 44.9995 23.9759 44.9995 24C44.909 24.1452 45.2713 24.7884 44.9995 25C44.7276 25.2117 44.2649 25 43.9995 25C43.6631 25 43.1809 25.2419 42.9995 25C42.8248 24.7521 42.9995 24.4293 42.9995 24C42.9995 23.4195 43.5271 22.5806 43.9995 22C44.472 21.4136 44.5077 21 44.9995 21ZM44.9995 21C44.6953 21 44.2714 21.5888 43.9995 22C43.7341 22.4052 43.9995 22.7762 43.9995 23C43.9995 23.0242 43.9737 23 43.9995 23C44.2326 23 44.6306 23.2903 44.9995 23C45.375 22.7098 44.9995 22.3024 44.9995 22C44.9995 21.8187 45.1614 21 44.9995 21Z" fill="#727272"/>
<path fill-rule="evenodd" clip-rule="evenodd" d="M51 22C50.871 21.7741 50.2581 21 50 21C49.9238 21 50.1115 20.9537 50 21C49.8886 21.0405 49.2053 21.8147 49 22C48.7948 22.1852 49.1877 21.6932 49 22V20C49.0762 19.6353 50 19.0694 50 19C50 18.9074 49.0352 19.0174 49 19C48.6423 19.1274 48.3813 18.9652 48 19C47.9532 19.0463 48 18.9305 48 19C48 19.0347 47.9825 19 48 19C48.3579 19 49 19.8899 49 20C49 20.0694 49.0528 19.7626 49 20L48 24C47.9825 24.1041 48 23.9132 48 24C48 24.3068 47.8242 24.8321 48 25C48.1819 25.162 48.7771 25 49 25C49.5044 25 49.5426 24.5267 50 24C50.4576 23.4732 51 22.741 51 22C51 21.6932 51.1349 22.2257 51 22ZM49 22C49.1936 21.78 49.8769 22 50 22C50.088 22 49.9413 21.942 50 22C50.0587 22.052 49.9824 21.8957 50 22C50.0235 22.1042 49.9942 21.9248 50 22C50.0059 22.0752 50 22.8899 50 23C50 23.3183 50.1114 22.67 50 23C49.8945 23.3241 50.1995 23.7742 50 24C49.8065 24.2199 49.2229 25 49 25C48.7948 25 49.0822 24.191 49 24C48.918 23.8089 48.9355 24.3183 49 24C49.047 23.7511 48.8358 23.3068 49 23C49.1643 22.6932 48.8124 22.2142 49 22Z" fill="#727272"/>
<path d="M51.9997 20.9998C52.1037 20.9998 51.9411 20.9091 51.9997 20.9998C52.0582 21.0845 51.9997 20.8607 51.9997 20.9998C51.9997 21.1631 52.0387 21.8426 51.9997 21.9998V22.9998C51.9541 23.1752 51.9997 23.8486 51.9997 23.9998C51.9997 24.2598 51.8761 23.9998 51.9997 23.9998C52.0907 23.9998 52.8306 24.1389 52.9997 23.9998C53.1689 23.8547 52.8176 24.2236 52.9997 23.9998C53.1883 23.7701 53.837 23.3263 53.9997 22.9998C54.1688 22.6732 53.9347 22.3203 53.9997 21.9998V20.9998C54.0843 20.9757 53.8826 20.9998 53.9997 20.9998C54.1167 20.9998 54.8955 20.9757 54.9997 20.9998L53.9997 23.9998C53.9802 24.0724 53.9997 23.9212 53.9997 23.9998C53.9997 24.151 53.9346 23.9998 53.9997 23.9998C54.0387 23.9998 53.9476 24.03 53.9997 23.9998C54.0582 23.9635 54.9476 24.0482 54.9997 23.9998C55.0582 23.9515 54.9541 24.0422 54.9997 23.9998C55.0452 23.9514 54.9607 24.0361 54.9997 23.9998V23.9998C55.0127 23.9998 54.9672 23.9394 54.9997 23.9998C55.0387 24.0543 54.9997 23.9757 54.9997 23.9998C54.9152 24.1328 54.2663 24.7821 53.9997 24.9998C53.733 25.2175 54.2013 24.9998 53.9997 24.9998C53.8955 24.9998 54.0582 25.0845 53.9997 24.9998C53.9411 24.9091 52.9997 25.1389 52.9997 24.9998C52.9997 24.9031 53.9541 24.2235 53.9997 23.9998V22.9998C53.9347 23.1147 53.2013 23.7397 52.9997 23.9998C52.798 24.2598 53.3054 24.7216 52.9997 24.9998C52.6941 25.278 52.1948 24.9998 51.9997 24.9998C51.6745 24.9998 50.9997 24.3989 50.9997 23.9998C50.9997 23.7216 50.9086 23.3808 50.9997 22.9998L51.9997 21.9998C52.0322 21.7821 51.9997 22.024 51.9997 21.9998C51.9997 21.8486 52.0647 21.9998 51.9997 21.9998C51.9736 21.9998 52.0452 21.9696 51.9997 21.9998C51.9541 22.0241 51.0517 21.9575 50.9997 21.9998V21.9998C50.9607 22.0361 51.0322 21.9635 50.9997 21.9998V21.9998C50.9866 21.9998 51.0387 22.0543 50.9997 21.9998C50.9672 21.9394 50.9997 22.024 50.9997 21.9998C51.0778 21.8788 50.7526 21.1994 50.9997 20.9998C51.2534 20.8003 51.8305 20.9998 51.9997 20.9998Z" fill="#727272"/>
<path d="M57.9999 21C57.7715 20.7717 57.3944 21 56.9999 21C56.5915 21 56.2767 20.7539 55.9999 21C55.7231 21.2403 55.9999 21.7477 55.9999 22C55.9999 22.2042 55.8685 22.8019 55.9999 23C56.1384 23.1983 55.8407 22.8619 55.9999 23C56.1591 23.1382 56.8685 23.8198 56.9999 24C57.1384 24.1742 56.9999 23.8439 56.9999 24C56.9999 24.1021 57.0967 23.9099 56.9999 24C56.9099 24.0841 56.1521 25 55.9999 25C55.813 25 56.1175 24.0902 55.9999 24C55.8892 23.91 56.076 24.0841 55.9999 24C55.9238 23.9099 55.0967 24 54.9999 24C54.8961 24 55.0691 23.916 54.9999 24C54.9377 24.0842 54.9999 23.8919 54.9999 24C54.9999 24.0661 54.9653 24.952 54.9999 25C55.2282 25.2283 55.6054 25 55.9999 25C56.4359 25 56.7231 25.2042 56.9999 25C57.2766 24.7958 56.9999 24.3304 56.9999 24C56.9999 23.7958 57.1384 23.1982 56.9999 23C56.8685 22.8018 57.1591 23.1382 56.9999 23C56.8407 22.8619 56.1384 22.1742 55.9999 22C55.8685 21.8198 55.9999 22.1562 55.9999 22C55.9999 21.8919 55.9168 22.0842 55.9999 22C56.0828 21.916 56.8546 21 56.9999 21C57.1868 21 56.8892 21.9099 56.9999 22C57.1175 22.0901 56.9238 21.9099 56.9999 22C57.076 22.0841 57.903 22 57.9999 22C58.1037 22 57.9375 22.0781 57.9999 22C58.0691 21.9219 57.9999 22.1081 57.9999 22C57.9999 21.9459 58.0345 21.0721 57.9999 21Z" fill="#727272"/>
<path d="M59.9995 20.9999C60.1148 20.9999 60.9346 20.9092 60.9995 20.9999C61.0643 21.0846 60.9995 20.8608 60.9995 20.9999C60.9995 21.1268 61.0426 21.8063 60.9995 21.9999L59.9995 23.9999C59.9779 24.0724 59.9995 23.9213 59.9995 23.9999C59.9995 24.1511 59.9274 23.9999 59.9995 23.9999C60.0426 23.9999 59.9418 24.0301 59.9995 23.9999C60.0643 23.9636 59.9418 24.0482 59.9995 23.9999C60.0643 23.9514 60.949 24.0422 60.9995 23.9999C61.05 23.9515 60.9563 24.0361 60.9995 23.9999V23.9999C61.0139 23.9999 60.9634 23.9393 60.9995 23.9999C61.0426 24.0542 60.9995 23.9756 60.9995 23.9999C60.9058 24.1329 60.295 24.7822 59.9995 24.9999C59.704 25.2176 60.223 24.9999 59.9995 24.9999C59.8842 24.9999 59.0644 25.0846 58.9995 24.9999C58.9347 24.9092 58.9995 25.1389 58.9995 24.9999C58.9995 24.9031 58.949 24.2235 58.9995 23.9999L59.9995 21.9999C60.0355 21.8124 59.9995 22.0543 59.9995 21.9999C59.9995 21.8487 60.0716 21.9999 59.9995 21.9999C59.9707 21.9999 60.05 21.9695 59.9995 21.9999C59.9491 22.024 59.0572 21.9575 58.9995 21.9999V21.9999C58.9563 22.0361 59.0356 21.9636 58.9995 21.9999V21.9999C58.9852 21.9999 59.0428 22.0543 58.9995 21.9999C58.9635 21.9394 58.9995 22.024 58.9995 21.9999C59.086 21.879 59.7257 21.1994 59.9995 20.9999C60.2806 20.8002 59.8121 20.9999 59.9995 20.9999Z" fill="#727272"/>
<path d="M59.9998 19.0001C60.1133 19.0001 59.924 18.9201 59.9998 19.0001C60.0831 19.0801 59.9998 18.8933 59.9998 19.0001C59.9998 19.16 60.1209 19.8802 59.9998 20.0001C59.8862 20.1201 59.174 20.0001 58.9998 20.0001C58.8786 20.0001 59.068 20.0801 58.9998 20.0001C58.9316 19.9134 58.9998 20.12 58.9998 20.0001C58.9998 19.8467 58.886 19.1134 58.9998 19.0001C59.1133 18.8867 59.833 19.0001 59.9998 19.0001Z" fill="#727272"/>
<path d="M61.9999 21.0001C61.9425 20.9094 62.1019 21.0001 61.9999 21.0001C61.8341 21.0001 61.2487 20.8005 60.9999 21.0001C60.7574 21.1997 61.0764 21.8791 60.9999 22.0001C60.9999 22.0242 60.968 21.9396 60.9999 22.0001C61.0382 22.0545 60.9871 22.0001 60.9999 22.0001V22.0001C61.0318 21.9638 60.9617 22.0363 60.9999 22.0001V22.0001C61.0509 21.9577 61.9552 22.0243 61.9999 22.0001C62.0446 21.9698 61.9743 22.0001 61.9999 22.0001C62.0637 22.0001 61.9999 21.8488 61.9999 22.0001C61.9999 22.0242 62.0318 21.7823 61.9999 22.0001L60.9999 25.0001C61.1019 25.0242 60.885 25.0001 60.9999 25.0001C61.1147 25.0001 61.917 25.0242 61.9999 25.0001V24.0001C62.1275 23.3833 62.5598 22.5444 62.9999 22.0001C63.4465 21.4499 63.7893 22.0001 63.9999 22.0001C64.121 22.0001 63.9999 21.7401 63.9999 22.0001C63.9999 22.127 64.0446 22.8005 63.9999 23.0001V24.0001C63.9552 24.2237 62.9999 24.9033 62.9999 25.0001C62.9999 25.1391 63.9424 24.9094 63.9999 25.0001C64.0573 25.0848 63.8977 25.0001 63.9999 25.0001C64.1976 25.0001 63.7384 25.2178 63.9999 25.0001C64.2615 24.7823 64.917 24.1331 64.9999 24.0001C64.9999 23.9759 65.0382 24.0545 64.9999 24.0001C64.968 23.9396 65.0126 24.0001 64.9999 24.0001V24.0001C64.9616 24.0363 65.0446 23.9516 64.9999 24.0001C64.9553 24.0424 65.0573 23.9517 64.9999 24.0001C64.9488 24.0485 64.0573 23.9638 63.9999 24.0001C63.9488 24.0303 64.0382 24.0001 63.9999 24.0001C63.9361 24.0001 63.9999 24.1513 63.9999 24.0001C63.9999 23.9214 63.9807 24.0726 63.9999 24.0001V23.0001C64.0891 22.613 64.9999 22.2722 64.9999 22.0001C64.9999 21.601 64.3188 21.0001 63.9999 21.0001C63.8085 21.0001 63.3125 20.722 62.9999 21.0001C62.6937 21.2723 63.2168 21.734 62.9999 22.0001C62.7894 22.2662 62.0637 22.8912 61.9999 23.0001V22.0001C62.0382 21.8126 61.9999 21.1331 61.9999 21.0001C61.9999 20.861 62.0574 21.0848 61.9999 21.0001Z" fill="#727272"/>
<path fill-rule="evenodd" clip-rule="evenodd" d="M66.9996 21C67.2973 21 67.8702 20.855 67.9996 21C68.1356 21.1391 67.9996 21.8307 67.9996 22C67.9996 22.2661 68.2908 21.7399 67.9996 22C67.7083 22.26 67.349 22.8549 66.9996 23C66.6565 23.1391 66.2132 23 65.9996 23C65.9737 23 65.9996 23.7884 65.9996 24C65.9996 24.2721 65.8895 23.8549 65.9996 24C66.1161 24.139 65.8054 24 65.9996 24C66.0513 24 66.9542 24.0121 66.9996 24C67.0514 23.988 66.9542 24.0182 66.9996 24V24C67.0449 23.9759 66.9607 24.0302 66.9996 24V24C67.0218 23.983 66.9797 24.0147 66.9996 24C67.0383 23.9758 66.9737 24.0242 66.9996 24C67.0319 23.9698 66.9866 24.0181 66.9996 24V24C67.0125 24 66.9672 23.9396 66.9996 24C67.0384 24.0545 66.9996 23.9759 66.9996 24C66.909 24.1452 67.2715 24.7884 66.9996 25C66.7277 25.2117 66.265 25 65.9996 25C65.6631 25 65.1808 25.2419 64.9996 25C64.8247 24.7521 64.9996 24.4293 64.9996 24C64.9996 23.4195 65.5271 22.5806 65.9996 22C66.4722 21.4136 66.5076 21 66.9996 21ZM66.9996 21C66.6953 21 66.2714 21.5888 65.9996 22C65.7342 22.4052 65.9996 22.7762 65.9996 23C65.9996 23.0242 65.9737 23 65.9996 23C66.2326 23 66.6306 23.2903 66.9996 23C67.375 22.7098 66.9996 22.3024 66.9996 22C66.9996 21.8187 67.1613 21 66.9996 21Z" fill="#727272"/>
<path d="M70.9999 21C70.7716 20.7717 70.3944 21 69.9999 21C69.5917 21 69.2768 20.7539 68.9999 21C68.7231 21.2403 68.9999 21.7477 68.9999 22C68.9999 22.2042 68.8685 22.8019 68.9999 23C69.1384 23.1983 68.8408 22.8619 68.9999 23C69.1591 23.1382 69.8685 23.8198 69.9999 24C70.1384 24.1742 69.9999 23.8439 69.9999 24C69.9999 24.1021 70.0968 23.9099 69.9999 24C69.9099 24.0841 69.1523 25 68.9999 25C68.8131 25 69.1176 24.0902 68.9999 24C68.8892 23.91 69.0761 24.0841 68.9999 24C68.9238 23.9099 68.0968 24 67.9999 24C67.8961 24 68.0691 23.916 67.9999 24C67.9376 24.0842 67.9999 23.8919 67.9999 24C67.9999 24.0661 67.9653 24.952 67.9999 25C68.2283 25.2283 68.6055 25 68.9999 25C69.4359 25 69.7231 25.2042 69.9999 25C70.2768 24.7958 69.9999 24.3304 69.9999 24C69.9999 23.7958 70.1383 23.1982 69.9999 23C69.8684 22.8018 70.1591 23.1382 69.9999 23C69.8408 22.8619 69.1383 22.1742 68.9999 22C68.8684 21.8198 68.9999 22.1562 68.9999 22C68.9999 21.8919 68.9169 22.0842 68.9999 22C69.083 21.916 69.8546 21 69.9999 21C70.1868 21 69.8892 21.9099 69.9999 22C70.1176 22.0901 69.9238 21.9099 69.9999 22C70.0761 22.0841 70.903 22 70.9999 22C71.1037 22 70.9377 22.0781 70.9999 22C71.0692 21.9219 70.9999 22.1081 70.9999 22C70.9999 21.9459 71.0345 21.0721 70.9999 21Z" fill="#727272"/>
<path d="M72.9999 21C73.3943 21 73.7715 20.7717 73.9999 21C74.0345 21.0721 73.9999 21.9459 73.9999 22C73.9999 22.1081 74.0691 21.9219 73.9999 22C73.9375 22.0781 74.1036 22 73.9999 22C73.9029 22 73.076 22.0841 72.9999 22C72.9238 21.9099 73.1175 22.0901 72.9999 22C72.8891 21.9099 73.1868 21 72.9999 21C72.8546 21 72.0829 21.916 71.9999 22C71.9168 22.0842 71.9999 21.8919 71.9999 22C71.9999 22.1562 71.8685 21.8198 71.9999 22C72.1383 22.1742 72.8407 22.8619 72.9999 23C73.1591 23.1382 72.8685 22.8018 72.9999 23C73.1383 23.1982 72.9999 23.7958 72.9999 24C72.9999 24.3304 73.2767 24.7958 72.9999 25C72.7231 25.2042 72.4359 25 71.9999 25C71.6054 25 71.2282 25.2283 70.9999 25C70.9653 24.952 70.9999 24.0661 70.9999 24C70.9999 23.8919 70.9376 24.0842 70.9999 24C71.0692 23.916 70.8961 24 70.9999 24C71.0968 24 71.9238 23.9099 71.9999 24C72.076 24.0841 71.8892 23.91 71.9999 24C72.1175 24.0902 71.8131 25 71.9999 25C72.1521 25 72.9099 24.0841 72.9999 24C73.0968 23.9099 72.9999 24.1021 72.9999 24C72.9999 23.8439 73.1382 24.1742 72.9999 24C72.8684 23.8198 72.1591 23.1382 71.9999 23C71.8407 22.8619 72.1382 23.1983 71.9999 23C71.8684 22.8019 71.9999 22.2042 71.9999 22C71.9999 21.7477 71.7231 21.2403 71.9999 21C72.2767 20.7539 72.5915 21 72.9999 21Z" fill="#727272"/>
<path fill-rule="evenodd" clip-rule="evenodd" d="M79 21.0001C78.8139 20.7516 78.3431 21.0001 78 21.0001C77.5583 21.0001 77.4187 21.4364 77 22.0001C76.5815 22.5637 76 23.3698 76 24.0001C76 24.4364 75.8198 24.7637 76 25.0001C76.186 25.2365 76.6513 25.0001 77 25.0001C77.4419 25.0001 77.5815 24.5516 78 24.0001C78.4244 23.4425 79 22.6244 79 22.0001C79 21.5638 79.1919 21.2486 79 21.0001ZM77 22.0001C77.2384 21.5213 77.7094 21.0001 78 21.0001C78.1629 21.0001 77.907 21.8122 78 22.0001C78.093 22.1879 78 21.6425 78 22.0001C78 22.485 78.2269 23.5213 78 24.0001C77.7791 24.4729 77.2907 25.0001 77 25.0001C76.8373 25.0001 77.1104 24.194 77 24.0001C76.8954 23.8062 77 24.3516 77 24.0001C77 23.5213 76.7617 22.4728 77 22.0001Z" fill="#727272"/>
<path d="M82.0004 19.0002C82.3529 19.0002 82.9013 18.8053 83.0004 19.0002C83.0004 19.3729 83.1987 20.0002 83.0004 20.0002C82.9233 20.0002 82.0721 20.0862 82.0004 20.0002C81.9343 19.9142 82.0776 19.0862 82.0004 19.0002C81.9288 18.9084 82.0886 19.0002 82.0004 19.0002C81.8242 19.0002 81.1988 19.6218 81.0004 20.0002C80.8022 20.373 81.1107 20.3293 81.0004 21.0002V21.0002C81.0004 21.0231 80.9839 22.0002 81.0004 22.0002H82.0004C82.028 22.0002 82.0004 21.9314 82.0004 22.0002C82.0004 22.092 82.061 21.897 82.0004 22.0002H81.0004C80.9729 22.0002 81.0059 21.9544 81.0004 22.0002L80.0004 25.0002C79.8682 25.7973 80.3365 25.5816 80.0004 26.0002C79.6698 26.4189 79.3915 27.0002 79.0004 27.0002C78.8076 27.0002 78.1106 27.0748 78.0004 27.0002C77.8902 26.9314 78.0335 27.0921 78.0004 27.0002C77.9949 26.8683 77.9343 26.1035 78.0004 26.0002C78.0665 25.897 77.9013 26.0002 78.0004 26.0002C78.05 26.0002 77.9564 25.9486 78.0004 26.0002C78.0445 26.0576 78.9674 25.9372 79.0004 26.0002C79.0335 26.069 78.9343 26.9486 79.0004 27.0002C79.061 27.0576 78.9233 27.0002 79.0004 27.0002C79.1051 27.0002 78.8957 26.1379 79.0004 26.0002C79.1051 25.8683 79.9288 26.2067 80.0004 26.0002C80.0775 25.7995 79.9508 25.1837 80.0004 25.0002C80.0555 24.8167 79.9784 25.1436 80.0004 25.0002V22.0002V22.0002C80.0004 21.9716 80.017 22.0002 80.0004 22.0002V22.0002C79.9895 22.0002 80.0004 22.0174 80.0004 22.0002C80.0004 21.9487 79.9123 22.0977 80.0004 22.0002C80.0886 21.9027 79.9123 22.0002 80.0004 22.0002V22.0002C80.0224 22.0002 79.9895 21.0518 80.0004 21.0002C80.1107 20.2948 80.6368 20.459 81.0004 20.0002C81.364 19.5414 81.5817 19.0002 82.0004 19.0002Z" fill="#727272"/>
<path d="M86.9999 21C86.7715 20.7717 86.3944 21 85.9999 21C85.5917 21 85.2768 20.7539 84.9999 21C84.7231 21.2403 84.9999 21.7477 84.9999 22C84.9999 22.2042 84.8684 22.8019 84.9999 23C85.1383 23.1983 84.8408 22.8619 84.9999 23C85.1591 23.1382 85.8684 23.8198 85.9999 24C86.1384 24.1742 85.9999 23.8439 85.9999 24C85.9999 24.1021 86.0968 23.9099 85.9999 24C85.9099 24.0841 85.1522 25 84.9999 25C84.8131 25 85.1176 24.0902 84.9999 24C84.8892 23.91 85.0761 24.0841 84.9999 24C84.9238 23.9099 84.0968 24 83.9999 24C83.8961 24 84.0691 23.916 83.9999 24C83.9376 24.0842 83.9999 23.8919 83.9999 24C83.9999 24.0661 83.9653 24.952 83.9999 25C84.2283 25.2283 84.6055 25 84.9999 25C85.4359 25 85.7231 25.2042 85.9999 25C86.2768 24.7958 85.9999 24.3304 85.9999 24C85.9999 23.7958 86.1383 23.1982 85.9999 23C85.8684 22.8018 86.1591 23.1382 85.9999 23C85.8408 22.8619 85.1383 22.1742 84.9999 22C84.8684 21.8198 84.9999 22.1562 84.9999 22C84.9999 21.8919 84.9169 22.0842 84.9999 22C85.083 21.916 85.8546 21 85.9999 21C86.1868 21 85.8892 21.9099 85.9999 22C86.1176 22.0901 85.9237 21.9099 85.9999 22C86.0761 22.0841 86.903 22 86.9999 22C87.1037 22 86.9377 22.0781 86.9999 22C87.0691 21.9219 86.9999 22.1081 86.9999 22C86.9999 21.9459 87.0345 21.0721 86.9999 21Z" fill="#727272"/>
<path d="M87.9997 20.0002C88.0161 19.9405 87.7483 20.0002 87.9997 20.0002C88.0653 20.0002 87.967 19.9942 87.9997 20.0002V21.0002H88.9997C89.027 21.0002 88.9997 20.9225 88.9997 21.0002C88.9997 21.0719 89.0488 21.8986 88.9997 22.0002H87.9997V24.0002C87.9833 24.0719 87.9997 23.9225 87.9997 24.0002C87.9997 24.1495 87.945 24.0002 87.9997 24.0002C88.0324 24.0002 87.9559 24.0301 87.9997 24.0002C88.0488 23.9644 87.9559 24.048 87.9997 24.0002C88.0488 23.9524 87.9614 24.0419 87.9997 24.0002C88.0379 23.9523 87.9669 24.036 87.9997 24.0002V24.0002C88.0106 24.0002 87.9724 23.9405 87.9997 24.0002C88.0325 24.0539 87.9997 23.9763 87.9997 24.0002C87.9286 24.1316 88.2238 24.7851 87.9997 25.0002C87.7756 25.2152 87.1691 25.0002 86.9997 25.0002C86.9123 25.0002 87.0488 25.0838 86.9997 25.0002C86.9506 24.9106 86.9997 25.1376 86.9997 25.0002C86.9997 24.9046 86.9614 24.2213 86.9997 24.0002L87.9997 22.0002H86.9997C86.9833 22.0002 86.9997 21.0659 86.9997 21.0002C86.9997 20.9225 86.9342 21.1077 86.9997 21.0002H87.9997V20.0002Z" fill="#727272"/>
<path fill-rule="evenodd" clip-rule="evenodd" d="M91.9996 21.0001C91.8173 20.9214 91.1975 21.0001 90.9996 21.0001C90.6506 21.0001 90.3486 20.722 89.9996 21.0001C89.6506 21.2722 89.2235 21.5647 88.9996 22.0001C88.7808 22.4294 88.9996 23.5708 88.9996 24.0001C88.9996 24.3388 88.8693 24.7582 88.9996 25.0001C89.135 25.2359 89.7704 25.0001 89.9996 25.0001C90.1038 25.0001 89.885 25.0848 89.9996 25.0001C90.1194 24.9094 89.8955 25.1391 89.9996 25.0001C90.1038 24.861 90.9318 24.1089 90.9996 24.0001C91.0673 23.8852 90.9475 24.1088 90.9996 24.0001C90.9996 24.0121 91.01 23.9577 90.9996 24.0001C90.9944 24.0363 91.01 23.9335 90.9996 24.0001C90.9632 24.2177 90.9996 24.8973 90.9996 25.0001C90.9996 25.1391 90.9527 24.9094 90.9996 25.0001C91.0464 25.0848 90.9162 25.0001 90.9996 25.0001C91.161 25.0001 91.786 25.2178 91.9996 25.0001C92.2131 24.7823 91.9319 24.1332 91.9996 24.0001C91.9996 23.9759 92.0308 24.0545 91.9996 24.0001C91.9735 23.9396 92.0099 24.0001 91.9996 24.0001V24.0001C91.9683 24.0363 92.0361 23.9516 91.9996 24.0001C91.9632 24.0424 92.0464 23.9517 91.9996 24.0001C91.9579 24.0485 91.0464 23.9638 90.9996 24.0001C90.9579 24.0303 91.0308 24.0001 90.9996 24.0001C90.9475 24.0001 90.9996 24.1513 90.9996 24.0001C90.9996 23.9214 90.9839 24.0726 90.9996 24.0001L91.9996 21.0001ZM89.9996 22.0001C90.2912 21.5344 90.6923 21.0001 90.9996 21.0001C91.1506 21.0001 90.9371 21.9214 90.9996 22.0001V22.0001C90.9215 22.4535 91.234 23.5586 90.9996 24.0001C90.7704 24.4416 90.1871 24.0001 89.9996 24.0001C89.734 24.0001 89.9996 24.5926 89.9996 24.0001C89.9996 23.4861 89.7131 22.4596 89.9996 22.0001Z" fill="#727272"/>
<path fill-rule="evenodd" clip-rule="evenodd" d="M95 21C95.1543 21 95.8868 20.8841 96 21C96.1182 21.1102 96 21.832 96 22C96 22.3769 95.2987 22.7565 95 23C94.7063 23.2434 94.4636 22.9131 94 23C94.3094 23.5217 94.8401 23.8319 95 24C95.165 24.1681 94.8868 24 95 24C95.0928 24 95.918 24.087 96 24C96.0878 23.9131 95.959 24.0811 96 24C96.0156 24 95.9689 23.9537 96 24C96.0361 24.0464 96 23.9768 96 24C95.9738 24.0986 96.165 24.8087 96 25C95.8351 25.1913 95.1502 25 95 25C94.9336 25 95.0673 25.0232 95 25C94.9385 24.9768 95.0665 25.0521 95 25C94.9377 24.9478 95.0567 25.0463 95 25C94.9484 24.9536 94.0673 24.0927 94 24C93.9385 23.9073 94.0411 24.0522 94 24C93.959 23.9421 94.0673 24.116 94 24C93.9377 23.8841 94.0255 24.0463 94 24C93.9738 23.9536 94.0624 24.1217 94 24C93.9385 23.8782 94.0156 23.0232 94 23V25C93.9073 25.029 93.078 25 93 25C92.9336 25 93.1031 25.029 93 25L94 20C94.046 19.7623 94 20.0696 94 20C94 19.8898 93.3143 19 93 19C92.9845 19 93 19.0348 93 19C93 18.9304 92.9582 19.0464 93 19C93.3348 18.9652 93.6858 19.1276 94 19C94.0312 19.0174 95 18.9073 95 19C95 19.0696 94.0673 19.6348 94 20V22V22C94.0567 21.9246 93.9229 22.087 94 22C94.0821 21.9073 94.8967 22.0986 95 22C95.1083 21.9015 94.8712 21.0638 95 21C95.1346 20.9362 94.8762 21 95 21ZM95 22C94.8351 22 94.2888 21.6116 94 22C93.717 22.3884 94 22.8725 94 23C94 23.0116 93.9894 23 94 23C94.0206 23 93.9689 23.0058 94 23C94.0361 22.9943 93.9065 23.0174 94 23C94.0977 22.9768 93.9123 23.029 94 23C94.0928 22.971 94.8967 23.0521 95 23C95.1083 22.9421 94.9229 23.0638 95 23C95.0772 22.9304 94.9484 22.0986 95 22C95.0567 21.9015 95 22.1159 95 22C95 21.7507 95.2068 22 95 22Z" fill="#727272"/>
<path d="M99.9998 20.9999C99.9344 20.9092 99.1156 20.9999 98.9998 20.9999C98.8128 20.9999 99.2807 20.8002 98.9998 20.9999C98.7268 21.1994 98.0869 21.879 97.9998 21.9999C97.9998 22.024 97.9642 21.9394 97.9998 21.9999C98.0433 22.0543 97.9848 21.9999 97.9998 21.9999V21.9999C98.0353 21.9636 97.9562 22.0361 97.9998 21.9999V21.9999C98.0571 21.9575 98.9493 22.024 98.9998 21.9999C99.0502 21.9695 98.9711 21.9999 98.9998 21.9999C99.072 21.9999 98.9998 21.8487 98.9998 21.9999C98.9998 22.0543 99.0365 21.8124 98.9998 21.9999L97.9998 23.9999C97.9493 24.2235 97.9998 24.9031 97.9998 24.9999C97.9998 25.1389 97.9344 24.9092 97.9998 24.9999C98.064 25.0846 98.8851 24.9999 98.9998 24.9999C99.2234 24.9999 98.7039 25.2176 98.9998 24.9999C99.2945 24.7822 99.9057 24.1329 99.9998 23.9999C99.9998 23.9756 100.043 24.0542 99.9998 23.9999C99.9642 23.9393 100.015 23.9999 99.9998 23.9999V23.9999C99.9562 24.0361 100.05 23.9515 99.9998 23.9999C99.9493 24.0422 99.0651 23.9514 98.9998 23.9999C98.9424 24.0482 99.0651 23.9636 98.9998 23.9999C98.9424 24.0301 99.0433 23.9999 98.9998 23.9999C98.9275 23.9999 98.9998 24.1511 98.9998 23.9999C98.9998 23.9213 98.978 24.0724 98.9998 23.9999L99.9998 21.9999C100.043 21.8063 99.9998 21.1268 99.9998 20.9999C99.9998 20.8608 100.064 21.0846 99.9998 20.9999Z" fill="#727272"/>
<path d="M99.0001 19.0001C98.9242 18.9201 99.1145 19.0001 99.0001 19.0001C98.8338 19.0001 98.1133 18.8867 98.0001 19.0001C97.8856 19.1134 98.0001 19.8467 98.0001 20.0001C98.0001 20.12 97.9326 19.9134 98.0001 20.0001C98.0688 20.0801 97.8784 20.0001 98.0001 20.0001C98.1736 20.0001 98.8868 20.1201 99.0001 20.0001C99.1206 19.8802 99.0001 19.16 99.0001 19.0001C99.0001 18.8933 99.0832 19.0801 99.0001 19.0001Z" fill="#727272"/>
<path d="M101 21.0001C101.102 21.0001 100.943 20.9094 101 21.0001C101.058 21.0848 101 20.861 101 21.0001C101 21.1331 101.038 21.8126 101 22.0001V23.0001C101.064 22.8912 101.79 22.2662 102 22.0001C102.217 21.734 101.693 21.2723 102 21.0001C102.313 20.722 102.809 21.0001 103 21.0001C103.319 21.0001 104 21.601 104 22.0001C104 22.2722 103.089 22.613 103 23.0001V24.0001C102.981 24.0726 103 23.9214 103 24.0001C103 24.1513 102.936 24.0001 103 24.0001C103.038 24.0001 102.948 24.0303 103 24.0001C103.057 23.9638 103.948 24.0485 104 24.0001C104.057 23.9517 103.956 24.0424 104 24.0001C104.045 23.9516 103.961 24.0363 104 24.0001V24.0001C104.012 24.0001 103.969 23.9396 104 24.0001C104.039 24.0545 104 23.9759 104 24.0001C103.917 24.1331 103.262 24.7823 103 25.0001C102.739 25.2178 103.197 25.0001 103 25.0001C102.897 25.0001 103.058 25.0848 103 25.0001C102.942 24.9094 102 25.1391 102 25.0001C102 24.9033 102.955 24.2237 103 24.0001V23.0001C103.045 22.8005 103 22.127 103 22.0001C103 21.7401 103.121 22.0001 103 22.0001C102.79 22.0001 102.447 21.4499 102 22.0001C101.56 22.5444 101.127 23.3833 101 24.0001V25.0001C100.918 25.0242 100.115 25.0001 100 25.0001C99.8853 25.0001 100.102 25.0242 100 25.0001L101 22.0001C101.032 21.7823 101 22.0242 101 22.0001C101 21.8488 101.064 22.0001 101 22.0001C100.975 22.0001 101.045 21.9698 101 22.0001C100.955 22.0243 100.051 21.9577 100 22.0001V22.0001C99.9625 22.0363 100.032 21.9638 100 22.0001V22.0001C99.9879 22.0001 100.039 22.0545 100 22.0001C99.9686 21.9396 100 22.0242 100 22.0001C100.076 21.8791 99.7573 21.1997 100 21.0001C100.249 20.8005 100.834 21.0001 101 21.0001Z" fill="#727272"/>
<path fill-rule="evenodd" clip-rule="evenodd" d="M107 21.0001C106.792 20.9164 106.174 21.0001 106 21.0001C105.585 21.0001 105.341 21.6354 105 22.0001C104.665 22.3588 105 22.4979 105 23.0001C105 23.2154 104.872 22.8387 105 23.0001C105.132 23.1555 104.861 23.9403 105 24.0001C105.144 24.06 105.891 24.0001 106 24.0001C105.833 24.0419 105.208 23.8686 105 24.0001C104.798 24.1317 105 23.8985 105 24.0001C105 24.1137 104.856 24.8985 105 25.0001V25.0001C104.844 25.0719 105.121 24.9284 105 25.0001C104.879 25.0719 104.144 24.8925 104 25.0001C103.862 25.1078 104.074 25.8686 104 26.0001C103.925 26.1376 104 25.8566 104 26.0001C104 26.2752 103.752 26.8447 104 27.0001C104.254 27.1556 104.602 27.0001 105 27.0001C105.617 27.0001 106.636 27.2513 107 27.0001C107.369 26.749 107 26.4246 107 26.0001C107 25.8087 107.115 25.1496 107 25.0001C106.89 24.8507 107.162 25.0839 107 25.0001C106.838 24.9165 106.167 25.0539 106 25.0001C105.838 24.9403 106.116 24.0479 106 24.0001C105.891 23.9462 106 24.054 106 24.0001C106 23.9403 105.902 24.0659 106 24.0001C106.097 23.9284 105.826 24.0839 106 24.0001C106.178 23.9105 106.942 24.036 107 24.0001C107.069 23.9582 106.937 23.0599 107 23.0001C107.069 22.9403 106.902 23.1197 107 23.0001C107.104 22.8806 106.942 23.1855 107 23.0001C107.063 22.8088 107 22.2213 107 22.0001C107 21.9045 107.035 22.2153 107 22.0001C107 21.9642 106.966 22.0001 107 22.0001H108C108.023 21.9762 107.982 21.0599 108 21.0001C108.023 20.9403 108 21.042 108 21.0001C108 20.9522 108.035 21.0001 108 21.0001V21.0001C107.803 21.0001 107.208 21.0779 107 21.0001ZM107 26.0001C107.074 26.1137 107 25.8686 107 26.0001C107 26.1855 107.208 25.8806 107 26.0001C106.792 26.1257 106.283 27.0001 106 27.0001C105.244 27.0001 105 26.4785 105 26.0001C105 25.9045 104.954 26.0898 105 26.0001C105.051 25.9105 104.948 25.054 105 25.0001C105.057 24.9463 104.885 25.0659 105 25.0001C105.116 24.9343 104.954 25.024 105 25.0001C105.052 24.9762 105.891 25.048 106 25.0001C106.162 25.054 105.89 24.9582 106 25.0001C106.115 25.048 105.862 24.9224 106 25.0001C106.139 25.0839 106.93 25.8925 107 26.0001ZM106 22.0001C106.162 21.7131 105.752 21.0001 106 21.0001C106.162 21.0001 106.908 21.8088 107 22.0001C107.093 22.1915 107 21.7609 107 22.0001C107 22.2991 107.162 22.7371 107 23.0001C106.845 23.2633 106.242 24.0001 106 24.0001C105.833 24.0001 106.092 23.1555 106 23.0001C105.907 22.8446 105 23.2333 105 23.0001C105 22.6653 105.844 22.2812 106 22.0001Z" fill="#727272"/>
</g>
<defs>
<clipPath id="clip0_218_935">
<rect width="114" height="28" fill="white"/>
</clipPath>
</defs>
</svg>
