<svg width="117" height="19" viewBox="0 0 117 19" fill="none" xmlns="http://www.w3.org/2000/svg">
<g clip-path="url(#clip0_218_639)">
<path d="M32 3V8C32.4878 7.13797 34.1244 6 35 6C37.4223 6 39 8.12778 39 11C39 13.7372 37.4396 15 35 15C34.4772 15.0297 33.4689 15.234 33 15C32.5311 14.7659 32.2922 14.4365 32 14V15H30V3H32ZM32 11C31.9908 11.3198 31.8845 11.7018 32 12C32.1155 12.2982 32.7781 11.7705 33 12C33.2219 12.2294 33.7066 12.8754 34 13C34.2934 13.1245 34.6815 13 35 13C35.3185 13 34.7066 13.1245 35 13C35.2934 12.8754 35.7781 12.2294 36 12C36.2219 11.7705 36.8845 12.2982 37 12C37.1155 11.7018 37.0092 11.3198 37 11C37.0189 10.6812 37.1107 10.2993 37 10C36.8892 9.70069 36.2217 9.22889 36 9C35.7784 8.77102 36.2948 8.11967 36 8C35.7053 7.88033 35.3178 7.99002 35 8C34.6812 7.9947 34.2953 7.87932 34 8C33.7046 8.12067 33.2246 8.7726 33 9C32.7754 9.22731 32.1179 9.70236 32 10C31.882 10.2976 31.9923 10.6798 32 11Z" fill="#727272"/>
<path d="M43 3V15H41V3H43Z" fill="#727272"/>
<path d="M51.9996 11.0001C52.0237 11.5953 52.1924 11.4446 51.9996 12.0001C51.8068 12.5555 51.3765 13.5788 50.9996 14.0001C50.6228 14.4214 50.4965 14.7845 49.9996 15.0001C49.5028 15.2156 48.5321 15.0269 47.9996 15.0001C45.5057 15.0001 43.9996 13.4743 43.9996 11.0001C43.9939 10.4091 43.8012 9.54797 43.9996 9.0001C44.198 8.45228 44.6278 7.42024 44.9996 7.0001C45.3714 6.57995 45.5117 6.22773 45.9996 6.0001C46.4875 5.77246 47.471 6.0001 47.9996 6.0001C48.5283 6.0001 49.5117 5.77246 49.9996 6.0001C50.4875 6.22773 50.6278 6.57995 50.9996 7.0001C51.3714 7.42024 51.8013 8.45228 51.9996 9.0001C52.198 9.54797 52.0054 10.4091 51.9996 11.0001ZM45.9996 11.0001C45.9996 12.3069 46.6126 13.0001 47.9996 13.0001C49.3867 13.0001 49.9996 12.3069 49.9996 11.0001C50.0138 10.6792 50.0973 10.3022 49.9996 10.0001C49.902 9.69796 50.194 9.23678 49.9996 9.0001C49.8054 8.76342 49.2606 8.13469 48.9996 8.0001C48.7387 7.86551 48.2868 8.01177 47.9996 8.0001C46.6288 8.00062 45.9996 9.71097 45.9996 11.0001Z" fill="#727272"/>
<path d="M61 13.9998C60.6209 14.4398 60.5066 14.7683 60 14.9998C59.4933 15.2313 58.5476 15.0165 58 14.9998C55.7852 14.9998 54 14.016 54 10.9998C54 7.98378 55.7852 5.99983 58 5.99983C58.5134 5.98025 59.5248 5.78292 60 5.99983C60.4753 6.21673 60.6468 6.58476 61 6.99983L60 8.99983C59.5801 8.5744 58.5679 8.00751 58 7.99983C57.7039 7.99145 57.2744 7.87543 57 7.99983C56.7257 8.12423 56.2065 8.76351 56 8.99983C55.7935 9.23624 56.1042 9.69115 56 9.99983C55.8959 10.3084 55.9842 10.6706 56 10.9998C55.9785 11.3257 55.8997 10.6928 56 10.9998C56.1004 11.3069 55.7954 11.7654 56 11.9998C56.2046 12.2342 56.7271 12.8792 57 12.9998C57.2729 13.1205 57.7067 13.0142 58 12.9998C58.3071 13.0126 58.7127 13.1213 59 12.9998C59.2873 12.8784 59.7779 12.2362 60 11.9998L61 13.9998Z" fill="#727272"/>
<path d="M65 3V10L68 7H71V7L67 11L71 15V15H68L65 11V15H63V3H65Z" fill="#727272"/>
<path d="M77 8.00017C76.7398 7.74094 76.3334 8.12968 76 8.00017C75.6666 7.87066 75.3539 7.97949 75 8.00017C74.0773 8.00017 73 8.46916 73 9.00017C73 9.5484 73.9959 9.93188 75 10.0002C76.4796 10.1019 78 9.75612 78 12.0002C78 13.4908 77.2431 15.0002 75 15.0002C74.3298 15.0501 73.6267 15.2608 73 15.0002C72.3732 14.7396 71.4652 13.5221 71 13.0002L72 12.0002C72.746 12.7216 73.9982 12.9576 75 13.0002C75.7318 13.017 76 12.6172 76 12.0002C76 11.4177 76.1147 11.0684 75 11.0002C73.5204 10.8801 71 10.9189 71 9.00017C71 7.04682 73.5681 6.00017 75 6.00017C75.5521 5.96058 75.4758 5.80913 76 6.00017C76.5241 6.19119 77.5837 6.60761 78 7.00017L77 8.00017Z" fill="#727272"/>
<path d="M86 13.9998C85.6209 14.4397 85.5067 14.7683 85 14.9998C84.4933 15.2313 83.5475 15.0164 83 14.9998C80.7852 14.9998 79 14.016 79 10.9998C79 7.98376 80.7852 5.99982 83 5.99982C83.5133 5.98028 84.5248 5.78291 85 5.99982C85.4751 6.21672 85.6469 6.58479 86 6.99982L85 8.99982C84.5802 8.57438 83.5679 8.0075 83 7.99982C82.7039 7.99144 82.2744 7.87542 82 7.99982C81.7256 8.12422 81.2065 8.7635 81 8.99982C80.7935 9.23623 81.1041 9.69114 81 9.99982C80.8959 10.3084 80.9842 10.6706 81 10.9998C80.9786 11.326 80.8994 10.6926 81 10.9998C81.1006 11.3071 80.7951 11.7654 81 11.9998C81.2048 12.2343 81.7269 12.8794 82 12.9998C82.2732 13.1203 82.7064 13.0145 83 12.9998C83.3071 13.0126 83.7127 13.1213 84 12.9998C84.2873 12.8785 84.7779 12.2361 85 11.9998L86 13.9998Z" fill="#727272"/>
<path d="M95 5.99991H97V14.9999H95V12.9999C94.5291 14.0035 92.9248 14.9824 92 14.9999C89.5434 15.0174 88 12.9907 88 9.99991C88 7.05846 89.5756 5.98242 92 5.99991C92.5184 5.98004 93.538 5.75768 94 5.99991C94.462 6.24215 94.7108 6.55685 95 6.99991V5.99991ZM90 9.99991C89.9785 10.3404 89.8845 10.6799 90 10.9999C90.1146 11.3198 90.7681 11.7554 91 11.9999C91.231 12.2444 91.692 12.8729 92 12.9999C92.308 13.1269 92.6688 13.0121 93 12.9999C96.2301 12.9999 96.2301 7.99991 93 7.99991C92.6697 7.98556 92.3071 7.87467 92 7.99991C91.692 8.12513 91.2319 8.75678 91 8.99991C90.7681 9.24313 90.1155 8.6808 90 8.99991C89.8845 9.31892 89.9794 9.66012 90 9.99991V9.99991Z" fill="#727272"/>
<path d="M98 17.9999V5.99989H100V6.99989C100.311 6.57903 100.532 6.23204 101 5.99989C101.467 5.76776 102.478 5.99232 103 5.99989C103.57 5.98443 103.471 5.78514 104 5.99989C104.529 6.21464 105.601 6.59071 106 6.99989C106.4 7.40908 106.797 8.46449 107 8.99989C107.204 9.53538 107.026 9.42744 107 9.99989C107 12.4333 105.657 14.9999 103 14.9999C102.126 14.9999 100.588 14.9123 100 13.9999V17.9999H98ZM105 9.99989C105 9.37238 104.441 9.44361 104 8.99989C103.558 8.55618 103.624 7.99989 103 7.99989C102.375 7.99989 101.442 8.55618 101 8.99989C100.559 9.44361 100 9.37238 100 9.99989C100 10.6274 100.559 11.5562 101 11.9999C101.442 12.4436 102.375 12.9999 103 12.9999C103.624 12.9999 103.558 12.4436 104 11.9999C104.441 11.5562 105 10.6274 105 9.99989Z" fill="#727272"/>
<path d="M111 11C111.124 12.0536 111.66 13 113 13C113.749 13.0128 114.421 12.5258 115 12L117 14C116.102 14.917 114.222 15.0307 113 15C110.351 15 109 12.7291 109 10C109 7.40947 110.506 6 113 6C115.571 6 117.297 7.49398 117 11H111ZM115 10C114.875 8.89461 114.091 8 113 8C112.524 7.959 112.392 7.69781 112 8C111.608 8.30215 111.131 9.49115 111 10H115Z" fill="#727272"/>
<path d="M8 14L4 12L1 14V15L8 19L14 15V14L11 12L8 14Z" fill="#727272"/>
<path d="M7 0L1 4V5L8 9L14 5V4L7 0Z" fill="#727272"/>
<path d="M7 6L14 9V10L8 13L1 10V9L7 6ZM7 5L1 9V10L8 14L14 10V9L7 5Z" fill="#727272"/>
</g>
<defs>
<clipPath id="clip0_218_639">
<rect width="116" height="19" fill="white" transform="translate(1)"/>
</clipPath>
</defs>
</svg>
