<svg width="125" height="27" viewBox="0 0 125 27" fill="none" xmlns="http://www.w3.org/2000/svg">
<path fill-rule="evenodd" clip-rule="evenodd" d="M7 6L10 4L13 6L20 0V10V21L10 27L0 21V11V11V0L7 6ZM2 12V20L10 25L18 20V12L10 17L2 12ZM2 10L10 15L18 10L10 6L2 10ZM15 6L18 8V4C16.9255 4.87543 16.0744 5.12453 15 6ZM2 8L5 6L2 4C2 5.5098 2 6.49015 2 8Z" fill="#727272"/>
<path fill-rule="evenodd" clip-rule="evenodd" d="M31 14V14C31.5565 14 32 13.2758 32 14C32 14.6605 31.5044 15 31 15V15V14ZM32 16C33.2 16 34 15.2572 34 14C34 13.1644 33.9391 13.1114 33 13V13C33.5305 12.7533 33 12.5411 33 12C33 10.8541 32.1652 10 31 10H29V16H32ZM31 11V11C31.4609 11 32 11.4509 32 12C32 12.5093 31.4522 12 31 12V12V11Z" fill="#727272"/>
<path fill-rule="evenodd" clip-rule="evenodd" d="M39 10H37V16H41V15H39V10Z" fill="#727272"/>
<path fill-rule="evenodd" clip-rule="evenodd" d="M46 10C44.1786 10 43 11.0148 43 13C43 15.1244 43.969 17 46 17C48.0314 17 50 15.1244 50 13C50 11.0148 47.8214 10 46 10ZM46 12C46.9823 12 48 12.0945 48 13C48 14.1319 46.9823 15 46 15C45.0182 15 45 14.1319 45 13C45 12.0945 45.0182 12 46 12Z" fill="#727272"/>
<path fill-rule="evenodd" clip-rule="evenodd" d="M59 9.99982C58.4973 9.78819 57.5459 9.99982 57 9.99982C56.0815 9.99982 55.6411 10.3297 55 10.9998C54.3762 11.6522 54 13.0918 54 13.9998C54 14.9873 54.2806 15.3386 55 15.9998C55.6757 16.6257 57.0904 16.9998 58 16.9998C58.5287 16.9998 58.4367 17.1761 59 16.9998V14.9998C58.6447 15.4318 58.5544 14.9998 58 14.9998C56.9426 14.9998 56 15.0489 56 13.9998C56 12.9684 56.9604 11.9998 58 11.9998C58.5805 11.9998 58.6531 11.5238 59 11.9998V9.99982Z" fill="#727272"/>
<path fill-rule="evenodd" clip-rule="evenodd" d="M64 12V12V10H62V16H64V13V13L66 16H68L65 13L68 10H66L64 12Z" fill="#727272"/>
<path fill-rule="evenodd" clip-rule="evenodd" d="M71 16H74C75.897 16 77 14.687 77 13C77 11.313 75.9062 10 74 10H71V16ZM73 11V11C74.1438 11 75 11.9257 75 13C75 14.1697 74.0618 15 73 15V15V11Z" fill="#727272"/>
<path fill-rule="evenodd" clip-rule="evenodd" d="M85 15V16H87L84 10H83L80 16H82V15H85ZM84 14H83L84 12V12V14Z" fill="#727272"/>
<path fill-rule="evenodd" clip-rule="evenodd" d="M93 11V10H89V16H93V15H91V14H93V12H91V11H93Z" fill="#727272"/>
<path fill-rule="evenodd" clip-rule="evenodd" d="M96 16H98V13V13L100 16V16L102 13V13V16H104L103 10H101L100 13L99 10H97L96 16Z" fill="#727272"/>
<path fill-rule="evenodd" clip-rule="evenodd" d="M110 10C108.179 10 107 11.0148 107 13C107 15.1244 107.969 17 110 17C112.032 17 114 15.1244 114 13C114 11.0148 111.822 10 110 10ZM110 12C110.983 12 112 12.0945 112 13C112 14.1319 110.983 15 110 15C109.018 15 109 14.1319 109 13C109 12.0945 109.018 12 110 12Z" fill="#727272"/>
<path fill-rule="evenodd" clip-rule="evenodd" d="M118 16H120V12V12L122 16H124V10H122V14V14L120 10H118V16Z" fill="#727272"/>
</svg>
