<svg width="118" height="23" viewBox="0 0 118 23" fill="none" xmlns="http://www.w3.org/2000/svg">
<path d="M2.00006 15.9999C5.16348 14.5192 9.13455 12.6566 15.0001 12.9999C18.0139 13.1763 20.5766 14.042 23.0001 14.9999C22.8498 15.3312 22.1881 15.687 22.0001 15.9999C19.8515 14.9861 17.7647 14.3431 15.0001 13.9999C10.3953 13.4283 6.09317 14.4272 2.00006 15.9999C1.97973 15.9633 2.01991 16.0366 2.00006 15.9999Z" fill="#727272"/>
<path d="M24 13C24.1365 12.3198 24 11.7184 24 11C24 4.90216 18.3513 0 12 0C5.64875 0 1 4.90216 1 11C1 12.3951 1.50819 13.771 2 15C2.92021 14.4308 3.99066 13.4356 5 13V9C5 8.97518 4.98783 9.0219 5 9V8C5.0593 7.89322 4.94069 7.89322 5 8L6 9C6.05686 9.10235 5.93547 9.09808 6 9L7 7C7.06182 6.90602 6.93818 6.90602 7 7L9 9C9.06357 9.09665 8.94127 9.0995 9 9V8C9.06029 7.89772 9.93971 7.89772 10 8V9C10.0134 9.02272 10 8.97383 10 9V11C10 11.1468 10.1506 11.9745 10 12H9C8.79467 11.4743 7.98573 11 7 11C6.01429 11 6 11.4743 6 12V13C7.65206 12.3876 8.70307 12.2559 11 12V7C11 6.97513 10.9878 7.02193 11 7L12 6C12.0594 5.89338 11.9406 5.89339 12 6H13C13.0569 6.10222 12.9354 6.09794 13 6L15 3C15.0619 2.90618 14.9381 2.90618 15 3L17 6C17.0636 6.09649 16.9413 6.09931 17 6H18C18.0604 5.89792 17.9396 5.89792 18 6L19 7C19.0135 7.02276 19 6.97382 19 7V11C19 11.1779 19.1846 11.0163 19 11H17C16.9759 10.9384 17.0257 11.0697 17 11C16.7279 10.2643 16.5633 9 15 9C13.6614 9 13 10.2874 13 11V12C13.2019 11.9846 12.7917 12.0128 13 12C16.7996 11.7658 21.1453 12.0746 24 13Z" fill="#727272"/>
<path fill-rule="evenodd" clip-rule="evenodd" d="M2 16.0002C2.73149 15.663 3.21221 15.282 4 15.0002V16.0002C4 16.169 4.82366 16.0002 5 16.0002V16.0002C5.17634 16.0002 5 16.169 5 16.0002V15.0002C6.697 14.482 8.70173 14.0447 11 14.0002V16.0002C11 16.169 10.8237 17.0002 11 17.0002H12C12.1763 17.0002 12 16.169 12 16.0002V14.0002C12.2048 14.0061 12.7891 13.9897 13 14.0002C14.5696 14.0785 16.5431 14.5041 18 15.0002V16.0002C18 16.169 17.8237 17.0002 18 17.0002V17.0002C18.1763 17.0002 19 16.169 19 16.0002V15.0002C20.2261 15.4837 20.9948 16.4183 22 17.0002C19.9183 20.0409 16.0815 22.0002 12 22.0002C7.57656 22.0002 3.97414 19.4758 2 16.0002ZM9 15.0002C9.27749 14.8674 10 15.0002 10 15.0002V16.0002C10 16.169 10.1763 16.0002 10 16.0002H9C8.82366 16.0002 9 16.169 9 16.0002V15.0002Z" fill="#727272"/>
<path d="M37 7.99993C37.3738 8.10852 37.7882 7.74277 38 7.99993C38.2118 8.25133 38 8.62849 38 8.99993C38 9.52565 37.4486 10.7142 37 10.9999C36.5576 11.2799 35.8535 10.9999 35 10.9999H32V4.99993H35C35.7974 4.99993 36.5763 4.71993 37 4.99993C37.4299 5.27993 38 6.51994 38 6.99993C38 7.29136 37.1558 6.77137 37 6.99993C36.8505 7.22851 37.2741 7.8685 37 7.99993ZM34 5.99993V6.99993H35C35.3739 6.99993 35.8069 7.11993 36 6.99993C36.1932 6.87994 36 7.23421 36 6.99993C36 6.76564 36.1932 6.11422 36 5.99993C35.8069 5.87993 35.3739 5.99993 35 5.99993H34ZM35 9.99993C35.3988 9.99993 35.8006 10.1199 36 9.99993C36.2056 9.87989 36 9.25141 36 8.99993C36 8.50282 35.8037 7.99993 35 7.99993H34V9.99993H35Z" fill="#727272"/>
<path d="M44 11.0001L43 9.00012H42H41V11.0001H40V5.00012H42C42.5 5.00012 43.6344 4.82297 44 5.00012C44.371 5.17726 44.8011 5.6744 45 6.00012C45.199 6.32583 45 6.55439 45 7.00012C45 7.44583 45.2043 7.67443 45 8.00012C44.8011 8.32011 44.371 8.8287 44 9.00012L45 11.0001H44ZM44 7.00012C44 6.66297 43.2043 6.17726 43 6.00012C42.7957 5.81726 42.3925 6.00012 42 6.00012H41V8.00012H42C42.3925 8.00012 42.7957 8.18299 43 8.00012C43.2043 7.81724 44 7.33154 44 7.00012Z" fill="#727272"/>
<path d="M48 5H49V11H48V5Z" fill="#727272"/>
<path d="M53 4.99993H56C56.6478 4.99993 56.5056 4.7485 57 4.99993C57.4999 5.24565 58.7272 5.5485 59 5.99993C59.2784 6.45136 59 7.3999 59 7.99993C59 8.59994 59.2784 9.5485 59 9.99993C58.7272 10.4514 57.4999 10.7485 57 10.9999C56.5056 11.2456 56.6478 10.9999 56 10.9999H53V4.99993ZM56 9.99993C56.5966 9.99993 56.6478 9.33131 57 8.99993C57.358 8.66278 58 8.57133 58 7.99993C58 7.42848 57.358 7.33136 57 6.99993C56.6478 6.66278 56.5966 5.99993 56 5.99993H54V9.99993H56Z" fill="#727272"/>
<path d="M65.9996 8.00017H66.9996V10.0002C66.6633 10.2377 66.4421 10.8731 65.9996 11.0002C65.5571 11.1272 64.4479 11.0002 63.9996 11.0002C63.3564 11.0002 63.5129 11.2543 62.9996 11.0002C62.4863 10.7405 61.2945 10.4531 60.9996 10.0002C60.7105 9.54156 60.9996 8.57471 60.9996 8.00017C60.9996 7.42556 60.7105 6.45321 60.9996 6.00017C61.2945 5.54161 62.4804 5.25432 62.9996 5.00017C63.5188 4.74051 63.3507 5.00017 63.9996 5.00017C64.5423 5.00017 65.5571 4.82891 65.9996 5.00017C66.4421 5.17144 66.6987 5.6742 66.9996 6.00017L65.9996 7.00017C65.5571 6.56371 64.6249 6.00017 63.9996 6.00017C63.6043 6.00017 63.3064 5.84548 62.9996 6.00017C62.6928 6.15488 63.1707 6.71841 62.9996 7.00017C62.8285 7.28194 61.9996 7.63551 61.9996 8.00017C61.9996 8.35923 62.8285 8.71837 62.9996 9.00017C63.1707 9.2819 62.6987 9.83994 62.9996 10.0002C63.3064 10.1549 63.6102 10.0002 63.9996 10.0002C64.4126 10.0002 65.6692 10.1659 65.9996 10.0002V8.00017Z" fill="#727272"/>
<path d="M75 10V11H70V5H75V6H71V7H74V8H71V10H75Z" fill="#727272"/>
<path d="M79 6H77V5H82V6H80V11H79V6Z" fill="#727272"/>
<path d="M87.9999 11.0002C87.3357 11.0002 86.5362 11.2598 85.9999 11.0002C85.47 10.7405 84.304 10.4532 83.9999 10.0002C83.7013 9.54156 83.9999 8.56921 83.9999 8.00017C83.9999 7.43109 83.7013 6.45321 83.9999 6.00017C84.304 5.54161 85.47 5.25984 85.9999 5.00017C86.5362 4.74051 87.3357 5.00017 87.9999 5.00017C88.6632 5.00017 88.4692 4.74051 88.9999 5.00017C89.5297 5.25984 90.6949 5.54161 90.9999 6.00017C91.3048 6.45321 90.9999 7.43109 90.9999 8.00017C90.9999 8.56921 91.3048 9.54156 90.9999 10.0002C90.6949 10.4532 89.5297 10.7405 88.9999 11.0002C88.4692 11.2598 88.6632 11.0002 87.9999 11.0002ZM87.9999 10.0002C88.3768 10.0002 88.6949 10.1549 88.9999 10.0002C89.304 9.83994 88.8292 9.2819 88.9999 9.00017C89.1762 8.71837 89.9999 8.35923 89.9999 8.00017C89.9999 7.64103 89.1762 7.28195 88.9999 7.00017C88.8292 6.71841 89.304 6.15487 88.9999 6.00017C88.6949 5.83995 88.3768 6.00017 87.9999 6.00017C87.6221 6.00017 86.3048 5.83995 85.9999 6.00017C85.6957 6.15487 86.1762 6.71841 85.9999 7.00017C85.8292 7.28195 84.9999 7.64103 84.9999 8.00017C84.9999 8.35923 85.8292 8.71837 85.9999 9.00017C86.1762 9.2819 85.6957 9.83994 85.9999 10.0002C86.3048 10.1549 87.6221 10.0002 87.9999 10.0002Z" fill="#727272"/>
<path d="M103 5L101 11H99L98 7L97 11H95L93 5H95L96 9L97 5H99L100 9L102 5H103Z" fill="#727272"/>
<path d="M110 10V11H105V5H110V6H106V7H109V8H106V10H110Z" fill="#727272"/>
<path d="M116 11.0001L115 9.00012H114H113V11.0001H112V5.00012H114C114.5 5.00012 115.634 4.82297 116 5.00012C116.371 5.17726 116.801 5.6744 117 6.00012C117.198 6.32583 117 6.55439 117 7.00012C117 7.44583 117.204 7.67443 117 8.00012C116.802 8.32011 116.371 8.8287 116 9.00012L117 11.0001H116ZM116 7.00012C116 6.66297 115.204 6.17726 115 6.00012C114.796 5.81726 114.393 6.00012 114 6.00012H113V8.00012H114C114.393 8.00012 114.796 8.18299 115 8.00012C115.204 7.81724 116 7.33154 116 7.00012Z" fill="#727272"/>
<path d="M62.0002 20.0002C61.5667 20.0002 61.3519 20.1706 61.0002 20.0002C60.6525 19.8262 60.2006 19.3039 60.0002 19.0002C59.8039 18.6965 60.0002 18.3817 60.0002 18.0002C60.0002 17.6187 59.7998 17.3039 60.0002 17.0002C60.2006 16.6966 60.6525 16.1706 61.0002 16.0002C61.3519 15.8262 61.5666 16.0002 62.0002 16.0002C62.3519 16.0002 62.7098 15.8891 63.0002 16.0002C63.2906 16.1114 63.7998 16.789 64.0002 17.0002H63.0002C62.6894 16.6966 62.4542 17.0002 62.0002 17.0002C61.7058 17.0002 62.2333 16.8817 62.0002 17.0002C61.7671 17.115 61.1311 16.7928 61.0002 17.0002C60.8693 17.2076 61.0002 17.7373 61.0002 18.0002C61.0002 18.2632 60.8693 18.7928 61.0002 19.0002C61.1311 19.2076 61.7671 18.8817 62.0002 19.0002C62.2333 19.115 61.7058 19.0002 62.0002 19.0002C62.4542 19.0002 62.6894 19.3076 63.0002 19.0002H64.0002C63.7998 19.2113 63.2946 19.8891 63.0002 20.0002C62.7097 20.1113 62.3519 20.0002 62.0002 20.0002Z" fill="#727272"/>
<path d="M67 20H65V21H64L66 17V17L68 21H67V20ZM67 19L66 18L65 19H67Z" fill="#727272"/>
<path d="M70 17C70.3106 17 70.7714 16.8857 71 17C71.2321 17.1143 71.8771 17.7867 72 18C72.1229 18.2133 72 17.7067 72 18C72 18.2895 72.1229 18.7829 72 19C71.8771 19.2133 71.2321 19.8857 71 20C70.7714 20.1143 70.3106 20 70 20V20V21H69V17H70ZM70 19C70.2901 19 70.8498 19.1372 71 19C71.1502 18.8629 71 18.2553 71 18C71 17.7448 71.1502 18.1372 71 18C70.8498 17.8628 70.2901 18 70 18V18V19V19Z" fill="#727272"/>
<path d="M74 17H75V21H74V17Z" fill="#727272"/>
<path d="M76 18H75V17H78V18H77V21H76V18Z" fill="#727272"/>
<path d="M82 20H80V21H79L81 17V17L83 21H82V20ZM82 19L81 18L80 19H82Z" fill="#727272"/>
<path d="M84 17H85V20H87V21H84V17Z" fill="#727272"/>
</svg>
