<svg width="126" height="23" viewBox="0 0 126 23" fill="none" xmlns="http://www.w3.org/2000/svg">
<g clip-path="url(#clip0_218_852)">
<path fill-rule="evenodd" clip-rule="evenodd" d="M9.99995 -2.61739e-05C9.88318 -0.0655885 9.11873 -0.0619726 8.99995 -2.61739e-05L0.99995 3.99997C0.876337 4.06445 1.00336 4.86349 0.99995 4.99997V4.99997V14C0.99995 14.1372 0.877015 13.9329 0.99995 14L15 22C15.1164 22.0651 15.8813 22.0619 16 22L24 18C24.1266 17.9339 24 17.1398 24 17V15C24 14.9935 24.0003 15.0064 24 15C23.9991 14.9852 24.0025 15.0145 24 15C23.9809 14.8904 24.1007 15.0572 24 15L14 8.99997H16L21 12C21.1175 12.064 21.8818 12.0639 22 12L24 11C24.1236 10.9331 24 10.1377 24 9.99997V7.99997C24 7.88193 24.0945 8.07129 24 7.99997C23.9884 7.99128 24.0126 8.00745 24 7.99997V7.99997L9.99995 -2.61739e-05ZM23 7.99997L22 8.99997L16 5.99997C15.8834 5.93658 16.1174 5.93817 16 5.99997V5.99997L11 7.99997L9.99995 6.99997L14 4.99997V4.99997C14.0772 4.95847 13.9664 5.07643 14 4.99997C14.0199 4.95476 13.9994 5.05076 14 4.99997V4.99997V4.99997C14.0005 4.93781 14.028 5.05346 14 4.99997C13.9664 4.93614 14.0659 4.03718 14 3.99997L9.99995 1.99997C9.88264 1.93379 9.11918 1.93715 8.99995 1.99997L2.99995 4.99997H1.99995L9.99995 0.999974L23 7.99997ZM22 11V8.99997H23V9.99997L22 11ZM1.99995 4.99997V14L15 21V20L2.99995 13C2.88112 12.9318 2.99995 13.1343 2.99995 13V5.99997L1.99995 4.99997ZM9.99995 4.99997V2.99997L13 4.99997H11H9.99995ZM8.99995 2.99997V4.99997L4.99995 6.99997C4.87526 7.06658 4.99995 6.86151 4.99995 6.99997V11L3.99995 12V5.99997L8.99995 2.99997ZM11 5.99997L9.99995 4.99997L5.99995 6.99997V11L16 17V16L8.99995 12V12V6.99997V6.99997C9.00229 6.86482 8.87872 7.06587 8.99995 6.99997L11 5.99997ZM9.99995 12V7.99997L11 8.99997V11C11 11.1364 10.8778 10.9326 11 11L19 15L17 16L9.99995 12ZM15 7.99997L12 9.99997V8.99997L15 6.99997V7.99997ZM20 16L16 18C15.8815 18.0597 15.1152 17.0653 15 17L4.99995 12L3.99995 13L16 19L23 15L13 9.99997L12 11L20 15C20.1244 15.0686 20.0026 14.8609 20 15C19.9973 15.1391 20.1269 15.9359 20 16V16ZM21 11L16 7.99997V6.99997L21 8.99997V11ZM16 21L23 17V16L16 20V21Z" fill="#727272"/>
<path d="M114 5.00017C113.4 5.00017 113.313 5.68781 113 6.00017C112.701 6.31254 112 6.38795 112 7.00017V8.00017H115V9.00017H112V18.0002H111V9.00017H109V8.00017H111V7.00017C111 6.10057 111.465 5.52494 112 5.00017C112.547 4.4754 113.009 4.00017 114 4.00017C114.391 4.00017 114.634 3.88772 115 4.00017C115.365 4.10012 115.752 4.80026 116 5.00017V6.00017C115.596 5.67532 114.613 5.00017 114 5.00017Z" fill="#727272"/>
<path d="M50 9C51.2273 9 52.281 9.27044 53 10C53.7313 10.7171 54 11.6164 54 13V19H53V13C53 11.9686 52.5082 11.5409 52 11C51.4918 10.4591 50.9422 10 50 10C48.9463 10 47.6199 10.3584 47 11C46.3925 11.6289 46 12.8805 46 14V19H45V5H46V11C46.3595 10.4214 47.3677 9.31444 48 9C48.6322 8.68552 49.1818 9 50 9Z" fill="#727272"/>
<path d="M37 18C35.6645 18 34.0787 17.56 33 17C31.9342 16.4401 31.6163 15.986 31 15C30.3964 14.0019 30 13.2294 30 12C30 10.7706 30.3964 8.98599 31 8.00003C31.6163 7.00191 31.9214 6.55995 33 6.00003C34.0786 5.44011 35.6645 5.00003 37 5.00003C38.0016 5.00003 39.1524 4.68355 40 5.00003C40.8475 5.31651 41.4094 6.39142 42 7.00003L41 8.00003C39.9471 6.98973 38.6051 6.00003 37 6.00003C35.9341 6.00003 34.8732 6.53748 34 7.00003C33.1268 7.46258 32.5009 8.19667 32 9.00003C31.5121 9.80345 31 11.0018 31 12C31 12.9981 31.5121 13.1966 32 14C32.5009 14.8034 33.1268 15.5374 34 16C34.8732 16.4625 35.9341 17 37 17C38.618 17 39.9599 16.0225 41 15L42 16C41.4094 16.6086 40.8603 17.6714 40 18C39.1525 18.3165 38.0016 18 37 18Z" fill="#727272"/>
<path fill-rule="evenodd" clip-rule="evenodd" d="M65 10.0002C64.2517 9.35226 63.4014 9.00023 62 9.00023C61.1564 9.00023 59.7619 8.76351 59 9.00023C58.2381 9.22455 57.5442 9.57652 57 10.0002L58 11.0002C58.449 10.6389 59.3741 10.1996 60 10.0002C60.6259 9.78838 61.3197 10.0002 62 10.0002C62.9932 10.0002 63.483 10.5517 64 11.0002C64.5171 11.4364 65 12.1528 65 13.0002V13.0002H61C59.5578 13.0002 58.6666 13.4893 58 14.0002C57.3469 14.5111 57 15.1654 57 16.0002C57 16.86 57.2926 17.4768 58 18.0002C58.7075 18.5236 59.8027 19.0002 61 19.0002C61.8707 19.0002 62.3742 19.2868 63 19.0002C63.6395 18.7136 64.6735 17.5111 65 17.0002V19.0002H66V13.0002C66 11.7417 65.7483 10.6358 65 10.0002ZM63 17.0002C62.415 17.3367 61.8162 18.0002 61 18.0002C60.1428 18.0002 59.4761 17.3242 59 17.0002C58.5238 16.6638 58 16.5735 58 16.0002C58 14.8289 59.1633 14.0002 61 14.0002H65V16.0002C64.7143 16.6482 63.585 16.6513 63 17.0002Z" fill="#727272"/>
<path d="M69 9H70V19H69V9Z" fill="#727272"/>
<path d="M69.9995 7.00012C69.7175 7.00012 69.1918 7.19814 68.9995 7.00012C68.8072 6.80209 68.9995 6.27735 68.9995 6.00012C68.9995 5.73609 68.8072 5.19814 68.9995 5.00012C69.1918 4.8021 69.7175 5.00012 69.9995 5.00012C70.2816 5.00012 70.8072 4.8021 70.9995 5.00012C71.1918 5.18494 70.9995 5.73609 70.9995 6.00012C70.9995 6.29055 71.1918 6.80209 70.9995 7.00012C70.8072 7.19814 70.2816 7.00012 69.9995 7.00012Z" fill="#727272"/>
<path d="M82 10C81.281 9.27044 80.2273 9 79 9C78.157 9 77.6446 9.66035 77 10C76.3678 10.327 75.3595 10.3962 75 11V9H74V19H75V14C75 12.8805 75.3925 11.6289 76 11C76.6198 10.3584 77.9463 10 79 10C79.9422 10 80.4918 10.4591 81 11C81.5082 11.5409 82 11.9686 82 13V19H83V13C83 11.6164 82.7314 10.7171 82 10Z" fill="#727272"/>
<path d="M91 18C90.0019 18 88.9213 18.3043 88 18C87.0915 17.6957 86.4991 16.4992 86 16L87 15C87.4863 15.4626 87.1938 15.7079 88 16C88.8061 16.28 90.1427 17 91 17C92.203 17 93.3986 16.4139 94 16C94.6014 15.5741 95 15.6696 95 15C95 14.4888 94.3327 13.3044 94 13C93.6799 12.6957 93.4733 13.1583 93 13C92.5267 12.8296 91.8449 12.1948 91 12C89.9891 11.7566 89.6014 11.2192 89 11C88.3986 10.7688 87.4351 10.4626 87 10C86.5777 9.53752 86 9.7912 86 9.00003C86 8.3549 86.6417 7.52344 87 7.00003C87.3583 6.46445 88.2578 5.31651 89 5.00003C89.7422 4.68355 89.8995 5.00003 91 5.00003C91.7681 5.00003 93.2706 4.79311 94 5.00003C94.742 5.19479 94.4627 5.64704 95 6.00003V7.00003C94.4365 6.64704 93.6401 6.17045 93 6.00003C92.3608 5.81745 91.6139 6.00003 91 6.00003C89.8227 6.00003 89.6014 6.56183 89 7.00003C88.4114 7.42606 88 7.31838 88 8.00003C88 8.51126 87.6801 9.68357 88 10C88.3328 10.3043 88.5137 9.82962 89 10C89.499 10.1583 90.1686 10.8053 91 11C91.9854 11.2313 93.3986 11.7687 94 12C94.6149 12.2192 94.5772 12.5375 95 13C95.4219 13.4505 96 14.221 96 15C96 15.6451 95.3715 15.4644 95 16C94.6421 16.5234 94.7546 17.6835 94 18C93.2445 18.3043 92.1002 18 91 18Z" fill="#727272"/>
<path fill-rule="evenodd" clip-rule="evenodd" d="M106 10.0002C105.251 9.35226 104.401 9.00023 103 9.00023C102.156 9.00023 100.762 8.76351 100 9.00023C99.2379 9.22455 98.5445 9.57652 98 10.0002L99 11.0002C99.4496 10.6389 100.374 10.1996 101 10.0002C101.626 9.78838 102.319 10.0002 103 10.0002C103.993 10.0002 104.483 10.5517 105 11.0002C105.517 11.4364 106 12.1528 106 13.0002V13.0002H102C100.557 13.0002 99.6662 13.4893 99 14.0002C98.3472 14.5111 98 15.1654 98 16.0002C98 16.86 98.2926 17.4768 99 18.0002C99.7074 18.5236 100.803 19.0002 102 19.0002C102.87 19.0002 103.374 19.2868 104 19.0002C104.639 18.7136 105.673 17.5111 106 17.0002V19.0002H107V13.0002C107 11.7417 106.748 10.6358 106 10.0002ZM104 17.0002C103.414 17.3367 102.816 18.0002 102 18.0002C101.143 18.0002 100.476 17.3242 100 17.0002C99.5246 16.6638 99 16.5735 99 16.0002C99 14.8289 100.163 14.0002 102 14.0002H106V16.0002C105.714 16.6482 104.585 16.6513 104 17.0002Z" fill="#727272"/>
<path fill-rule="evenodd" clip-rule="evenodd" d="M117 14H126V14C126 13.028 125.429 11.7477 125 11C124.571 10.2399 124.755 10.4237 124 10C123.244 9.57631 121.95 9 121 9C120.049 9 118.769 9.57631 118 10C117.245 10.4237 117.442 10.2399 117 11C116.57 11.7601 116 13.0405 116 14C116 14.9595 116.544 16.2399 117 17C117.456 17.7601 118.193 17.5638 119 18C119.821 18.4236 119.945 19 121 19C121.82 19 123.323 19.2742 124 19C124.691 18.7259 124.544 17.5234 125 17V17C124.609 17.4236 123.534 17.7758 123 18C122.466 18.2119 121.638 18 121 18C119.867 18 119.742 17.623 119 17C118.258 16.3644 117.078 15.0218 117 14ZM119 11C119.678 10.3894 120.01 10 121 10C122.002 10 123.336 10.3894 124 11C124.677 11.5982 124.908 12.028 125 13H117C117.091 12.028 118.337 11.5982 119 11Z" fill="#727272"/>
</g>
<defs>
<clipPath id="clip0_218_852">
<rect width="125" height="23" fill="white" transform="translate(1)"/>
</clipPath>
</defs>
</svg>
