<svg width="105" height="30" viewBox="0 0 105 30" fill="none" xmlns="http://www.w3.org/2000/svg">
<g clip-path="url(#clip0_218_745)">
<path d="M61 11C61.2115 11.1907 61.6642 11 62 11C62.3366 11 62.7885 11.1907 63 11C63.1037 10.9048 62.9454 10.1281 63 9.99997C63.0546 9.87179 63.004 10.1387 63 9.99997C63 9.72644 63.2108 9.1833 63 8.99997C62.9263 8.93592 62.0892 9.04134 62 8.99997C61.8195 8.91994 62.1982 8.99585 62 8.99997C61.6634 8.99997 61.2115 8.80998 61 8.99997C60.8981 9.08914 61.0546 9.87749 61 9.99997C60.9454 10.1224 60.9973 9.86646 61 9.99997V9.99997V9.99997C61.0241 10.2302 60.824 10.8447 61 11V11ZM50 12C49.7634 11.9497 49.2421 11.9984 49 12C48.6156 11.9963 48.3597 11.8678 48 12C47.6558 12.1219 47.2426 11.7641 47 12V9.99997H45V18H47V15C47 14.4514 46.7256 14.2742 47 14C47.098 13.8985 47.8745 13.0665 48 13C48.1453 12.9256 47.8377 13.0235 48 13C48.0614 12.9904 47.934 13.0037 48 13V13V13C48.3222 13 48.7961 13.8521 49 14C49.0584 14.0428 48.9515 13.946 49 14C49.0683 14.0744 48.9562 13.9096 49 14C49.0356 14.0746 49.9757 13.9105 50 14C50.0462 14.17 50 14.7767 50 15V18H51V14C51.001 13.783 51.0328 14.2146 51 14C50.9827 13.8913 51.0282 14.1065 51 14V13C50.8802 12.6059 51.2706 12.2557 51 12C50.7333 11.7431 50.3583 12.1074 50 12C49.9285 11.9778 50.073 12.0167 50 12Z" fill="#727272"/>
<path fill-rule="evenodd" clip-rule="evenodd" d="M57.9999 17.9999H59.9999V11.9999H57.9999V12.9999C57.5389 12.5307 56.8207 11.9999 55.9999 11.9999C55.3945 11.9999 55.4941 11.7541 54.9999 11.9999C54.5158 12.2443 53.2643 12.5583 52.9999 12.9999C52.8788 13.1978 53.066 13.7815 52.9999 13.9999C52.9066 14.3111 52.9973 14.6773 52.9999 14.9999C52.9999 15.5992 52.7211 16.5454 52.9999 16.9999C53.3342 17.5633 54.338 17.7782 54.9999 17.9999V17.9999V17.9999C55.156 18.0436 55.8383 17.9779 55.9999 17.9999C56.1829 18.0251 55.8061 17.9999 55.9999 17.9999C56.5234 17.9999 57.6238 18.1805 57.9999 17.9999C58.2521 17.8778 57.8176 17.1996 57.9999 16.9999V17.9999ZM56.9999 16.9999C56.8161 17.0629 57.2176 16.9999 56.9999 16.9999C56.5211 16.9999 55.3103 16.2883 54.9999 15.9999C54.8716 15.8777 55.0738 16.1547 54.9999 15.9999C54.8891 15.7587 54.9945 15.2611 54.9999 14.9999C55 14.925 54.9923 15.0743 54.9999 14.9999V14.9999V14.9999C55.0345 14.8131 54.8917 14.1619 54.9999 13.9999C55.0593 13.9102 54.9188 14.0762 54.9999 13.9999C55.3103 13.7037 56.5219 12.9999 56.9999 12.9999C57.4694 12.9999 57.6894 13.7037 57.9999 13.9999C58.3103 14.289 57.9999 14.509 57.9999 14.9999C57.9999 15.2484 58.0794 15.801 57.9999 15.9999C57.9227 16.1931 58.1528 15.8535 57.9999 15.9999C57.8412 16.15 57.2144 16.9264 56.9999 16.9999Z" fill="#727272"/>
<path d="M69 12C69.7634 12 70.5347 11.5434 71 12C71.4734 12.4573 71 13.1008 71 14V18H70V15C70 14.5124 69.213 14.2364 69 14C68.7855 13.7562 68.4039 13 68 13C67.7263 13 68.2056 12.8958 68 13V13L67 14C66.8988 14.0607 67.0804 13.9137 67 14C66.8772 14.1249 67.0666 13.8175 67 14C66.9395 14.1738 67.0122 14.8164 67 15C66.9941 15.0779 67 14.9218 67 15V18H65V12H67V13C67.2435 12.7362 67.6641 12.1273 68 12C68.2297 11.9055 67.7535 12.031 68 12C68.1453 11.9818 68.8536 12.0005 69 12V12ZM73 10H75V16H77V18H73V10Z" fill="#727272"/>
<path fill-rule="evenodd" clip-rule="evenodd" d="M85.0004 18.9999H83.0004V17.9999C82.5357 18.5797 81.884 18.9999 81.0004 18.9999C80.4206 19.008 80.5105 19.2844 80.0004 18.9999C79.5118 18.7203 78.2662 17.5069 78.0004 16.9999C77.8112 16.6453 78.0578 16.4004 78.0004 15.9999C77.9683 15.7777 78.0009 16.2246 78.0004 15.9999C78.0004 15.747 77.9631 15.2304 78.0004 14.9999C78.0225 14.8673 77.9649 14.1294 78.0004 13.9999C78.0689 13.7534 77.8829 14.2176 78.0004 13.9999C78.2815 13.478 79.5116 13.281 80.0004 12.9999C80.5104 12.715 80.4205 11.9925 81.0004 11.9999C81.8279 11.9999 82.5357 12.4619 83.0004 12.9999V11.9999H85.0004V18.9999ZM82.0004 16.9999C82.4745 16.9999 82.6875 17.3308 83.0004 16.9999C83.1677 16.8184 82.9264 16.2385 83.0004 15.9999C83.0697 15.7864 83.0004 16.2617 83.0004 15.9999C83.0004 15.4354 83.3134 14.3316 83.0004 13.9999C82.6875 13.6603 82.4745 13.9999 82.0004 13.9999C81.5186 13.9999 80.3134 13.6603 80.0004 13.9999C79.6875 14.3316 80.0004 15.4371 80.0004 15.9999C80.0004 16.562 79.6875 16.6603 80.0004 16.9999C80.3134 17.3308 81.5186 16.9999 82.0004 16.9999ZM100 14.9999C100 15.024 100.025 15.6763 100 15.9999H95.0004C95.0362 16.1694 94.9234 15.8594 95.0004 15.9999C95.0689 16.1276 94.8977 16.8964 95.0004 16.9999H96.0004V16.9999C96.0347 17.0289 95.9631 16.9726 96.0004 16.9999C96.3297 17.24 96.5108 16.9999 97.0004 16.9999C97.7213 16.9999 97.9226 17.3203 98.0004 16.9999H100C99.3022 18.6999 98.1728 18.9999 97.0004 18.9999C96.2695 18.9999 95.5617 18.2906 95.0004 17.9999C94.6853 17.836 94.25 18.2573 94.0004 17.9999C93.8282 17.8213 94.1261 17.216 94.0004 16.9999C93.6953 16.4788 93.0004 15.6616 93.0004 14.9999C93.0004 14.6924 92.9343 15.2786 93.0004 14.9999C93.0425 14.8209 92.9319 14.1662 93.0004 13.9999C93.284 13.3167 94.3645 12.3494 95.0004 11.9999C95.5306 11.7012 96.3504 11.9999 97.0004 11.9999C97.6349 11.9999 97.4866 11.7189 98.0004 11.9999C98.5142 12.281 99.7116 13.4708 100 13.9999C100.298 14.5219 100 14.3046 100 14.9999ZM97.0004 12.9999C96.5754 12.9999 96.2892 13.751 96.0004 13.9999C95.9226 14.066 95.0628 13.9182 95.0004 13.9999C94.8338 14.2168 95.0471 14.6868 95.0004 14.9999H98.0004C97.9358 14.5784 98.29 14.2489 98.0004 13.9999C97.8506 13.8655 97.1892 14.0637 97.0004 13.9999C96.8237 13.9422 97.1858 12.9981 97.0004 12.9999Z" fill="#727272"/>
<path d="M63 12H62V18H63V12ZM93 12L90 18C89.9474 18.1298 90.0839 18.8104 90 19V19V19C89.7056 19.6373 89 21 89 21H87C87 21 88.8741 18.2729 89 18V18L86 12H88L89 16L91 12H93ZM103 12C103.224 11.7003 103.646 12.14 104 12C104.147 11.941 103.837 12.0361 104 12C104.274 11.9407 104.72 11.9981 105 12V13C104.895 12.992 105.105 13.0053 105 13V13C104.474 13 103.299 13.7109 103 14C102.84 14.1512 103.074 13.7662 103 14C102.936 14.2021 103 14.7352 103 15V18H101V12H103V12ZM40 18C40.8413 17.9999 42.3 17.4513 43 17C43.7 16.5487 43.6763 16.7509 44 16H42C41.6604 16.4102 41.5223 15.8552 41 16C40.4777 16.1448 39.5127 16.174 39 16C38.4873 15.826 38.3142 15.4286 38 15C37.6858 14.5714 38 14.5254 38 14C38 13.4746 37.6858 12.4286 38 12C38.3142 11.5714 38.4873 12.174 39 12C39.5127 11.826 40.4777 11.8552 41 12C41.5223 12.1448 41.6604 11.5898 42 12H44C43.62 11.1219 42.8693 10.4467 42 10C41.1307 9.55326 39.9653 9.8132 39 10C38.0347 10.1868 37.6245 10.2642 37 11C36.3755 11.7358 36.0012 13.0481 36 14C36 16.2748 37.646 18 40 18ZM0 22V9L5 12V20L12 23V29L0 22ZM27 22V9L22 12V20L15 23V29L27 22ZM13 0L2 7L6 10L13 6L20 10L25 7L13 0Z" fill="#727272"/>
<g opacity="0.3">
<path d="M14 15L8 18L14 22L20 18L14 15V15Z" fill="#727272"/>
</g>
<g opacity="0.6">
<path d="M14 12L8 15L14 19L20 15L14 12Z" fill="#727272"/>
</g>
<g opacity="0.8">
<path d="M14 9L8 12L14 16L20 12L14 9Z" fill="#727272"/>
</g>
</g>
<defs>
<clipPath id="clip0_218_745">
<rect width="105" height="30" fill="white"/>
</clipPath>
</defs>
</svg>
