<svg width="84" height="18" viewBox="0 0 84 18" fill="none" xmlns="http://www.w3.org/2000/svg">
<g clip-path="url(#clip0_218_624)">
<path fill-rule="evenodd" clip-rule="evenodd" d="M30 6C31.009 6 31.7735 6.17143 32 7H34C33.6379 5.03153 32.0641 4 30 4C28.8554 4 27.7835 4.29432 27 5C26.5331 5.42092 26.1202 6.44334 26 7C25.8798 7.5429 26 7.9408 26 9C26 10.0582 25.8798 10.4567 26 11C26.1202 11.5424 26.5331 12.5791 27 13C27.7835 13.7061 28.8554 14 30 14C32.0488 14 33.6379 12.968 34 11H32C31.7735 11.8276 31.009 12 30 12C29.4277 12 29.3166 12.3398 29 12C28.5632 11.5791 28 10.8736 28 9C28 7.12691 28.5637 6.42093 29 6C29.3165 5.66069 29.4277 6 30 6ZM42 4V8H40V10H42V10V14H44V4H42V4ZM36 14H38V4H36V14ZM52 12C51.6993 12.3118 51.5723 12 51 12C50.4277 12 49.3007 12.3122 49 12C48.5924 11.5923 49 10.8593 49 9C49 7.13975 48.5929 6.40672 49 6C49.3018 5.68775 50.4282 6 51 6C51.5728 6 51.6988 5.68775 52 6C52.4066 6.40672 52 7.13975 52 9C52 10.8593 52.4066 11.5923 52 12ZM51 4C49.7802 4 48.7533 4.32137 48 5C46.9152 5.97758 47 7.3305 47 9C47 10.6691 46.9152 12.0224 48 13C48.7533 13.6787 49.7802 14 51 14C52.2208 14 52.2461 13.6787 53 13C54.0847 12.0224 54 10.6695 54 9C54 7.3305 54.0847 5.97758 53 5C52.2461 4.32137 52.2208 4 51 4ZM61 8H59V6H61C61.9186 6 62 6.25351 62 7C62 7.74649 61.9186 8 61 8ZM64 7C64 5.38461 63.1843 4 61 4H57V14H59V10H60L62 14H65L62 10C63.0397 9.6607 64 8.35679 64 7ZM72 10C72 11.1129 72.1298 12 71 12C69.8702 12 69 11.1129 69 10V4H67V11C67 13.0491 68.8009 14 71 14C73.1996 14 75 13.0496 75 11V4H72V10ZM83 9C82.548 8.62034 81.9798 8.12151 81 8H80C79.5632 7.94589 79.2107 8.17654 79 8C78.775 7.81017 79 7.24485 79 7C79 6.33513 78.8846 6 80 6C80.7074 6 81.3224 5.41629 82 6L84 5C83.081 4.19895 81.476 4 80 4C77.6802 4 77 5.27638 77 7C77 7.81435 76.4876 8.53872 77 9C77.4818 9.42095 78.081 9.87805 79 10H81C81.4966 10.0683 81.7888 9.82396 82 10C82.2255 10.1903 82 10.6603 82 11C82 11.7731 81.2352 12 80 12C79.0058 12 77.6786 11.6107 77 11L76 13C77.0546 13.9639 78.3736 14 80 14C82.2457 14 84 12.8731 84 11C84 10.1448 83.5723 9.48883 83 9ZM0 16L2 18L4 16L2 14L0 16ZM20 2L17 0L15 2L17 4L20 2ZM12 11L10 13L8 11L5 9L8 7L10 5L12 7L14 9L12 11ZM18 9L16 7L14 5L12 3L10 1L8 3L5 5L3 7L1 9L3 11L5 13L8 15L10 17L12 15L14 13L16 11L18 9ZM15 16L17 18L20 16L17 14L15 16ZM4 2L2 0L0 2L2 4L4 2Z" fill="#727272"/>
</g>
<defs>
<clipPath id="clip0_218_624">
<rect width="84" height="18" fill="white"/>
</clipPath>
</defs>
</svg>
