<svg width="86" height="29" viewBox="0 0 86 29" fill="none" xmlns="http://www.w3.org/2000/svg">
<g clip-path="url(#clip0_218_843)">
<path d="M44 19H41C40.958 19.0004 41.0318 18.9722 41 19C40.9681 19.0277 41.0067 18.958 41 19C40.7084 20.674 39.6451 22 38 22C35.7555 22 34 19.8583 34 17V17C34 14.1417 35.8513 13 38 13C39.6594 13 39.7376 13.4374 40 15C40.0143 15.0881 40.9123 15 41 15H43C43.0255 14.9998 42.9768 15.0106 43 15C43.0232 14.9893 43.9831 15.0193 44 15C44.0169 14.9807 43.9924 15.0246 44 15C44.0077 14.9754 44.0029 15.0256 44 15C43.5996 11.7401 41.205 10 38 10C34.1378 10 31 12.81 31 17V17C31 21.2491 33.5491 24 38 24C41.2809 24 43.5834 22.2825 44 19C44.0029 18.9744 44.0075 19.0246 44 19C43.9924 18.9753 44.0169 19.0194 44 19C43.9832 18.9806 44.0232 19.0108 44 19C43.9769 18.9892 44.0255 19.0003 44 19ZM49 14C46.0133 14 44 15.8326 44 19V19C44 22.1472 46.0326 24 49 24C51.9868 24 55 22.1868 55 19V19C55 15.8515 51.9862 14 49 14ZM52 19C52 20.9118 50.54 22 49 22C47.4395 22 47 20.9307 47 19V19C47 17.0692 47.4781 16 49 16C50.5407 16 52 17.0693 52 19V19ZM65 11H63C62.9766 11 63.0216 10.9909 63 11C62.9783 11.0091 63.0165 10.9832 63 11C62.9834 11.0167 63.009 10.9781 63 11C62.991 11.0219 63 10.9763 63 11V15C62.4262 14.5299 60.9494 14.0743 60 14C56.9759 13.764 55 15.8333 55 19V19C55 22.1478 57.0288 24.2064 60 24C60.8741 23.939 62.3646 23.5979 63 23V24C63 24.1 62.9024 24 63 24H65C65.0988 24 65 24.0988 65 24V11C65.0002 10.9763 65.0089 11.022 65 11C64.9911 10.9781 65.0166 11.0168 65 11C64.9835 10.9832 65.0216 11.009 65 11C64.9783 10.9909 65.0234 10.9999 65 11ZM63 19C63 20.9125 61.5406 22 60 22C58.4394 22 58 20.9313 58 19V19C58 17.0692 58.478 16 60 16C61.5406 16 63 17.0686 63 19V19ZM71 14C68.1089 14 66 15.8131 66 19V19C66 22.2252 67.994 24 71 24C73.6305 24 75.5984 23.0471 76 21C76.0049 20.9738 76.0067 21.0258 76 21C75.9934 20.9742 76.0169 21.0205 76 21C75.9831 20.9796 76.0239 21.0112 76 21C75.9761 20.9888 76.0263 20.9998 76 21H74C73.9603 21.0004 73.0311 20.9749 73 21C72.9689 21.025 73.0093 20.9609 73 21C72.7893 21.7722 72.2049 22 71 22C69.4979 22 69.0764 21.6797 69 20H76C76.0989 20 76 20.0988 76 20V19C76.0006 15.3871 73.5689 14 71 14ZM69 18C69.2089 16.5702 69.7628 16 71 16C72.3125 16 72.9043 16.4745 73 18H69ZM82 10C81.6606 9.90937 81.5235 10 81 10C78.7928 10 77 10.6439 77 13V14H76C75.9528 14.0002 76.0333 13.9661 76 14C75.9667 14.0338 76 13.9522 76 14V16C76 16.1006 75.9024 16 76 16H77V24C77 24.1007 76.9024 24 77 24H80C80.0982 24 80 24.0988 80 24V16H82C82.0988 16 82 16.0988 82 16V14C82 13.9522 82.0334 14.0338 82 14C81.9667 13.9661 82.0472 14.0002 82 14H80V13C80 12.2285 80.1439 12 81 12C81.2847 12 81.8035 11.9471 82 12C82.0264 12.0073 81.9731 12.0054 82 12C82.0268 11.9947 81.9783 12.0168 82 12C82.0217 11.9832 81.9879 12.0248 82 12C82.0121 11.9752 82 12.0277 82 12V10C82.0009 9.96026 82.0234 10.0319 82 10C81.9765 9.96808 82.0379 10.0106 82 10ZM84 13C84.8947 13 86 11.8685 86 11C86 10.131 84.8947 10 84 10C83.1246 10 83 10.131 83 11C83 11.8685 83.1246 13 84 13ZM86 14H83C82.9528 14.0002 83.0333 13.9661 83 14C82.9666 14.0338 83 13.9522 83 14V24C83 24.1007 82.9024 24 83 24H86C86.0989 24 86 24.0988 86 24V14C86.0001 13.9762 86.0089 14.0219 86 14C85.9911 13.978 86.0166 14.0168 86 14C85.9835 13.9832 86.0217 14.0091 86 14C85.9783 13.991 86.0235 13.9999 86 14ZM31 6V6C31 4.91318 32.0083 5 33 5C33.8157 5 33.9204 5.15106 34 6V6C33.9248 5.51984 33.513 5 33 5C32.3721 5 32 5.19071 32 6V6C32 6.81433 32.3422 8 33 8C33.493 8 33.9304 7.51037 34 7V7C33.8955 7.86971 33.8456 8 33 8C31.8834 7.99937 31 7.11262 31 6ZM35 6V6C35 4.94275 35.9449 5 37 5C38.06 5 39 4.93834 39 6V6C39 7.05725 38.0806 8 37 8C35.9089 8 35 7.04151 35 6ZM38 6V6C38 5.25741 37.6975 5 37 5C36.303 5 36 5.22091 36 6V6C36 6.78853 36.3522 8 37 8C37.6727 8 38 6.78349 38 6ZM40 5V5L42 7V5V5V8V8L40 5V8V8V5ZM43 7H44C44.0447 7.36437 44.397 8 45 8C45.3936 8 45 7.33417 45 7C45 6.66647 45.5776 7.09628 45 7C44.1482 6.88358 43 6.6784 43 6C43 5.40908 44.2576 5 45 5C45.7666 5 45.9304 5.30776 46 6H45C44.9347 5.62115 45.4078 5 45 5C44.5965 5 44 5.72122 44 6C44 6.29326 44.3813 5.90875 45 6C45.8362 6.11643 46 6.27755 46 7C46 7.62743 45.7871 8 45 8C44.027 8 43.0497 7.68281 43 7ZM47 5H49V5H48V6H49V7H48V8H49V8H47V5ZM50 5H51L52 7V5H53V8H52L51 5V8H50V5ZM54 7V7C54.0447 7.36375 54.3969 8 55 8C55.3929 8 56 7.3348 56 7C56 6.66647 55.5776 7.09565 55 7C54.1482 6.88295 54 6.6784 54 6C54 5.40845 54.2577 5 55 5C55.7666 5 55.931 5.30713 56 6V6C55.9353 5.62115 55.4085 5 55 5C54.5959 5 54 5.72185 54 6C54 6.29326 54.382 5.90938 55 6C55.8368 6.11706 56 6.27692 56 7C56 7.62743 55.7871 8 55 8C54.0282 8 54.0497 7.68281 54 7ZM58 7L57 5H58V6L59 5H60L59 7V8H58V7ZM60 7H61C61.0448 7.36437 61.3975 8 62 8C62.3935 8 62 7.33417 62 7C62 6.66647 62.5776 7.09628 62 7C61.1483 6.88358 60 6.6784 60 6C60 5.40908 61.2576 5 62 5C62.7659 5 62.931 5.30776 63 6H62C61.9347 5.62115 62.4084 5 62 5C61.5958 5 61 5.72122 61 6C61 6.29326 61.382 5.90875 62 6C62.8362 6.11643 63 6.27755 63 7C63 7.62743 62.7871 8 62 8C61.027 8 60.0497 7.68281 60 7ZM14 0C6.11161 0 0 5.99196 0 14C0 22.0092 6.11161 29 14 29C21.8885 29 29 23.0086 29 15C29 6.99199 21.8872 0 14 0ZM23 19C21.4239 22.3001 17.8547 23.9987 14 24C8.61776 24 4.98508 19.4643 5 14C5.00293 11.5258 5.34254 9.8184 7 8C7.07336 7.91945 7.05285 7.90434 7 8C6.34719 9.17556 6 10.4751 6 12C6 16.0685 8.65822 19 12 19C14.1058 19 15.9163 17.9855 17 16C17.011 15.9794 16.9781 16.0074 17 16C17.022 15.9927 16.9791 15.9902 17 16L23 19C23.0112 19.0049 22.9916 18.9911 23 19C23.0084 19.009 22.9957 18.9884 23 19C23.0042 19.0116 23.0006 18.9876 23 19C22.9993 19.0123 23.0054 18.9889 23 19ZM23 10L17 13C16.9785 13.0101 17.0224 13.0079 17 13C16.9776 12.9921 17.0107 13.0214 17 13C16.7017 12.412 16.5693 12.3238 16 12C15.4308 11.6763 14.6512 10.952 14 11C12.3562 11.1176 11.1113 12.3311 11 14C10.9495 14.7338 11.6032 15.3839 12 16C12.3969 16.6162 12.3163 17.7507 13 18C13.0292 18.0101 13.0361 17.9994 13 18C12.9689 18.0013 13.0324 18 13 18C10.0245 18 8 14.6223 8 11C8 10.9226 7.99751 11.0768 8 11C8.09699 7.57028 10.624 5.13404 14 5C14.1287 4.99497 13.8701 5 14 5C17.856 5 21.4246 6.69796 23 10C23.0055 10.0108 22.9992 9.9878 23 10C23.0009 10.0122 23.004 9.9885 23 10C22.9961 10.0116 23.0082 9.991 23 10C22.9919 10.009 23.011 9.995 23 10V10Z" fill="#727272"/>
</g>
<defs>
<clipPath id="clip0_218_843">
<rect width="86" height="29" fill="white"/>
</clipPath>
</defs>
</svg>
