<svg width="125" height="29" viewBox="0 0 125 29" fill="none" xmlns="http://www.w3.org/2000/svg">
<g clip-path="url(#clip0_218_898)">
<path fill-rule="evenodd" clip-rule="evenodd" d="M59 14C59 12.5278 60.6254 12 62 12C63.3449 12 64 12.5278 64 14C64 15.5032 63.3449 17 62 17C60.6254 17 59 15.5032 59 14ZM60 14C60 14.7361 61.415 16 62 16C62.5553 16 63 14.7672 63 14C63 13.2639 62.5553 13 62 13C61.415 13 60 13.2634 60 14Z" fill="#727272"/>
<path d="M59 16V17C58.6339 17.1749 58.4885 16.9714 58 17C56.8087 17 56 16.1944 56 15V13H55V12H56V11H57V12H59V13H57V15C57 15.466 57.6029 16 58 16C58.1833 16 58.8166 16.1162 59 16Z" fill="#727272"/>
<path fill-rule="evenodd" clip-rule="evenodd" d="M50 13C50.349 12.6365 51.4184 12 52 12C53.1917 12 54 13.4154 54 15C54 16.618 53.1917 17 52 17C51.4184 17 50.349 17.3635 50 17V19H49V12H50V13ZM50 15C50 15.7924 51.4189 16 52 16C52.6101 16 53 15.7928 53 15C53 14.2076 52.6395 13 52 13C51.4184 13 50 14.2072 50 15Z" fill="#727272"/>
<path d="M48 12L45 19V19H43L44 17L42 12H44L45 15L46 12H48Z" fill="#727272"/>
<path d="M40 12.9999C40.3891 12.3951 41.1147 11.9999 42 11.9999C42.1413 11.9999 41.8582 11.9364 42 11.9999V13.9999V13.9999C40.7968 13.9999 40 13.7257 40 14.9999V16.9999H38V11.9999H40V12.9999Z" fill="#727272"/>
<path d="M35 15H37C36.705 16.6854 35.7333 18 34 18C31.9722 18 30 16.9772 30 15C30 13.0234 32.0048 11 34 11C35.6683 11 36.6736 12.4124 37 14H35C34.771 13.0283 34.8833 13 34 13C32.9208 13 32 13.8657 32 15C32 16.1343 32.9208 17 34 17C34.8507 17 34.771 16.0045 35 15Z" fill="#727272"/>
<path d="M0.999557 18.9998L6.99956 14.9998C7.07842 14.9387 6.89821 14.9998 6.99956 14.9998C7.10091 14.9998 6.92069 14.9387 6.99956 14.9998L12.9996 19.9998C13.0508 20.0362 12.9711 19.9452 12.9996 19.9998C13.0279 20.0545 13.0001 19.9388 12.9996 19.9998V28.9998C12.9996 29.3456 12.2941 29.2201 11.9996 28.9998L0.999557 19.9998C0.803533 19.8109 0.803533 19.1573 0.999557 18.9998Z" fill="#727272"/>
<path d="M13.0002 0.00015521V9.00016C13.0002 9.12548 13.0978 8.90623 13.0002 9.00016L7.00021 14.0002C6.92172 14.0612 7.10107 14.0002 7.00021 14.0002C6.89934 14.0002 7.07871 14.0612 7.00021 14.0002L1.00021 10.0002C0.772065 9.81168 0.772065 9.18855 1.00021 9.00016L12.0002 0.00015521C12.294 -0.220113 13.0002 -0.34488 13.0002 0.00015521Z" fill="#727272"/>
<path d="M123 13.0002C123.39 12.3949 124.115 12.0002 125 12.0002C125.141 12.0002 124.86 11.9361 125 12.0002V14.0002V14.0002C123.796 14.0002 123 13.7266 123 15.0002V17.0002H121V12.0002H123V13.0002Z" fill="#727272"/>
<path d="M120 12V17H118V16C117.648 16.3776 117.609 17 117 17C115.847 17 115 16.2269 115 15V12H117V15C117 15.5664 116.487 16 117 16C117.609 16 118 14.9434 118 14V12H120Z" fill="#727272"/>
<path d="M114 16V17C113.634 17.1744 113.488 16.9714 113 17C111.809 17 111 16.194 111 15V13H110V12H111V11H112V12H114V13H112V15C112 15.466 112.603 16 113 16C113.183 16 113.817 16.1167 114 16Z" fill="#727272"/>
<path d="M109 17H107L106 15H105V17H104V10H105V14H106L107 12H109L107 14L109 17Z" fill="#727272"/>
<path fill-rule="evenodd" clip-rule="evenodd" d="M102 12V17H101V16C100.651 16.3356 99.5816 17 99 17C97.8377 17 97 16.494 97 15C97 13.5061 97.8085 12 99 12C99.5816 12 100.651 12.6649 101 13V12H102ZM98 15C98 15.7316 98.36 16 99 16C99.5816 16 101 15.7316 101 15C101 14.2685 99.5816 13 99 13C98.3892 13 98 14.2685 98 15Z" fill="#727272"/>
<path d="M95 12.0001H97V13.0001H95V17.0001H94V13.0001H93V12.0001H94V12.0001C94 10.8849 94.702 10.0001 96 10.0001C96.3611 10.002 96.6662 9.87915 97 10.0001V11.0001C96.8598 10.9688 96.1402 11.0001 96 11.0001C95.5784 11.0001 95 11.6288 95 12.0001V12.0001Z" fill="#727272"/>
<path d="M92 12V17H90V16C89.647 16.3776 89.6093 17 89 17C87.846 17 87 16.2269 87 15V12H89V15C89 15.5664 88.4872 16 89 16C89.6092 16 90 14.9434 90 14V12H92Z" fill="#727272"/>
<path d="M83 13C83.3528 12.6248 83.3908 12 84 12C85.1533 12 86 12.7809 86 14V17H84V14C84 13.4377 84.5133 13 84 13C83.3914 13 83 14.0626 83 15V17H81V12H83V13Z" fill="#727272"/>
<path fill-rule="evenodd" clip-rule="evenodd" d="M79 12V17H78V16C77.651 16.3356 76.5816 17 76 17C74.8374 17 74 16.494 74 15C74 13.5061 74.8084 12 76 12C76.5816 12 77.651 12.6649 78 13V12H79ZM75 15C75 15.7316 75.3604 16 76 16C76.5811 16 78 15.7316 78 15C78 14.2685 76.5811 13 76 13C75.3894 13 75 14.2685 75 15Z" fill="#727272"/>
<path d="M74 11V18H72V15L71 18H69L68 14V18H66V11H68L70 15L72 11H74Z" fill="#727272"/>
<path d="M6.99963 15L11.9996 19C12.0752 19.0595 12.9025 19 12.9996 19C13.0967 19 12.9241 19.0595 12.9996 19L17.9996 15C18.1879 14.8473 18.1879 14.1833 17.9996 14L12.9996 10C12.9241 9.94064 13.0966 10 12.9996 10C12.9027 10 12.0751 9.94064 11.9996 10L6.99963 14C6.78007 14.1838 6.78007 14.8473 6.99963 15Z" fill="#727272"/>
<path d="M25 9.99981L19 13.9998C18.9215 14.0608 19.1008 13.9998 19 13.9998C18.8992 13.9998 19.0784 14.0608 19 13.9998L13 8.99981C12.9489 8.96372 13.0283 9.0544 13 8.99981C12.9716 8.94532 12.9994 9.06081 13 8.99981V-0.000185981C13 -0.345219 13.7071 -0.219426 14 -0.000185981L25 8.99981C25.1955 9.18826 25.1955 9.84273 25 9.99981Z" fill="#727272"/>
<path d="M0.000220969 18.9998V9.99979C-0.00235671 9.91379 -0.0377005 10.0738 0.000220969 9.99979C0.0381441 9.92582 -0.0661777 10.0384 0.000220969 9.99979C0.0666204 9.96133 -0.0736044 9.99054 0.000220969 9.99979C0.0740446 10.009 0.942376 9.94577 1.00022 9.99979L5.00022 13.9998C5.17222 14.1992 5.17222 14.8336 5.00022 14.9998L1.00022 18.9998C0.742454 19.2328 0.000220969 19.3648 0.000220969 18.9998Z" fill="#727272"/>
<path d="M12.9998 28.9998V19.9998C12.9998 19.8742 12.9013 20.094 12.9998 19.9998L18.9998 14.9998C19.0787 14.9387 18.8985 14.9998 18.9998 14.9998C19.1011 14.9998 18.921 14.9387 18.9998 14.9998L24.9998 18.9998C25.1964 19.1887 25.1964 19.8424 24.9998 19.9998L13.9998 28.9998C13.7054 29.2201 12.9998 29.3461 12.9998 28.9998Z" fill="#727272"/>
</g>
<defs>
<clipPath id="clip0_218_898">
<rect width="125" height="29" fill="white"/>
</clipPath>
</defs>
</svg>
