<svg width="68" height="20" viewBox="0 0 68 20" fill="none" xmlns="http://www.w3.org/2000/svg">
<g clip-path="url(#clip0_218_654)">
<path d="M66 18.0001C65.8339 17.984 65.1079 18.127 65 18.0001C64.8922 17.8733 64.9887 17.166 65 17.0001C64.9953 16.8331 64.8854 17.1219 65 17.0001C65.1147 16.8782 65.8325 17.0061 66 17.0001C66.1267 16.994 65.8957 16.9283 66 17.0001C66.1044 17.0719 65.9609 16.8798 66 17.0001H67C66.9525 16.7506 66.2017 16.155 66 16.0001C65.7796 15.809 66.292 15.9902 66 16.0001C65.6936 16.0001 65.2167 15.7841 65 16.0001C64.7833 16.216 65 16.6946 65 17.0001C64.9935 17.1625 64.9393 17.8492 65 18.0001C65.0607 18.1509 64.8827 17.8873 65 18.0001C65.2236 18.2193 65.6864 18.9977 66 19.0001C66.267 19.0065 65.7894 18.1638 66 18.0001C66.2106 17.8363 66.9413 18.2598 67 18.0001H66C65.95 18.1192 66.1112 17.9338 66 18.0001C65.8888 18.0664 66.129 18.0125 66 18.0001ZM68 16.0001C67.8786 15.7183 67.2181 16.2165 67 16.0001C66.7803 15.7789 67.2887 15.1187 67 15.0001C66.7113 14.8814 66.3122 14.9976 66 15.0001C65.6828 15.0006 65.293 14.8789 65 15.0001C64.4292 15.2393 63.2401 15.4311 63 16.0001C62.8784 16.2941 63.0004 16.6821 63 17.0001C63.0004 17.3163 62.8784 17.7081 63 18.0001C63.1214 18.2805 63.7854 18.782 64 19.0001C64.216 19.2174 64.7166 19.8829 65 20.0001C65.2918 20.1261 65.6821 20.0008 66 20.0001C66.3179 20.0008 66.7083 20.1261 67 20.0001C67.2819 19.8831 66.7863 19.2175 67 19.0001C67.2193 18.7847 67.88 18.2827 68 18.0001C68.1216 17.7081 67.9996 17.3163 68 17.0001C68.0014 16.6825 68.1196 16.2945 68 16.0001ZM67 18.0001C66.8614 18.3438 67.3093 18.7945 67 19.0001C66.6907 19.2055 66.3717 19.0047 66 19.0001C65.752 19.0013 65.2284 19.0963 65 19.0001C64.785 18.9035 64.167 19.1661 64 19.0001C63.8352 18.8322 64.099 18.2132 64 18.0001C63.9062 17.7716 64.0016 17.247 64 17.0001C64.0016 16.7513 63.9062 17.2306 64 17.0001C64.1875 16.5525 64.5509 16.187 65 16.0001C65.2291 15.9061 65.7523 16.0011 66 16.0001C66.2446 15.998 65.7738 15.9071 66 16.0001C66.2263 16.093 66.8279 15.8267 67 16.0001C67.359 16.3467 67.9889 16.502 68 17.0001C67.9856 17.2379 67.1038 17.7855 67 18.0001ZM13 2.00008C11.3296 1.18485 8.85816 0.917752 7 1.00008H6V5.00008H8C10.7033 5.00008 12 7.73556 12 11.0001C12 14.2646 10.7034 16.0001 8 16.0001H6V20.0001H8C13.7302 20.0001 17 17.034 17 11.0001C17.0231 7.2577 15.5994 3.47976 13 2.00008ZM1 20.0001H6V16.0001V5.00008V1.00008H1V20.0001ZM27 9.00008H26L25 12.0001C25.9415 12.4722 27 13.125 27 14.0001C27.0039 14.2293 27.0854 14.7872 27 15.0001C26.9146 15.213 26.1613 15.8367 26 16.0001C25.8387 16.1636 26.2121 15.9115 26 16.0001C25.7878 16.0887 25.23 16.0001 25 16.0001C23.8447 16.0001 23.0231 15.5086 23 14.0001H19V14.0001C19 17.9325 20.997 20.0001 25 20.0001C29.003 20.0001 32 17.5352 32 14.0001C32 11.5992 31.0377 10.7273 27 9.00008ZM23 12.0001C23.4968 12.1959 24.5032 11.787 25 12.0001L26 8.00008C24.4577 7.30342 24 6.95582 24 6.00008C24.0238 5.59727 23.698 5.26876 24 5.00008C24.302 4.7314 24.5958 4.97806 25 5.00008C25.9185 5.00008 26.8036 5.68736 27 7.00008H31C31 4.55314 30.9582 3.0134 29 2.00008C28.0082 1.49357 26.1144 0.992859 25 1.00008C21.6266 1.00008 19 2.90828 19 6.00008C19 8.37218 20.0021 10.7852 23 12.0001ZM43 8.00008C43.0497 8.55915 43.3299 8.54527 43 9.00008C42.67 9.45489 41.5482 9.87192 41 10.0001L44 13.0001C46.4781 12.2977 48 10.6888 48 8.00008C48.0402 6.83609 47.5981 5.00058 47 4.00008C46.4019 2.99958 45.0463 2.51874 44 2.00008C42.6083 1.50401 41.4764 0.929771 40 1.00008H39V5.00008H40C41.7618 5.00008 43 6.43403 43 8.00008ZM46 17.0001L45 15.0001L43 13.0001L41 11.0001C40.7968 11.0236 40.2046 11.0006 40 11.0001H38V11.0001V1.00008H34V20.0001H38V14.0001V14.0001L43 20.0001H48L46 17.0001ZM61 1.00008L57 13.0001V14.0001L55 20.0001H59L66 1.00008H61ZM53 1.00008H49L55 20.0001V20.0001L57 13.0001L53 1.00008Z" fill="#727272"/>
</g>
<defs>
<clipPath id="clip0_218_654">
<rect width="68" height="20" fill="white"/>
</clipPath>
</defs>
</svg>
