<svg width="116" height="22" viewBox="0 0 116 22" fill="none" xmlns="http://www.w3.org/2000/svg">
<g clip-path="url(#clip0_218_657)">
<path d="M22.0001 8.99987L18.0001 1.99987C17.8173 1.68 17.317 1.18423 17.0001 0.999872C16.6831 0.81551 16.3659 0.999143 16.0001 0.999872H8.00007C7.54736 1.0011 6.39199 0.771033 6.00007 0.999872C5.60815 1.22871 5.22697 1.60427 5.00007 1.99987L1.00007 8.99987C0.817536 9.31914 1.00007 9.63123 1.00007 9.99987C1.00007 10.3685 0.817536 11.6806 1.00007 11.9999L5.00007 18.9999C5.22715 19.3957 5.60776 19.771 6.00007 19.9999C6.3924 20.2287 7.54699 19.999 8.00007 19.9999H16.0001C16.3645 19.9991 16.6846 20.1842 17.0001 19.9999C17.3154 19.8155 17.8179 19.3186 18.0001 18.9999L22.0001 11.9999C22.2296 11.6027 21.9986 11.4597 22.0001 10.9999C22.0015 10.54 22.2271 9.39851 22.0001 8.99987ZM2.00007 10.9999L3.00007 9.99987L7.00007 2.99987L9.00007 6.99987C9.10682 7.16841 8.80759 7.95255 9.00007 7.99987C9.19257 8.04719 9.82856 8.10001 10.0001 7.99987C10.1716 7.89975 9.94463 7.19193 10.0001 6.99987C10.0555 6.8078 10.0914 7.17738 10.0001 6.99987L8.00007 2.99987C7.84731 2.77123 8.23848 3.13448 8.00007 2.99987C7.76167 2.86528 7.27296 3.01154 7.00007 2.99987H15.0001L11.0001 8.99987C10.9316 9.11916 11.1184 9.93095 11.0001 9.99987C10.8818 10.0688 11.1367 9.9997 11.0001 9.99987H4.00007C3.71899 9.99801 3.24434 9.8594 3.00007 9.99987C2.75581 10.1403 2.1419 10.7548 2.00007 10.9999ZM15.0001 17.9999H8.00007L10.0001 13.9999C10.0561 13.9114 9.98302 14.1034 10.0001 13.9999C10.0171 13.8964 10.0247 14.1018 10.0001 13.9999C9.97549 13.8979 10.0624 14.084 10.0001 13.9999C9.93777 13.9159 10.0901 13.0524 10.0001 12.9999C9.91009 12.9473 10.1033 13.0125 10.0001 12.9999C9.89686 12.9873 9.09987 12.9705 9.00007 12.9999C8.90027 13.0292 9.0804 12.9333 9.00007 12.9999C8.91973 13.0665 9.04801 13.9067 9.00007 13.9999L7.00007 17.9999H6.00007C6.12586 17.7777 5.98814 18.2554 6.00007 17.9999C6.012 17.7443 6.10461 17.2329 6.00007 16.9999L3.00007 10.9999H11.0001C11.1366 11.0003 10.8818 10.931 11.0001 10.9999C11.1183 11.0688 10.9314 11.8807 11.0001 11.9999L15.0001 17.9999C15.152 18.2254 14.7639 17.8678 15.0001 17.9999C15.2363 18.132 15.7303 17.9896 16.0001 17.9999H15.0001ZM20.0001 10.9999L17.0001 17.9999L13.0001 10.9999C12.9321 10.8803 13.0001 11.1377 13.0001 10.9999C13.0001 10.8621 12.9321 10.1194 13.0001 9.99987L17.0001 2.99987V2.99987C16.8477 3.26946 16.9845 2.68986 17.0001 2.99987C17.0155 3.30988 16.8216 3.74713 17.0001 3.99987C17.1311 4.18469 20.0001 9.99987 20.0001 9.99987H16.0001C15.796 9.99987 15.1444 9.85415 15.0001 9.99987C14.8557 10.1456 15.0001 9.79378 15.0001 9.99987C15.0001 10.206 14.8557 10.8541 15.0001 10.9999C15.1444 11.1456 15.796 10.9999 16.0001 10.9999H19.0001V10.9999C19.2812 11.0017 19.7558 11.1403 20.0001 10.9999C20.2443 10.8594 20.8582 10.245 21.0001 9.99987L20.0001 10.9999V10.9999Z" fill="#727272"/>
<path d="M64 5.99996C63.5565 5.99022 63.3821 5.76989 63 5.99996C62.6315 6.23206 62.2791 6.66203 62 6.99996V6.99996V6.99996L61 5.99996H59C58.9084 5.99997 59.0753 5.94684 59 5.99996C58.9246 6.05309 58.0323 5.91256 58 5.99996V7.99996H61C61 7.99996 60 7.25843 60 7.99996V12H59C58.9084 12 59.0753 12.9468 59 13C58.9246 13.0531 58.0323 12.9125 58 13V14H64C64.0921 14.0001 64.9243 14.0535 65 14C65.0757 13.9465 64.9679 14.0881 65 14V12H62V8.99996V8.99996C62.1877 8.70728 61.7343 8.22103 62 7.99996C62.3167 7.75389 63.6023 7.9819 64 7.99996C64.126 7.99166 63.8872 7.94211 64 7.99996C64.1127 8.05781 63.9315 7.89186 64 7.99996C64.1282 8.2434 64.0072 8.7237 64 8.99996H66C65.9864 7.99473 65.3245 7.43021 65 6.99996C64.8373 6.7826 65.243 6.11561 65 5.99996C64.7571 5.8843 64.2678 5.9876 64 5.99996Z" fill="#727272"/>
<path d="M75.0003 9.99981C74.6138 9.79088 74.416 10.1177 74.0003 9.99981L72.0003 8.99981C71.674 8.90583 71.3092 9.15119 71.0003 8.99981C70.6968 8.84677 71.0003 8.27787 71.0003 7.99981C71.0032 7.83853 70.9147 8.12895 71.0003 7.99981C71.0859 7.87067 70.8642 8.04844 71.0003 7.99981C71.3546 7.85031 71.6224 7.98552 72.0003 7.99981C72.2525 8.00045 72.7538 7.94026 73.0003 7.99981C73.245 8.05831 73.7658 7.90187 74.0003 7.99981C74.2256 8.09465 74.7961 7.88772 75.0003 7.99981C75.1607 8.08819 74.8705 7.91574 75.0003 7.99981L76.0003 6.99981C75.8731 6.90352 75.1517 7.11333 75.0003 6.99981C74.7778 6.84405 75.2473 6.09766 75.0003 5.99981C74.6794 5.87295 74.3349 6.06809 74.0003 5.99981C73.5661 5.91422 72.4411 5.99452 72.0003 5.99981C71.5625 5.99663 71.4256 5.8821 71.0003 5.99981C70.638 6.09721 70.311 6.76782 70.0003 6.99981C69.7307 7.20431 69.1668 6.6848 69.0003 6.99981C68.8357 7.32795 68.9918 8.62274 69.0003 8.99981C68.9839 9.43434 68.7575 9.66216 69.0003 9.99981C69.2531 10.327 69.6569 10.8045 70.0003 10.9998C70.3824 11.2185 71.5835 10.8877 72.0003 10.9998C72.4432 11.1227 72.6243 10.8812 73.0003 10.9998C73.3315 11.0989 73.6903 11.8351 74.0003 11.9998C74.1285 12.0508 73.9194 11.8766 74.0003 11.9998C74.0813 12.1231 73.9943 11.8465 74.0003 11.9998C74.0064 12.1638 74.0773 12.8606 74.0003 12.9998C73.9233 13.1391 74.1335 12.9339 74.0003 12.9998C73.5117 13.2628 72.6818 13.1895 72.0003 12.9998C71.6895 12.9144 71.2969 13.1355 71.0003 12.9998C70.7312 12.8781 70.2469 13.1721 70.0003 12.9998C69.8266 12.877 70.1206 12.1033 70.0003 11.9998L69.0003 13.9998C69.4364 14.3951 69.4788 14.7722 70.0003 14.9998C70.7233 15.3065 72.2282 15.0218 73.0003 14.9998C74.0978 14.9998 74.4506 14.487 75.0003 13.9998C75.2663 13.766 75.8598 13.3457 76.0003 12.9998C76.1408 12.6539 76.0169 12.38 76.0003 11.9998C76.0158 11.5743 76.2407 11.3279 76.0003 10.9998C75.751 10.6786 75.3405 10.1865 75.0003 9.99981Z" fill="#727272"/>
<path d="M86 13C85.8225 13.1456 85.1998 12.8869 85 13C84.7771 13.1251 85.2456 12.9291 85 13C84.7149 13.0807 84.2963 13.0032 84 13C83.7196 13.0137 83.2581 13.1105 83 13C82.7419 12.8895 82.1835 13.2123 82 13C81.6506 12.5819 82 11.9052 82 11V8H85L86 7H82V4H80C79.8987 4.02905 80.0633 4.9159 80 5C79.9366 5.08409 80 4.8947 80 5V7H79C78.9015 7.00001 79.0811 6.94398 79 7C78.9189 7.05601 78.0349 6.90784 78 7V8H81C81 8 80 8.17845 80 9V11C80 12.503 80.3828 13.3206 81 14C81.6172 14.6794 81.7719 15 83 15C83.3519 14.9985 83.6565 15.0763 84 15C84.351 14.9239 84.6691 15.1395 85 15C85.3188 14.8658 85.7092 14.1872 86 14C86.23 13.8549 86.8133 14.1977 87 14L86 12V13Z" fill="#727272"/>
<path d="M95.0001 12.9999C94.99 12.8534 95.0213 13.1697 95.0001 12.9999C94.9771 12.6805 95.0001 12.2562 95.0001 11.9999C95.0001 11.6615 94.9623 11.4327 95.0001 10.9999C95.0388 10.5671 95.0001 9.59742 95.0001 8.99986C95.0047 8.57828 95.1097 8.40399 95.0001 7.99986C94.9025 7.65245 94.2321 7.26029 94.0001 6.99986C93.7423 6.72463 93.3435 6.11897 93.0001 5.99986C92.545 5.84374 92.4768 5.98924 92.0001 5.99986C91.3244 5.98547 90.6597 5.83952 90.0001 5.99986C89.5272 6.12405 89.449 6.79504 89.0001 6.99986V7.99986C89.3286 7.84731 89.6591 8.11516 90.0001 7.99986C90.4984 7.83426 91.4793 7.99295 92.0001 7.99986C92.4021 7.97149 92.662 7.76037 93.0001 7.99986C93.2735 8.21956 93.0001 8.49457 93.0001 8.99986V8.99986C93.0004 9.13185 93.023 9.8703 93.0001 9.99986V9.99986V9.99986C92.6825 9.97644 92.2185 10.0248 92.0001 9.99986C91.787 9.9757 92.187 9.99986 92.0001 9.99986C91.5034 9.99477 90.4852 9.8838 90.0001 9.99986C89.6052 10.0918 89.3402 9.76205 89.0001 9.99986C88.7077 10.2091 88.1581 10.6593 88.0001 10.9999C87.8338 11.3848 87.9898 12.5745 88.0001 12.9999C87.9858 13.334 87.8838 13.6905 88.0001 13.9999C88.1165 14.3092 88.775 13.7733 89.0001 13.9999C89.4503 14.4392 90.2222 14.9999 91.0001 14.9999C91.5421 15.0293 91.5215 15.2795 92.0001 14.9999C92.3548 14.7732 92.7715 14.3732 93.0001 13.9999V13.9999V13.9999V14.9999H95.0001C95.1087 14.9999 95.9163 15.0757 96.0001 14.9999C96.0839 14.9241 95.9798 14.1166 96.0001 13.9999V12.9999H95.0001V12.9999ZM93.0001 11.9999V11.9999C92.8495 12.2852 92.2468 12.8106 92.0001 12.9999C91.6272 13.2544 91.4387 13.0315 91.0001 12.9999C90.5498 12.9999 90.2071 13.2152 90.0001 12.9999C89.8956 12.8848 90.0534 13.1511 90.0001 12.9999C89.9468 12.8486 89.9932 12.1618 90.0001 11.9999C89.9956 11.7826 89.8834 12.1759 90.0001 11.9999C90.1154 11.8333 90.8285 11.0919 91.0001 10.9999C91.1852 10.8967 90.7959 11.0424 91.0001 10.9999C91.4481 10.9184 91.5501 10.9314 92.0001 10.9999C92.2212 11.0306 92.8875 10.9757 93.0001 10.9999V10.9999V11.9999V11.9999Z" fill="#727272"/>
<path d="M102 10.0002L105 7.00018H103L101 10.0002H100V3.00018H98C97.9078 3.00019 98.0761 2.94251 98 3.00018C97.9239 3.05784 97.0331 2.9053 97 3.00018V5.00018H99C99 5.00018 98 4.2943 98 5.00018V15.0002H100V11.0002H101L104 15.0002H105C105.092 15.0005 104.924 15.0582 105 15.0002C105.077 14.942 105.968 15.0957 106 15.0002V13.0002H105L102 10.0002Z" fill="#727272"/>
<path d="M45 7.00004C44.9 6.99998 45.0808 6.94136 45 7.00004C44.9191 7.05871 45.0306 6.90516 45 7.00004L43 12V12L41 7.00004H39C38.9041 7.00004 39.0789 6.94569 39 7.00004C38.9212 7.05437 38.0338 6.91064 38 7.00004V9.00004H40C40 9.00004 39.5789 8.98609 40 10L42 15H44L47 7.00004H45Z" fill="#727272"/>
<path d="M35.9997 7.00002C35.6444 6.72596 35.4253 6.11197 34.9997 6.00002C34.0208 5.73752 32.9592 5.66565 31.9997 6.00002C31.4962 6.17703 30.3945 6.62231 29.9997 7.00002C29.6064 7.39142 29.2016 8.46806 28.9997 9.00003C28.7653 9.62796 28.9866 10.3242 28.9997 11C28.9896 11.6443 28.7945 11.394 28.9997 12C29.1823 12.5347 29.6184 13.6021 29.9997 14C30.381 14.3979 30.4947 14.8172 30.9997 15C31.5925 15.2141 32.374 15.01 32.9997 15C33.4039 15 35.587 15.0783 36.9997 14V12C36.0215 12.6598 34.1569 12.9947 32.9997 13C32.6761 13.0046 33.3151 13.0777 32.9997 13C32.7077 12.9264 32.2488 13.1788 31.9997 13C31.7578 12.824 31.1433 12.2724 30.9997 12C30.8429 11.6868 31.0009 11.3553 30.9997 11V11H36.9997C37.0897 10.5089 36.9956 10.5004 36.9997 10C37.0201 9.39219 37.2433 8.54994 36.9997 8.00003C36.7965 7.56286 36.3653 7.29315 35.9997 7.00002ZM34.9997 10H30.9997V10C31.02 9.69603 30.8564 9.26363 30.9997 9.00003C31.1368 8.74764 31.7807 8.17453 31.9997 8.00003C32.2191 7.82683 31.7389 8.08517 31.9997 8.00003C32.2749 7.91105 32.7122 7.99826 32.9997 8.00003C33.6505 8.00003 34.6724 7.63124 34.9997 8.00003C35.3398 8.40828 35.025 9.45451 34.9997 10V10Z" fill="#727272"/>
<path d="M54.9996 7.00008C54.6447 6.72595 54.4248 6.11205 53.9996 6.00008C53.0217 5.73751 51.958 5.66563 50.9996 6.00008C50.4965 6.17712 49.394 6.62228 48.9996 7.00008C48.6033 7.38986 48.2044 8.46775 47.9996 9.00008C47.7655 9.62816 47.9865 9.3241 47.9996 10.0001C47.9895 10.6445 47.7946 11.3939 47.9996 12.0001C48.1828 12.5358 48.6173 13.602 48.9996 14.0001C49.382 14.3981 50.4937 14.8183 50.9996 15.0001C51.5918 15.2142 51.3745 15.0101 51.9996 15.0001C52.4034 15.0001 54.5884 15.0786 55.9996 14.0001V12.0001C55.0225 12.6601 53.1558 12.9947 51.9996 13.0001C51.6754 13.002 52.3151 13.0808 51.9996 13.0001C51.7079 12.9265 51.2484 13.1789 50.9996 13.0001C50.7563 12.8219 50.1427 12.2758 49.9996 12.0001C49.843 11.6866 50.0007 11.3553 49.9996 11.0001V11.0001H55.9996C56.0895 10.509 55.9955 10.5005 55.9996 10.0001C56.0179 9.39392 56.2433 8.54779 55.9996 8.00008C55.7939 7.56524 55.366 7.29009 54.9996 7.00008ZM53.9996 10.0001H49.9996V10.0001C50.0199 9.69601 49.8565 9.26374 49.9996 9.00008C50.1365 8.74763 50.7808 8.17462 50.9996 8.00008C51.2187 7.82684 50.739 8.08525 50.9996 8.00008C51.2746 7.91108 51.7124 7.99831 51.9996 8.00008C52.6498 8.00008 53.6726 7.63121 53.9996 8.00008C54.3393 8.40844 54.0249 9.45443 53.9996 10.0001V10.0001Z" fill="#727272"/>
<path d="M115 7.00002C114.645 6.72596 114.426 6.11197 114 6.00002C113.023 5.73752 111.959 5.66565 111 6.00002C110.497 6.17703 109.394 6.62231 109 7.00002C108.604 7.38971 108.206 8.46783 108 9.00003C107.767 9.62795 107.988 9.32421 108 10C107.99 10.6443 107.796 11.394 108 12C108.184 12.5363 108.618 13.6017 109 14C109.383 14.3983 110.494 14.8184 111 15C111.592 15.2141 111.375 15.01 112 15C112.404 15 114.589 15.0783 116 14V12C115.023 12.6598 113.156 12.9947 112 13C111.676 13.002 112.316 13.0807 112 13C111.709 12.9265 111.249 13.1788 111 13C110.759 12.8241 110.144 12.2723 110 12C109.844 11.6868 110.001 11.3552 110 11V11H116C116.091 10.5089 115.997 10.5004 116 10C116.021 9.39218 116.245 8.54994 116 8.00003C115.793 7.5646 115.369 7.28921 115 7.00002ZM114 10H110V10C110.021 9.69603 109.857 9.26363 110 9.00003C110.137 8.74764 110.782 8.17453 111 8.00003C111.22 7.82683 110.74 8.08517 111 8.00003C111.275 7.91105 111.713 7.99826 112 8.00003C112.65 8.00003 113.673 7.63124 114 8.00003C114.34 8.40828 114.025 9.45451 114 10V10Z" fill="#727272"/>
</g>
<defs>
<clipPath id="clip0_218_657">
<rect width="116" height="21" fill="white" transform="translate(0 1)"/>
</clipPath>
</defs>
</svg>
