<svg width="79" height="25" viewBox="0 0 79 25" fill="none" xmlns="http://www.w3.org/2000/svg">
<g clip-path="url(#clip0_218_636)">
<path fill-rule="evenodd" clip-rule="evenodd" d="M0 4L18 0L28 5V6L18 3L0 5V4ZM0 6L17 4L28 7V8L17 6L0 8V6ZM15 7L0 9V11L15 10L28 11V9L15 7ZM0 12L14 11L28 12V13L14 14L0 13V12ZM13 15L0 14V15L13 18L28 16V14L13 15ZM0 16L11 19L28 17V19L11 21L0 18V16ZM10 22L0 19V20L10 25L28 21V20L10 22ZM32 9H31C31.0102 9.36392 30.8983 9.70881 31 10C31.1017 10.2911 30.7965 10.7999 31 11C31.2034 11.2002 31.6846 11.8908 32 12C32.3052 12.1091 32.5727 12 33 12C33.3662 12 33.705 12.1001 34 12C34.2951 11.909 34.7966 11.182 35 11C35.2035 10.8272 35.8881 11.2548 36 11C36.1017 10.7543 36 10.3094 36 10C36 9.65424 36.1628 9.21837 36 9C35.8373 8.78163 35.2442 8.14556 35 8C34.7558 7.86351 34.2848 8.09099 34 8C33.7151 7.90901 33.2442 8.09099 33 8C32.7558 7.90901 33.1628 7.11828 33 7C32.8373 6.89081 32 7.20017 32 7C32 6.90901 31.9694 7.091 32 7C32.0203 6.91811 32.9288 6.07279 33 6C33.0712 5.93631 32.8779 6.04549 33 6C33.1221 5.9636 32.8067 6 33 6C33.1831 6 33.8779 5.92721 34 6C34.1221 6.07279 33.9289 6.89991 34 7C34.0712 7.10919 33.9694 6.87261 34 7C34.0232 7.09649 33.9842 6.91141 34 7V7C34.005 7.02797 33.9951 6.97387 34 7H36C36 6.76343 36.0814 7.25477 36 7C35.9085 6.74523 35.1831 6.21838 35 6C34.8169 5.79073 34.2951 5.13649 34 5C33.705 4.86351 33.407 5 33 5C32.5727 5 32.3052 4.90901 32 5C31.6948 5.09099 32.1933 5.83622 32 6C31.8067 6.16378 31.0915 5.77252 31 6C30.9084 6.23657 31 6.72703 31 7C31 7.38215 30.8372 7.76343 31 8C31.1627 8.23657 31.7558 7.85442 32 8C32.2442 8.14555 32.7152 8.91814 33 9C33.2849 9.09098 32.7558 8.92727 33 9C33.2442 9.07282 33.8372 8.8999 34 9C34.1627 9.10914 34 9.82708 34 10C34 10.2365 34.1425 9.8362 34 10C33.8576 10.1638 33.3052 11 33 11C32.6134 11 33.1831 10.2185 33 10C32.8169 9.79075 32.0204 9.38208 32 9ZM36 5V6H38V12H39V6H41V5H36ZM46 12V10H43L42 12H41L44 5H45L48 12H46ZM45 9L44 7L43 9H45ZM50 9L52 12H54L51 8L54 5H52L50 8V5H48V12H50V9ZM54 12V5H56V12H54ZM59 7L62 12H63V5H62V9L59 5H57V12H59V7ZM68 9V8H71V9C70.9389 9.40945 71.1729 9.6724 71 10C70.8271 10.3366 70.2848 10.7635 70 11C69.7152 11.2366 69.407 11.8726 69 12C68.5931 12.1274 68.5188 12 68 12C67.4913 12 67.4274 11.1728 67 11C66.5727 10.8271 65.3154 11.3003 65 11C64.6745 10.7088 65.1831 10.4004 65 10C64.8169 9.59967 64 8.45495 64 8C64 7.54506 64.8169 7.40036 65 7C65.1831 6.59964 64.6846 6.30027 65 6C65.3154 5.70884 66.5625 5.17288 67 5C67.4274 4.82712 67.4913 5 68 5C68.9563 5 69.3997 5.58145 70 6C70.59 6.41855 70.8373 7.1993 71 8H70C69.8983 7.61785 69.3764 7.20927 69 7C68.6236 6.79072 68.5494 6 68 6C67.7049 6 67.2544 6.8999 67 7C66.7456 7.10918 66.1831 6.81802 66 7C65.8067 7.18198 66.1017 7.74523 66 8C65.888 8.25477 66 7.69974 66 8C66 8.30934 65.888 8.74522 66 9C66.1017 9.25469 65.8067 9.81804 66 10C66.1831 10.182 66.7456 9.8999 67 10C67.2544 10.1091 67.7049 11 68 11C68.2848 11 68.7762 10.0637 69 10C69.2239 9.93631 68.8373 10.1092 69 10C69.1628 9.89086 69.8983 10.1456 70 10C70.1017 9.85436 69.939 9.17284 70 9H68ZM31 14V20H33V18H35V16H33V15H35V14H31ZM41 20L40 19H37V20H35L38 14H40L43 20H41ZM40 17L39 15L38 17H40ZM50 17H48C47.939 17.1911 48.1119 17.8362 48 18C47.8779 18.1638 48.1729 17.8817 48 18C47.8271 18.1183 47.2238 18.9363 47 19C46.766 19.0728 46.2849 19 46 19C45.6846 19 46.2544 19.1091 46 19C45.7355 18.8999 45.1831 18.182 45 18C44.8169 17.818 44.1018 18.2457 44 18C43.8983 17.7543 44 17.2912 44 17C44 16.7179 43.8983 16.2457 44 16C44.1018 15.7543 44.8169 15.182 45 15C45.1831 14.818 45.7355 15.1092 46 15C46.2544 14.9 45.6846 15 46 15C46.5494 15 47.6338 14.7634 48 15C48.3561 15.2365 47.8983 15.5997 48 16H50C49.939 15.6361 50.1933 15.3185 50 15C49.7965 14.6815 49.3052 14.2366 49 14C48.6846 13.7635 48.4069 14.1365 48 14C47.593 13.8635 46.468 13 46 13C45.4913 13 45.4273 13.8272 45 14C44.5625 14.1729 44.3154 13.7088 44 14C43.6846 14.3002 43.1831 14.5997 43 15C42.8169 15.4004 43 16.5451 43 17C43 17.455 42.8169 17.5997 43 18C43.1831 18.4004 43.6744 18.7088 44 19C44.3154 19.3003 44.5727 19.8271 45 20C45.4273 20.1728 45.4913 20 46 20C46.468 20 47.593 20.1365 48 20C48.4069 19.8726 48.6948 19.2366 49 19C49.3053 18.7635 49.7966 18.3184 50 18C50.1933 17.6906 49.939 17.3639 50 17ZM53 20H51V14H53V20ZM54 20H57V19H55V14H54V20ZM60 20H58V14H60V20ZM61 14V15H62V20H64V15H65V14H61ZM68 20H66V14H68V20ZM69 20H73V19H71V17H73V16H71V15H73V14H69V20ZM74 18H75C75.0204 18.3821 75.8169 18.7908 76 19C76.1831 19.2185 76.6134 19 77 19C77.3052 19 76.8576 19.1638 77 19C77.1425 18.8362 78 18.2365 78 18C78 17.8271 77.1627 18.1092 77 18C76.8372 17.8999 77.2442 17.0728 77 17C76.7557 16.9273 76.2849 17.091 76 17C75.7152 16.9181 75.2442 17.1456 75 17C74.7558 16.8544 74.1627 16.2366 74 16C73.8372 15.7635 74 15.3822 74 15C74 14.727 73.9085 15.2365 74 15C74.0916 14.7725 74.8067 14.1637 75 14C75.1933 13.8362 75.6948 14.091 76 14C76.3052 13.909 76.5727 13 77 13C77.407 13 77.705 13.8635 78 14C78.2951 14.1365 77.8169 13.7908 78 14C78.1831 14.2185 78.9085 14.7452 79 15C79.0814 15.2548 79 15.7635 79 16H78C77.995 15.9735 78.0051 16.0285 78 16C77.9842 15.9116 78.0231 15.0963 78 15C77.9694 14.8726 77.0712 15.1092 77 15C76.9288 14.8999 77.1221 15.0728 77 15C76.8779 14.9272 77.1831 15 77 15C76.8067 15 76.1221 14.9636 76 15C75.8779 15.0454 76.0712 14.9363 76 15C75.9288 15.0728 76.0203 14.9181 76 15C75.9694 15.091 76 14.909 76 15C76 15.2001 75.8373 15.8909 76 16C76.1628 16.1183 76.7557 15.909 77 16C77.2442 16.091 76.7151 15.9089 77 16C77.2848 16.091 77.7558 16.8635 78 17C78.2442 17.1456 78.8373 16.7816 79 17C79.1627 17.2184 79 17.6542 79 18C79 18.3094 79.1017 18.7543 79 19C78.8881 19.2548 78.2035 18.8272 78 19C77.7966 19.182 78.2951 19.909 78 20C77.705 20.1001 77.3662 20 77 20C76.5727 20 76.3052 20.1091 76 20C75.6846 19.8908 75.2035 19.2001 75 19C74.7966 18.7998 74.1017 19.2911 74 19C73.8983 18.7088 74.0101 18.3639 74 18Z" fill="#727272"/>
</g>
<defs>
<clipPath id="clip0_218_636">
<rect width="79" height="25" fill="white"/>
</clipPath>
</defs>
</svg>
