<svg width="72" height="23" viewBox="0 0 72 23" fill="none" xmlns="http://www.w3.org/2000/svg">
<path d="M3 6V10H9V12H3V17H1V4H10V6H3V6Z" fill="#727272"/>
<path d="M3 6V10H9V12H3V17H1V4H10V6H3V6Z" stroke="#727272" stroke-width="0.224685" stroke-miterlimit="10"/>
<path d="M12 18V8H14V18H12Z" fill="#727272"/>
<path d="M12 18V8H14V18H12Z" stroke="#727272" stroke-width="0.224685" stroke-miterlimit="10"/>
<path d="M25.0001 18.9999C25.0001 19.6307 25.2777 19.5794 25.0001 19.9999C24.7225 20.4205 24.4332 20.7589 24.0001 20.9999C23.5669 21.241 22.541 21.9021 22.0001 21.9999C21.4573 22.0996 20.518 21.9999 20.0001 21.9999C19.422 21.9999 19.5711 22.0869 19.0001 21.9999C18.4273 21.913 17.4951 21.359 17.0001 20.9999C16.6395 20.7408 16.1981 20.3462 16.0001 19.9999C15.8021 19.6537 16.0001 19.4585 16.0001 18.9999C16.0001 18.5794 15.8074 18.3516 16.0001 17.9999C16.1927 17.6483 16.6394 17.1866 17.0001 16.9999C16.6996 16.8277 16.1627 16.3027 16.0001 15.9999C15.8375 15.6972 16.0001 15.3227 16.0001 14.9999C16.0001 14.1716 16.2523 14.4712 17.0001 13.9999C16.7101 13.7027 17.168 12.397 17.0001 11.9999C16.8304 11.6048 16.0001 11.4947 16.0001 10.9999C16.0001 10.4307 16.795 10.4458 17.0001 9.99995C17.2051 9.55396 17.65 9.29723 18.0001 8.99995C18.3501 8.70262 18.5369 8.15402 19.0001 7.99995C19.4633 7.84587 19.4698 7.99995 20.0001 7.99995C20.3854 7.99995 20.6394 7.89482 21.0001 7.99995C21.3607 8.10508 21.6853 7.8151 22.0001 7.99995C22.2051 7.57943 22.6625 7.19209 23.0001 6.99995C23.3378 6.8078 23.6024 6.99995 24.0001 6.99995C24.0726 6.99995 24.8675 6.99995 25.0001 6.99995C25.1327 6.99995 24.9276 6.97636 25.0001 6.99995V8.99995V8.99995C24.7349 8.99995 24.2104 8.91292 24.0001 8.99995C23.7897 9.08693 24.0708 8.76605 24.0001 8.99995C24.3253 9.54374 24.0001 10.3818 24.0001 10.9999C24.0001 11.5564 24.2105 12.5685 24.0001 12.9999C23.7897 13.4332 23.3484 13.7045 23.0001 13.9999C22.65 14.2972 22.4633 13.8404 22.0001 13.9999C21.5352 14.1612 20.5057 14.9999 20.0001 14.9999C19.4698 14.9999 19.4828 14.1722 19.0001 13.9999C18.8923 14.0616 18.1026 14.884 18.0001 14.9999C17.8976 15.1178 18.0001 14.8404 18.0001 14.9999C18.0001 15.2846 18.7773 15.9075 19.0001 15.9999C19.2228 16.0924 18.7579 15.9999 19.0001 15.9999H21.0001C21.2282 15.9999 21.7348 15.9945 22.0001 15.9999C22.2652 16.0072 21.7296 15.9565 22.0001 15.9999C22.2706 16.0435 22.7402 15.9147 23.0001 15.9999C23.2599 16.0869 23.7827 15.8404 24.0001 15.9999C24.4102 16.2845 24.8251 16.6066 25.0001 16.9999C25.1699 17.4024 25.0001 18.5305 25.0001 18.9999ZM23.0001 18.9999C23.0001 18.7027 23.1575 18.1595 23.0001 17.9999C22.8428 17.8386 22.2228 18.0743 22.0001 17.9999C21.7773 17.9256 21.2582 18.0109 21.0001 17.9999C20.7402 17.9873 21.2176 17.9999 21.0001 17.9999H19.0001C18.758 18.0743 18.1627 17.7969 18.0001 17.9999C17.8375 18.2048 18.0001 18.6918 18.0001 18.9999C18.0001 19.3082 17.8375 19.8259 18.0001 19.9999C18.1627 20.1721 18.758 19.9076 19.0001 19.9999C19.2405 20.0924 19.7225 19.9746 20.0001 19.9999C20.2777 20.0253 19.7844 19.9999 20.0001 19.9999C20.2282 19.9999 20.7101 20.0181 21.0001 19.9999C21.29 19.9819 21.7473 20.0869 22.0001 19.9999C22.253 19.9129 22.8251 20.1794 23.0001 19.9999C23.1733 19.8187 23.0001 19.3208 23.0001 18.9999ZM22.0001 10.9999C22.0001 10.4815 21.2953 10.3408 21.0001 9.99995C20.7048 9.65921 20.5181 8.99995 20.0001 8.99995C19.4821 8.99995 19.2954 9.66107 19.0001 9.99995C18.7049 10.3389 19.0001 10.4797 19.0001 10.9999C19.0001 11.5184 18.7032 11.6664 19.0001 11.9999C19.2954 12.3334 19.4821 12.9999 20.0001 12.9999C20.5181 12.9999 20.7048 12.3334 21.0001 11.9999C21.297 11.6664 22.0001 11.5202 22.0001 10.9999Z" fill="#727272"/>
<path d="M25.0001 18.9999C25.0001 19.6307 25.2777 19.5794 25.0001 19.9999C24.7225 20.4205 24.4332 20.7589 24.0001 20.9999C23.5669 21.241 22.541 21.9021 22.0001 21.9999C21.4573 22.0996 20.518 21.9999 20.0001 21.9999C19.422 21.9999 19.5711 22.0869 19.0001 21.9999C18.4273 21.913 17.4951 21.359 17.0001 20.9999C16.6395 20.7408 16.1981 20.3462 16.0001 19.9999C15.8021 19.6537 16.0001 19.4585 16.0001 18.9999C16.0001 18.5794 15.8074 18.3516 16.0001 17.9999C16.1927 17.6483 16.6394 17.1866 17.0001 16.9999C16.6996 16.8277 16.1627 16.3027 16.0001 15.9999C15.8375 15.6972 16.0001 15.3227 16.0001 14.9999C16.0001 14.1716 16.2523 14.4712 17.0001 13.9999C16.7101 13.7027 17.168 12.397 17.0001 11.9999C16.8304 11.6048 16.0001 11.4947 16.0001 10.9999C16.0001 10.4307 16.795 10.4458 17.0001 9.99995C17.2051 9.55396 17.65 9.29723 18.0001 8.99995C18.3501 8.70262 18.5369 8.15402 19.0001 7.99995C19.4633 7.84587 19.4698 7.99995 20.0001 7.99995C20.3854 7.99995 20.6394 7.89482 21.0001 7.99995C21.3607 8.10508 21.6853 7.8151 22.0001 7.99995C22.2051 7.57943 22.6625 7.19209 23.0001 6.99995C23.3378 6.8078 23.6024 6.99995 24.0001 6.99995C24.0726 6.99995 24.8675 6.99995 25.0001 6.99995C25.1327 6.99995 24.9276 6.97636 25.0001 6.99995V8.99995V8.99995C24.7349 8.99995 24.2104 8.91292 24.0001 8.99995C23.7897 9.08693 24.0708 8.76605 24.0001 8.99995C24.3253 9.54374 24.0001 10.3818 24.0001 10.9999C24.0001 11.5564 24.2105 12.5685 24.0001 12.9999C23.7897 13.4332 23.3484 13.7045 23.0001 13.9999C22.65 14.2972 22.4633 13.8404 22.0001 13.9999C21.5352 14.1612 20.5057 14.9999 20.0001 14.9999C19.4698 14.9999 19.4828 14.1722 19.0001 13.9999C18.8923 14.0616 18.1026 14.884 18.0001 14.9999C17.8976 15.1178 18.0001 14.8404 18.0001 14.9999C18.0001 15.2846 18.7773 15.9075 19.0001 15.9999C19.2228 16.0924 18.7579 15.9999 19.0001 15.9999H21.0001C21.2282 15.9999 21.7348 15.9945 22.0001 15.9999C22.2652 16.0072 21.7296 15.9565 22.0001 15.9999C22.2706 16.0435 22.7402 15.9147 23.0001 15.9999C23.2599 16.0869 23.7827 15.8404 24.0001 15.9999C24.4102 16.2845 24.8251 16.6066 25.0001 16.9999C25.1699 17.4024 25.0001 18.5305 25.0001 18.9999ZM23.0001 18.9999C23.0001 18.7027 23.1575 18.1595 23.0001 17.9999C22.8428 17.8386 22.2228 18.0743 22.0001 17.9999C21.7773 17.9256 21.2582 18.0109 21.0001 17.9999C20.7402 17.9873 21.2176 17.9999 21.0001 17.9999H19.0001C18.758 18.0743 18.1627 17.7969 18.0001 17.9999C17.8375 18.2048 18.0001 18.6918 18.0001 18.9999C18.0001 19.3082 17.8375 19.8259 18.0001 19.9999C18.1627 20.1721 18.758 19.9076 19.0001 19.9999C19.2405 20.0924 19.7225 19.9746 20.0001 19.9999C20.2777 20.0253 19.7844 19.9999 20.0001 19.9999C20.2282 19.9999 20.7101 20.0181 21.0001 19.9999C21.29 19.9819 21.7473 20.0869 22.0001 19.9999C22.253 19.9129 22.8251 20.1794 23.0001 19.9999C23.1733 19.8187 23.0001 19.3208 23.0001 18.9999ZM22.0001 10.9999C22.0001 10.4815 21.2953 10.3408 21.0001 9.99995C20.7048 9.65921 20.5181 8.99995 20.0001 8.99995C19.4821 8.99995 19.2954 9.66107 19.0001 9.99995C18.7049 10.3389 19.0001 10.4797 19.0001 10.9999C19.0001 11.5184 18.7032 11.6664 19.0001 11.9999C19.2954 12.3334 19.4821 12.9999 20.0001 12.9999C20.5181 12.9999 20.7048 12.3334 21.0001 11.9999C21.297 11.6664 22.0001 11.5202 22.0001 10.9999Z" stroke="#727272" stroke-width="0.224685" stroke-miterlimit="10"/>
<path d="M39 18.0001V12.0001C39 11.4002 38.21 11.3322 38 11.0001C37.7919 10.6699 37.5945 10.0001 37 10.0001C36.6581 10.0001 36.2397 9.84414 36 10.0001C35.7603 10.1561 36.1579 10.7451 36 11.0001C35.8421 11.2569 35.0761 11.6883 35 12.0001C34.9239 12.3138 35 12.6993 35 13.0001V18.0001H33V12.0001C33 11.4002 33.2099 11.3322 33 11.0001C32.7919 10.6699 31.5945 10.0001 31 10.0001C30.6581 10.0001 30.2396 9.84414 30 10.0001C29.7603 10.1561 30.1635 10.7451 30 11.0001C29.8347 11.2569 29.0762 11.6883 29 12.0001C28.9239 12.3138 29 12.6993 29 13.0001V18.0001H27V8.00009H29V10.0001C29.2787 9.55061 29.5318 8.28809 30 8.00009C30.4682 7.71204 31.3423 8.00009 32 8.00009C32.6966 8.00009 33.5318 7.71942 34 8.00009C34.4682 8.28076 34.7473 9.5011 35 10.0001C35.2916 9.48825 35.4873 8.27523 36 8.00009C36.5127 7.7249 37.3293 8.00009 38 8.00009C39.0645 8.00009 39.4612 8.36718 40 9.00009C40.5388 9.63302 41 9.98557 41 11.0001V18.0001H39V18.0001Z" fill="#727272"/>
<path d="M39 18.0001V12.0001C39 11.4002 38.21 11.3322 38 11.0001C37.7919 10.6699 37.5945 10.0001 37 10.0001C36.6581 10.0001 36.2397 9.84414 36 10.0001C35.7603 10.1561 36.1579 10.7451 36 11.0001C35.8421 11.2569 35.0761 11.6883 35 12.0001C34.9239 12.3138 35 12.6993 35 13.0001V18.0001H33V12.0001C33 11.4002 33.2099 11.3322 33 11.0001C32.7919 10.6699 31.5945 10.0001 31 10.0001C30.6581 10.0001 30.2396 9.84414 30 10.0001C29.7603 10.1561 30.1635 10.7451 30 11.0001C29.8347 11.2569 29.0762 11.6883 29 12.0001C28.9239 12.3138 29 12.6993 29 13.0001V18.0001H27V8.00009H29V10.0001C29.2787 9.55061 29.5318 8.28809 30 8.00009C30.4682 7.71204 31.3423 8.00009 32 8.00009C32.6966 8.00009 33.5318 7.71942 34 8.00009C34.4682 8.28076 34.7473 9.5011 35 10.0001C35.2916 9.48825 35.4873 8.27523 36 8.00009C36.5127 7.7249 37.3293 8.00009 38 8.00009C39.0645 8.00009 39.4612 8.36718 40 9.00009C40.5388 9.63302 41 9.98557 41 11.0001V18.0001H39V18.0001Z" stroke="#727272" stroke-width="0.224685" stroke-miterlimit="10"/>
<path d="M50.9998 13C50.9869 13.0859 50.9998 12.9264 50.9998 13V14H43.9998C43.9998 14.3672 44.8797 14.6703 44.9998 15C45.12 15.3296 44.7632 15.7797 44.9998 16C45.1774 16.1594 45.7668 15.8835 45.9998 16C46.2328 16.1164 46.6707 16 46.9998 16C47.3401 16 46.7798 16.0663 46.9998 16C47.2198 15.9337 47.8241 16.1701 47.9998 16C48.2253 15.7796 47.9111 15.3171 47.9998 15H50.9998C50.974 15.2812 50.1699 15.6631 49.9998 16C49.8296 16.3367 50.1884 16.7796 49.9998 17C49.5837 17.4765 48.5805 17.7922 47.9998 18C47.4191 18.2077 47.6286 18 46.9998 18C46.3175 18 45.4972 18.2131 44.9998 18C44.5005 17.7868 44.3899 17.3528 43.9998 17C43.5079 16.536 42.2587 15.6466 41.9998 15C41.741 14.3533 41.9998 13.7811 41.9998 13C41.9998 12.2315 41.7668 11.6521 41.9998 11C42.2328 10.3461 42.5227 9.46572 42.9998 8.99996C43.3659 8.63447 44.4765 8.22026 44.9998 7.99996C45.5232 7.77959 46.3175 7.99996 46.9998 7.99996C47.7321 7.99996 48.3674 7.71331 48.9998 7.99996C49.6285 8.28661 49.5948 9.40164 49.9998 9.99996C50.3641 10.5249 50.8981 10.4572 50.9998 11C51.0978 11.5392 50.9998 12.4016 50.9998 13ZM48.9998 12C48.985 11.3049 48.3899 10.4138 47.9998 9.99996C47.8371 9.82978 47.2458 10.0985 46.9998 9.99996C46.7539 9.9033 47.3419 9.99996 46.9998 9.99996C46.6355 9.99996 46.2791 9.86562 45.9998 9.99996C45.7243 10.1343 45.1755 10.7796 44.9998 11C44.8222 11.2078 45.0756 10.7689 44.9998 11C44.9258 11.2311 44.0109 11.6828 43.9998 12H48.9998V12Z" fill="#727272"/>
<path d="M50.9998 13C50.9869 13.0859 50.9998 12.9264 50.9998 13V14H43.9998C43.9998 14.3672 44.8797 14.6703 44.9998 15C45.12 15.3296 44.7632 15.7797 44.9998 16C45.1774 16.1594 45.7668 15.8835 45.9998 16C46.2328 16.1164 46.6707 16 46.9998 16C47.3401 16 46.7798 16.0663 46.9998 16C47.2198 15.9337 47.8241 16.1701 47.9998 16C48.2253 15.7796 47.9111 15.3171 47.9998 15H50.9998C50.974 15.2812 50.1699 15.6631 49.9998 16C49.8296 16.3367 50.1884 16.7796 49.9998 17C49.5837 17.4765 48.5805 17.7922 47.9998 18C47.4191 18.2077 47.6286 18 46.9998 18C46.3175 18 45.4972 18.2131 44.9998 18C44.5005 17.7868 44.3899 17.3528 43.9998 17C43.5079 16.536 42.2587 15.6466 41.9998 15C41.741 14.3533 41.9998 13.7811 41.9998 13C41.9998 12.2315 41.7668 11.6521 41.9998 11C42.2328 10.3461 42.5227 9.46572 42.9998 8.99996C43.3659 8.63447 44.4765 8.22026 44.9998 7.99996C45.5232 7.77959 46.3175 7.99996 46.9998 7.99996C47.7321 7.99996 48.3674 7.71331 48.9998 7.99996C49.6285 8.28661 49.5948 9.40164 49.9998 9.99996C50.3641 10.5249 50.8981 10.4572 50.9998 11C51.0978 11.5392 50.9998 12.4016 50.9998 13ZM48.9998 12C48.985 11.3049 48.3899 10.4138 47.9998 9.99996C47.8371 9.82978 47.2458 10.0985 46.9998 9.99996C46.7539 9.9033 47.3419 9.99996 46.9998 9.99996C46.6355 9.99996 46.2791 9.86562 45.9998 9.99996C45.7243 10.1343 45.1755 10.7796 44.9998 11C44.8222 11.2078 45.0756 10.7689 44.9998 11C44.9258 11.2311 44.0109 11.6828 43.9998 12H48.9998V12Z" stroke="#727272" stroke-width="0.224685" stroke-miterlimit="10"/>
<path d="M59 18V12C59 11.4258 58.2151 11.3248 58 11C57.7828 10.6753 57.602 10 57 10C56.6026 10 56.2647 10.769 56 11C55.7349 11.2313 56.1571 10.6368 56 11C55.843 11.3633 55.0232 12.5194 55 13C54.9752 13.4825 55 13.5873 55 14V18H53V8.00004H55V10C55.2772 9.48814 55.4882 8.24404 56 8.00004C56.5118 7.75605 57.4597 8.00004 58 8.00004C58.5065 8.00004 58.61 7.82577 59 8.00004C59.3901 8.17617 59.728 8.69365 60 9.00004C60.2699 9.30638 60.8555 9.56887 61 10C61.145 10.4311 61 10.4992 61 11V18H59V18Z" fill="#727272"/>
<path d="M59 18V12C59 11.4258 58.2151 11.3248 58 11C57.7828 10.6753 57.602 10 57 10C56.6026 10 56.2647 10.769 56 11C55.7349 11.2313 56.1571 10.6368 56 11C55.843 11.3633 55.0232 12.5194 55 13C54.9752 13.4825 55 13.5873 55 14V18H53V8.00004H55V10C55.2772 9.48814 55.4882 8.24404 56 8.00004C56.5118 7.75605 57.4597 8.00004 58 8.00004C58.5065 8.00004 58.61 7.82577 59 8.00004C59.3901 8.17617 59.728 8.69365 60 9.00004C60.2699 9.30638 60.8555 9.56887 61 10C61.145 10.4311 61 10.4992 61 11V18H59V18Z" stroke="#727272" stroke-width="0.224685" stroke-miterlimit="10"/>
<path d="M69 18C68.2983 18.175 67.6881 18 67 18C65.9728 18 65.5071 17.5343 65 17C64.493 16.4658 64 15.9415 64 15V10H62V8H64V6L66 5V8H69V10H66V15C66 15.3777 66.8167 15.8305 67 16C67.1827 16.1695 66.6113 16 67 16C67.2589 16 67.773 16.0129 68 16C68.2266 15.9871 68.6608 16.0387 69 16V18V18Z" fill="#727272"/>
<path d="M69 18C68.2983 18.175 67.6881 18 67 18C65.9728 18 65.5071 17.5343 65 17C64.493 16.4658 64 15.9415 64 15V10H62V8H64V6L66 5V8H69V10H66V15C66 15.3777 66.8167 15.8305 67 16C67.1827 16.1695 66.6113 16 67 16C67.2589 16 67.773 16.0129 68 16C68.2266 15.9871 68.6608 16.0387 69 16V18V18Z" stroke="#727272" stroke-width="0.224685" stroke-miterlimit="10"/>
<path fill-rule="evenodd" clip-rule="evenodd" d="M15 6C15 5.19161 14.8629 4 14 4C13.1194 4 12 5.19161 12 6C12 6.84695 13.1194 7 14 7C14.8629 7 15 6.84695 15 6Z" fill="#727272"/>
</svg>
