<svg width="86" height="22" viewBox="0 0 86 22" fill="none" xmlns="http://www.w3.org/2000/svg">
<g clip-path="url(#clip0_218_831)">
<path fill-rule="evenodd" clip-rule="evenodd" d="M21 11C21 11.0939 21.0024 11.9067 21 12V12V21C21 21.4363 20.3602 22.2256 20 22L17 20C15.363 21.2123 13.1653 22 11 22C5.47713 22 1 16.7249 1 11C1 5.27515 5.47713 1 11 1C16.5228 1 21 5.27515 21 11ZM12 11V12L16 15V10L12 11ZM11 6L7 9L11 11L16 9L11 6ZM7 9V14L11 17V12L7 9Z" fill="#727272"/>
<path d="M79.9998 17L80.9998 5.99999C81.0069 5.90259 80.901 5.99999 80.9998 5.99999H81.9998C82.1104 5.99999 82.0085 5.89125 81.9998 5.99999V12L83.9998 8.99999C84.0351 8.96125 84.9465 8.99999 84.9998 8.99999H85.9998C86.1599 8.99999 86.1034 9.87873 85.9998 9.99999L82.9998 13L85.9998 17C86.0806 17.124 86.1489 17 85.9998 17H83.9998C83.9324 17 84.0336 17.0572 83.9998 17L81.9998 14C81.9614 13.9354 82.0744 14.0118 81.9998 14C81.8523 13.9767 82.0092 13.8527 81.9998 14V17C81.9935 17.0982 81.1002 17 80.9998 17H79.9998C79.89 17 79.992 17.1081 79.9998 17Z" fill="#727272"/>
<path d="M47 5.99998L46 17C45.9926 17.1084 45.8984 17 46 17H47C47.0927 17 46.9947 17.099 47 17C47.0814 15.47 47.9327 11.9949 48 11C48.0874 9.70672 50.0845 10.0962 50 11C49.9551 11.4803 49.121 15.188 49 17C48.9928 17.1082 49.8985 17 50 17H51C51.0937 17 50.996 17.1001 51 17C51.0797 15.0132 51 11.3506 51 11C51 10.5481 51.0784 9.32718 50 8.99998C49.4518 8.8337 48.3211 8.77682 48 8.99998C47.8583 9.09851 47.9895 9.1804 48 8.99998V5.99998C48.0062 5.89236 48.1008 5.99998 48 5.99998H47C46.9083 5.99998 47.0067 5.90231 47 5.99998Z" fill="#727272"/>
<path d="M25.9995 17.0001H26.9995C27.0911 17.0001 26.9936 17.0984 26.9995 17.0001C27.014 16.7606 26.982 16.292 26.9995 16.0001C27.1033 14.2751 27.9463 11.6786 27.9995 11.0001C28.0864 9.89388 30.0274 9.81595 29.9995 11.0001C29.9774 11.9444 30.0848 15.4028 29.9995 17.0001C29.9938 17.1074 29.8996 17.0001 29.9995 17.0001V17.0001C30.0912 17.0001 30.9937 17.0986 30.9995 17.0001C31.0952 15.3895 30.9326 11.9012 30.9995 11.0001C31.0864 9.83156 29.9114 9.04688 28.9995 9.00011C28.592 8.97921 28.2272 8.82007 27.9995 9.00011C27.8636 9.10749 27.9911 9.18138 27.9995 9.00011V6.00011C28.0045 5.8933 28.0989 6.00011 27.9995 6.00011H26.9995C26.9084 6.00011 27.006 5.90221 26.9995 6.00011L25.9995 17.0001C25.9924 17.1083 25.8988 17.0001 25.9995 17.0001Z" fill="#727272"/>
<path d="M57 18.0002V19.0002C56.8654 19.2084 57.1787 19.1575 57 19.0002L53 16.0002C52.8949 15.9077 52.995 16.1531 53 16.0002V9.00016C53.0038 8.88303 52.9291 9.08358 53 9.00016L55 7.00016C55.2281 6.73159 55.675 7.00016 56 7.00016V7.00016C56.3412 7.00016 56.7701 6.70756 57 7.00016L58 9.00016C58.0732 9.09323 58.006 8.87437 58 9.00016V15.0002C57.996 15.0833 58.0396 14.9307 58 15.0002L57 16.0002C56.8691 16.2296 57.1857 16.1712 57 16.0002V16.0002C56.8157 15.8304 56.8404 15.2008 57 15.0002V15.0002C57.0642 14.9195 56.9952 15.1098 57 15.0002V10.0002C57.0053 9.87858 57.069 9.09193 57 9.00016L56 8.00016C55.9232 7.89807 56.1168 8.00016 56 8.00016V8.00016C55.8892 8.00016 55.0764 7.90693 55 8.00016L54 9.00016C53.9311 9.08421 54.0027 9.88428 54 10.0002V15.0002C53.9964 15.1556 53.8912 14.9092 54 15.0002L57 18.0002C57.1838 18.1537 57.1359 17.7899 57 18.0002Z" fill="#727272"/>
<path d="M63 8.99977V8.99977C62.882 8.99977 62.0094 8.8818 62 8.99977V13.9998C61.9759 14.3001 61.8215 13.7575 62 13.9998C62.4806 14.6526 63.236 15.9998 64 15.9998C64.775 15.9998 65.5321 15.5621 66 14.9998C66.1608 14.8065 66.9795 14.2507 67 13.9998V8.99977C67.0108 8.8675 67.1323 8.99977 67 8.99977H66C65.8809 8.99977 66.008 8.8806 66 8.99977V13.9998C65.9871 14.189 65.1434 13.8761 65 13.9998V14.9998C64.6705 15.2838 64.3161 15.2988 64 14.9998V13.9998C63.8437 13.8518 62.9821 14.2146 63 13.9998L64 8.99977C64.011 8.86736 63.1325 8.99977 63 8.99977Z" fill="#727272"/>
<path d="M33.0003 15.9999H32.0003C31.8712 15.9999 31.9521 16.111 32.0003 15.9999L35.0003 8.99988C35.0281 8.93596 34.926 8.99988 35.0003 8.99988H36.0003C36.0851 8.99988 35.9812 8.92325 36.0003 8.99988L38.0003 15.9999C38.0268 16.1058 38.1176 15.9999 38.0003 15.9999H37.0003C36.916 15.9999 37.0199 16.0759 37.0003 15.9999L36.0003 10.9999C35.9585 10.8375 35.0633 10.8435 35.0003 10.9999L33.0003 15.9999C32.9738 16.066 33.0764 15.9999 33.0003 15.9999Z" fill="#727272"/>
<path d="M38.9997 16.0001V15.0001C39.0513 14.9106 39.9172 14.9436 39.9997 15.0001C40.3949 15.2707 40.5871 16.0435 40.9997 16.0001C41.5878 15.9383 43.0898 14.5097 41.9997 14.0001C41.8728 13.9408 42.1523 14.0646 41.9997 14.0001C40.8788 13.5256 38.3685 12.9575 38.9997 11.0001C39.6912 8.85601 43.1091 9.23881 43.9997 10.0001C44.0567 10.0488 44.0337 9.93087 43.9997 10.0001C43.8855 10.2324 44.1075 9.84954 43.9997 10.0001C43.9843 10.0215 44.0137 10.9803 43.9997 11.0001C43.9278 11.1016 43.1012 11.0663 42.9997 11.0001C42.6489 10.7713 42.6239 9.90976 41.9997 10.0001C41.0387 10.139 40.3215 11.2434 41.9997 12.0001C43.6779 12.7569 43.9177 14.2705 42.9997 16.0001C42.2408 17.43 41.7565 16.99 40.9997 17.0001C40.9575 17.0006 41.0422 16.9993 40.9997 17.0001C40.4153 17.0113 39.4611 16.3569 38.9997 16.0001C38.9278 15.9445 38.953 16.081 38.9997 16.0001Z" fill="#727272"/>
<path d="M68.0001 15.9998H69.0001C69.0748 15.9998 68.9745 16.067 69.0001 15.9998L71.0001 10.9998C71.0609 10.8407 70.96 10.8348 71.0001 10.9998L73.0001 15.9998C73.0189 16.0769 72.9175 15.9998 73.0001 15.9998H74.0001C74.1162 15.9998 74.029 16.1076 74.0001 15.9998L72.0001 8.99976C71.98 8.92449 72.0813 8.99976 72.0001 8.99976H71.0001C70.9272 8.99976 71.027 8.93476 71.0001 8.99976L68.0001 15.9998C67.954 16.1116 67.8746 15.9998 68.0001 15.9998Z" fill="#727272"/>
<path d="M75.9997 14.0002V14.0002C75.9383 14.7624 76.0438 15.4021 75.9997 16.0002C75.9925 16.0997 75.8986 16.0002 75.9997 16.0002H76.9997C77.0944 16.0002 76.9968 16.0935 76.9997 16.0002C77.0452 14.3997 77.8523 11.8295 77.9997 11.0002C78.0965 10.4578 79.3257 9.99416 79.9997 10.0002C80.1045 10.0012 79.9997 10.1037 79.9997 10.0002V9.00023C79.9997 8.90371 80.0973 8.99887 79.9997 9.00023C79.7353 9.00387 79.4448 9.00915 78.9997 9.00023C78.2903 8.98588 76.0864 9.66894 75.9997 11.0002C75.9622 11.575 76.0792 13.012 75.9997 14.0002Z" fill="#727272"/>
</g>
<defs>
<clipPath id="clip0_218_831">
<rect width="86" height="21" fill="white" transform="translate(0 1)"/>
</clipPath>
</defs>
</svg>
