<svg width="86" height="22" viewBox="0 0 86 22" fill="none" xmlns="http://www.w3.org/2000/svg">
<g clip-path="url(#clip0_218_809)">
<mask id="mask0_218_809" style="mask-type:alpha" maskUnits="userSpaceOnUse" x="6" y="0" width="10" height="22">
<path d="M6 0H16V22H6V0Z" fill="white"/>
</mask>
<g mask="url(#mask0_218_809)">
<path fill-rule="evenodd" clip-rule="evenodd" d="M11 0C8.24509 0 6 2.26351 6 5C6 6.15116 6.26246 7.11388 7 8L8 9L13 15V15C13.4036 15.4852 14 16.3692 14 17C14 18.4772 12.4876 20 11 20C9.51244 20 8 18.4772 8 17V17C7.28532 17.3448 6.78924 16.9308 6 17C6.13173 19.6205 8.32942 22 11 22C13.7552 22 16 19.7362 16 17C16 15.8486 15.746 14.8967 15 14L14 13L9 7V7C8.60006 6.51652 8 5.62782 8 5C8 3.52277 9.51244 2 11 2C12.4876 2 14 3.52277 14 5V5C14.6909 4.65907 15.1555 5.05472 16 5C15.8588 2.38849 13.6641 0 11 0Z" fill="#727272"/>
</g>
<path fill-rule="evenodd" clip-rule="evenodd" d="M25 15C25.3283 14.847 25 14.626 25 14V10V7C25 6.6105 25.2835 6.19475 25 6C25 6 26.7163 6 28 6C27.5971 6.18076 28 6.374 28 7V14C28 15.099 28 15 28 15C28 15 25.5672 15.0416 25 15Z" fill="#727272"/>
<path fill-rule="evenodd" clip-rule="evenodd" d="M33.0002 15C33.2641 14.8844 34.0002 14.346 34.0002 14V9.99999C34.0002 9.07704 32.8476 8.99999 32.0002 8.99999C31.3198 8.99999 31.5002 9.56753 31.0002 9.99999V13C31.0002 13.7497 31.5557 14.8127 32.0002 15C31.6391 15 28.9725 15.072 29.0002 15C29.3614 14.8844 29.0002 14.3174 29.0002 14V8.99999C29.0002 8.26462 29.2918 8.1588 29.0002 7.99999C29.6527 7.88466 31.0002 7.99999 31.0002 7.99999V8.99999C31.7226 8.42318 33.0419 7.99999 34.0002 7.99999C35.3059 7.99999 36.0002 8.71667 36.0002 9.99999C36.0002 10.7929 36.0002 12.2211 36.0002 13C36.0002 14.2111 35.5557 14.8412 36.0002 15C35.4586 15 32.9725 15.1008 33.0002 15Z" fill="#727272"/>
<path fill-rule="evenodd" clip-rule="evenodd" d="M41 6.00009C40 6.00009 40 7.14339 40 9.00009H42H41H40V13.0001C40 14.5268 40.4156 14.6837 41 15.0001H38C38.5692 14.8073 38 13.0001 38 13.0001V9.00009C38 9.00009 37.3693 9.01397 37 9.00009C37.4924 8.79393 37.9229 8.26162 38 8.00009V8.00009C37.8156 5.84037 38.9692 5.00009 41 5.00009C41.1692 5.00009 41.8615 4.97242 42 5.00009V6.00009C42 6.00009 41.7077 6.00009 41 6.00009Z" fill="#727272"/>
<path fill-rule="evenodd" clip-rule="evenodd" d="M44.0001 15.0002C43.237 15.0002 42.7238 15.203 42.0001 15.0002V13.0002C42.2764 13.8244 43.9342 14.0002 45.0001 14.0002C46.1318 14.0002 46.0001 14.0406 46.0001 13.0002C46.0001 10.6489 42.0395 12.4056 42.0001 9.00019C41.9869 7.17589 43.4607 6.00019 45.0001 6.00019C45.6582 6.00019 47.3947 5.8108 48.0001 6.00019C48.0001 6.00019 48.0001 7.41906 48.0001 8.00019C47.7499 7.41906 46.0262 7.00019 45.0001 7.00019C44.1051 7.00019 44.0001 7.16215 44.0001 8.00019C44.0001 9.95948 47.9606 8.21634 48.0001 12.0002C48.0133 14.0406 45.8686 15.0002 44.0001 15.0002Z" fill="#727272"/>
<path fill-rule="evenodd" clip-rule="evenodd" d="M53 15C51.5533 15 51 14.3217 51 13V9H50C50 9 51.3682 7.78488 52 7H53V8H55V9H53V13C53 13.964 52.8345 14.0549 54 14C54.3653 13.9862 54.8456 14.193 55 14V14C54.6207 14.413 53.7024 15 53 15Z" fill="#727272"/>
<path fill-rule="evenodd" clip-rule="evenodd" d="M59 9.00011C57.759 8.97189 57 9.81229 57 11.0001C57 12.4283 57.467 13.9577 59 14.0001C60.1241 14.0286 61 13.117 61 12.0001C61 10.6144 60.6496 9.04251 59 9.00011ZM59 15.0001C56.4307 15.0001 55 12.9799 55 11.0001C55 8.96404 56.4599 7.97168 59 8.00011C61.6715 8.04259 63 8.99225 63 11.0001C63 13.0081 61.5256 15.0001 59 15.0001Z" fill="#727272"/>
<path fill-rule="evenodd" clip-rule="evenodd" d="M68.0002 15C68.2643 14.8844 69.0002 14.346 69.0002 14V9.99999C69.0002 9.07704 67.8476 8.99999 67.0002 8.99999C66.3198 8.99999 66.5003 9.56753 66.0002 9.99999V13C66.0002 13.7497 66.5557 14.8127 67.0002 15C66.639 15 63.9725 15.072 64.0002 15C64.3613 14.8844 64.0002 14.3174 64.0002 14V8.99999C64.0002 8.26462 64.2918 8.1588 64.0002 7.99999C64.6529 7.88466 66.0002 7.99999 66.0002 7.99999V8.99999C66.7225 8.42318 68.042 7.99999 69.0002 7.99999C70.3058 7.99999 71.0002 8.71667 71.0002 9.99999C71.0002 10.7929 70.0002 12.2211 70.0002 13C70.0002 14.2111 70.5556 14.8412 71.0002 15C70.4584 15 67.9725 15.1008 68.0002 15Z" fill="#727272"/>
<path fill-rule="evenodd" clip-rule="evenodd" d="M77 9.0001C75.8313 9.0001 75 9.02223 75 10.0001H76C76.3655 9.98608 77.8979 10.4331 78 10.0001C78.0147 9.93009 78 10.0699 78 10.0001C78 9.3295 77.8472 9.0001 77 9.0001ZM75 11.0001C75.0876 11.084 75 10.8602 75 11.0001C75 12.6486 75.882 14.0144 78 14.0001C78.9057 13.9865 79.5619 14.2374 80 14.0001V14.0001C79.3133 14.2933 77.9934 15.0001 77 15.0001C74.3412 15.0136 73 14.1795 73 12.0001C73 10.184 74.2537 7.95817 77 8.0001C79.5271 8.04199 80.044 9.42148 80 11.0001H75Z" fill="#727272"/>
<path fill-rule="evenodd" clip-rule="evenodd" d="M83 15C82.3515 15 81.6354 15.1542 81 15C81 15 81.0407 13.4342 81 13C81.2571 13.8124 82.2433 14 83 14C83.7843 14 84 13.7699 84 13C84 11.46 81 12.7163 81 10C81 8.4461 82.8374 8.00004 84 8.00004C84.4589 8.00004 85.5679 7.88789 86 8.00004C86 8.00004 86.0407 9.60822 86 10C85.7567 9.34211 84.716 9.00004 84 9.00004C83.3784 9.00004 83 9.37005 83 10C83 11.456 85.9593 10.2702 86 13C86.0269 14.6802 84.4059 15 83 15Z" fill="#727272"/>
<mask id="mask1_218_809" style="mask-type:alpha" maskUnits="userSpaceOnUse" x="0" y="6" width="10" height="11">
<path d="M0 6H10V17H0V6Z" fill="white"/>
</mask>
<g mask="url(#mask1_218_809)">
<path fill-rule="evenodd" clip-rule="evenodd" d="M5 17C6.30488 16.9825 8.11882 15.9351 9 15C9.44153 14.5317 9.62352 14.495 10 14L9 12C8.57717 12.5795 7.49092 13.479 7 14C6.59657 14.4281 5.85641 15 5 15C3.34514 15 2 12.756 2 11C2 9.24397 3.34514 8 5 8C5.18425 8 5.82501 7.96821 6 8C5.59248 7.27851 5.08577 6.83468 5 6C2.23724 6.11754 0 8.03998 0 11C0 14.0129 2.16828 16.965 5 17V17Z" fill="#727272"/>
</g>
<path fill-rule="evenodd" clip-rule="evenodd" d="M16 6V6H15C13.7197 6.08259 12.9077 7.03635 12 8C11.5582 8.46879 11.3763 8.50491 11 9L12 11C12.4224 10.4207 13.5089 9.52163 14 9C14.5909 8.37293 15.0962 8 16 8C17.6549 8 19 9.24315 19 11C19 12.7568 17.6549 15 16 15C15.8201 15 15.1809 15.0364 15 15C15.4116 15.7225 15.9121 16.1618 16 17C18.7604 16.8797 21 13.9596 21 11C21 8.0505 18.7472 6.13544 16 6Z" fill="#727272"/>
</g>
<defs>
<clipPath id="clip0_218_809">
<rect width="86" height="22" fill="white"/>
</clipPath>
</defs>
</svg>
