<svg width="78" height="26" viewBox="0 0 78 26" fill="none" xmlns="http://www.w3.org/2000/svg">
<g clip-path="url(#clip0_218_605)">
<mask id="mask0_218_605" style="mask-type:luminance" maskUnits="userSpaceOnUse" x="0" y="1" width="78" height="25">
<path d="M78 1H0V26H78V1Z" fill="white"/>
</mask>
<g mask="url(#mask0_218_605)">
<path d="M6 6.99983H7V20.9998C7 24.0689 4.46515 25.9998 0 25.9998V22.9998C1.91725 22.9998 3 22.6626 3 20.9998V6.99983H6ZM3 4.99983C2.79669 4.79838 3.11048 4.26582 3 3.99983C2.88952 3.73384 3 3.28837 3 2.99983C3 2.71128 2.88952 2.26582 3 1.99983C3.11048 1.73384 2.79669 2.20127 3 1.99983C3.19871 1.79372 3.73762 1.11182 4 0.999829C4.26162 0.887055 4.71537 0.999829 5 0.999829C5.28463 0.999829 5.73762 0.887833 6 0.999829C6.26238 1.11182 5.80129 1.79372 6 1.99983C6.20331 2.20127 6.88952 1.73384 7 1.99983C7.11048 2.26582 7 2.71128 7 2.99983C7 3.28837 7.11048 3.73384 7 3.99983C6.88952 4.26582 6.20331 4.79838 6 4.99983C5.80129 5.20593 6.26238 4.88783 6 4.99983C5.73762 5.11182 5.28463 4.99983 5 4.99983C4.71537 4.99983 4.26238 5.11182 4 4.99983C3.73762 4.88783 3.19871 5.20593 3 4.99983V4.99983Z" fill="#727272"/>
<path d="M19 7H23V20H19V18C18.3891 18.6778 17.8538 18.6343 17 19C16.1453 19.3658 14.9354 20.0159 14 20C10.9801 20 9 18.3544 9 15V7H13V13C13 15.2081 14.1513 17 16 17C17.8486 17 19 15.6101 19 13V7Z" fill="#727272"/>
<path d="M47 12V20H43V13C43 10.8638 42.686 9.99849 41 10C39.3667 10 37 11.4158 37 14V20H34V13C34 10.8638 32.6844 9.9985 31 10C29.3667 10 28 11.4159 28 14V20H24V7H28V9C29.3017 7.60936 31.1867 7 33 7C35.2969 7 36.3138 8.26113 37 10C38.405 8.25584 40.0354 7 42 7C45.0374 7 47 8.43992 47 12V12Z" fill="#727272"/>
<path d="M62 9.00002C63.2819 10.2257 64 11.8787 64 14C64 16.1213 63.2819 17.8023 62 19C60.7182 20.2258 58.975 21 57 21C55.2565 21 54.0775 20.124 53 19V26H49V7.00002H53V9.00002C54.0775 7.87762 55.2565 7.0008 57 7.00002C58.9742 6.99536 60.7182 7.79839 62 9.00002ZM60 14C60 11.6503 57.9742 10 56 10C54.0258 10 53 11.5734 53 14C53 16.4265 54.0516 18 56 18C57.9485 18 60 16.3497 60 14Z" fill="#727272"/>
<path d="M78 16V19H66V16H78Z" fill="#727272"/>
</g>
</g>
<defs>
<clipPath id="clip0_218_605">
<rect width="78" height="25" fill="white" transform="translate(0 1)"/>
</clipPath>
</defs>
</svg>
