<svg width="72" height="26" viewBox="0 0 72 26" fill="none" xmlns="http://www.w3.org/2000/svg">
<g clip-path="url(#clip0_218_670)">
<path d="M45 7H42C41.6313 7 41 7.63132 41 8V24C41 24.3686 41.6313 25 42 25H45C45.3687 25 46 24.3686 46 24V8C46 7.63132 45.3687 7 45 7Z" fill="#727272"/>
<path d="M56 11V24C56 24.3686 56.6312 25 57 25H60C60.3688 25 61 24.3686 61 24V13C61 12.3712 61.371 12 62 12H65C65.629 12 66 12.3712 66 13V24C66 24.3686 66.6313 25 67 25H70C70.3688 25 71 24.3686 71 24V11C71 8.6288 69.3721 7 67 7H60C57.6279 7 56 8.6288 56 11Z" fill="#727272"/>
<path d="M44 0C42.3443 0 41 1.34436 41 3C41 4.65564 42.3443 6 44 6C45.6557 6 47 4.65564 47 3C47 1.34436 45.6585 0 44 0Z" fill="#727272"/>
<path d="M53 1H50C49.6314 1 49 1.63131 49 2V24C49 24.3686 49.6314 25 50 25H53C53.3686 25 54 24.3686 54 24V2C54 1.63131 53.3686 1 53 1Z" fill="#727272"/>
<path d="M40 25L35 17C34.8562 16.7784 34.8662 16.2294 35 16L39 8C39.2726 7.54123 39.5198 7 39 7H35C34.7677 7 34.121 7.79668 34 8L31 13C30.8712 13.2164 31.2651 13 31 13C30.5959 13 30 12.4171 30 12V3C30 2.61942 29.3686 2 29 2H26C25.6315 2 25 2.61942 25 3V25C25 25.3806 25.6315 26 26 26H29C29.3686 26 30 25.3806 30 25V21C30 20.5829 30.5959 20 31 20C31.2523 20 30.8662 19.7993 31 20L35 26C35.1238 26.1902 34.7753 26 35 26H39C39.5326 26 40.2953 25.4563 40 25" fill="#727272"/>
<path d="M7.99991 15.0002L9.99991 12.0002C10.149 11.8414 10.8533 11.8414 10.9999 12.0002L12.9999 15.0002C13.2576 15.2746 13.7422 15.2746 13.9999 15.0002L15.9999 13.0002C16.2576 12.7258 16.2576 12.2746 15.9999 12.0002L11.9999 8.00017C11.2117 7.16075 9.7882 7.16075 8.99991 8.00017L4.99991 12.0002C4.74222 12.2746 4.74222 12.7258 4.99991 13.0002L6.99991 15.0002C7.25762 15.2746 7.74222 15.2746 7.99991 15.0002V15.0002Z" fill="#727272"/>
<path d="M18.9998 15.0001L17.9998 14.0001C17.7338 13.7376 17.2657 13.7376 16.9998 14.0001L14.9998 17.0001L10.9998 21.0001C10.8459 21.1519 10.151 21.1519 9.99977 21.0001L5.99977 17.0001L3.99977 14.0001C3.73382 13.7377 3.26573 13.7377 2.99977 14.0001L1.99977 15.0001C1.18627 15.803 1.18627 17.1973 1.99977 18.0001L8.99977 25.0001C9.81329 25.8028 11.1863 25.8028 11.9998 25.0001L18.9998 18.0001C19.8133 17.1973 19.8133 15.803 18.9998 15.0001V15.0001Z" fill="#727272"/>
</g>
<defs>
<clipPath id="clip0_218_670">
<rect width="72" height="26" fill="white"/>
</clipPath>
</defs>
</svg>
