<svg width="106" height="32" viewBox="0 0 106 32" fill="none" xmlns="http://www.w3.org/2000/svg">
<g clip-path="url(#clip0_218_881)">
<path d="M25 -4.82202e-05C24.0046 -0.580713 21.9954 -0.580713 21 -4.82202e-05L11 6.99995C10.0046 7.58061 9 8.83862 9 9.99995V22C9 23.1613 10.0046 24.4193 11 25L12 26C13.0645 25.5722 14.8288 25.5392 16 25L12 22C11.9095 21.9472 12 22.1056 12 22V12L22 18V22C22.9614 21.4787 24.0133 20.573 25 20V18L34 12V14C35.0592 13.2139 36.1131 11.7376 37 11V9.99995C37 8.96855 36.8055 7.60902 36 6.99995L32 4.99995V4.99995L25 -4.82202e-05Z" fill="#727272"/>
<path fill-rule="evenodd" clip-rule="evenodd" d="M37.0001 11.9999C36.1049 12.7304 35.0481 14.2303 34.0001 14.9999C31.4115 16.9007 28.311 19.0571 25.0001 20.9999C24.7883 21.1243 25.2109 20.8779 25.0001 20.9999C24.0149 21.5697 22.9597 22.4818 22.0001 22.9999C20.3294 23.9019 18.5504 24.2685 17.0001 24.9999C15.8487 25.5432 15.0587 26.5591 14.0001 26.9999C12.7518 27.5198 11.0855 27.6332 10.0001 27.9999C7.93321 28.6982 6.17759 28.9144 5.00005 28.9999C4.44464 29.0403 4.22615 29.0541 4.00005 28.9999C4.06698 28.7739 3.68799 28.4687 4.00005 27.9999C4.66168 27.0063 6.37168 25.47 8.00005 23.9999C8.0961 23.9132 7.90118 24.0877 8.00005 23.9999V19.9999C7.19681 20.6512 6.68226 21.3841 6.00005 21.9999C4.29633 23.538 2.85968 24.7089 2.00005 25.9999C1.57219 26.6425 1.17529 27.3295 1.00005 27.9999C0.82334 28.6759 0.5708 30.2443 1.00005 30.9999C1.42931 31.7556 2.33563 31.8174 3.00005 31.9999C3.65891 32.1809 4.23856 32.0552 5.00005 31.9999C6.52999 31.8888 8.83758 31.7305 11.0001 30.9999C15.3482 29.531 21.172 26.4198 27.0001 22.9999C32.5907 19.7194 37.5896 16.006 41.0001 12.9999C41.2209 13.0543 40.7628 12.9999 41.0001 12.9999C42.6126 12.9999 44.0001 12.6389 44.0001 10.9999C44.0001 10.7655 44.0507 10.2187 44.0001 9.99994C44.311 9.61937 44.7627 9.3564 45.0001 8.99994C45.4279 8.35732 45.8248 7.67036 46.0001 6.99994C46.1767 6.32387 46.4293 4.75559 46.0001 3.99994C45.5708 3.24429 44.6644 3.18243 44.0001 2.99994C43.3411 2.81897 42.7615 2.94465 42.0001 2.99994C40.4701 3.11102 38.1626 3.26938 36.0001 3.99994C35.458 4.1831 34.5788 4.78155 34.0001 4.99994L37.0001 6.99994C37.1605 7.09411 37.8794 6.86422 38.0001 6.99994C39.7721 6.43443 40.9468 6.07641 42.0001 5.99994C42.5555 5.95961 42.774 5.94583 43.0001 5.99994C42.9331 6.22601 43.3121 6.53124 43.0001 6.99994C42.8735 7.19008 42.1629 7.78994 42.0001 7.99994C41.7416 7.92384 41.2826 7.99994 41.0001 7.99994C39.3875 7.99994 38.0001 9.36108 38.0001 10.9999C38.0001 11.2851 37.9262 10.7389 38.0001 10.9999C37.5714 11.3735 37.4764 11.6112 37.0001 11.9999ZM4.00005 28.9999V28.9999C4.00005 28.9999 4.00034 29.0036 4.00005 28.9999V28.9999ZM43.0001 5.99994C43.0001 6.00088 42.9999 5.99831 43.0001 5.99994C43.0001 5.99601 43.0001 5.99994 43.0001 5.99994V5.99994ZM4.00005 28.9999V28.9999C3.99705 28.9978 4.00005 28.9999 4.00005 28.9999V28.9999Z" fill="#727272"/>
<path d="M21 26C21.9364 25.514 23.0381 25.5357 24 25V27L33 22C33.0882 21.9481 33 22.104 33 22V19C33.9974 18.3082 35.0997 17.6783 36 17V22C36 23.1432 34.9699 23.4284 34 24L24 31C23.0301 31.5716 21.9698 31.5716 21 31L17 28C18.0152 27.5314 18.9332 27.5413 20 27H21V26Z" fill="#727272"/>
<path d="M101 17C99.8319 17 98.8048 16.5476 98 16C97.1943 15.4524 96.3396 14.9644 96 14L98 13C98.4651 14.2738 99.6388 15 101 15C101.635 15 101.682 14.2381 102 14C102.317 13.7619 103 13.4047 103 13C103 12.5595 102.374 12.2381 102 12C101.625 11.75 100.965 11.2856 100 11C98.9565 10.6666 98.6012 10.4405 98 10C97.2514 9.41668 96 9.13095 96 8C96 6.85715 97.24 5.65475 98 5C98.76 4.32143 98.9109 4 100 4C100.952 4 102.263 4.51191 103 5C103.737 5.48809 104.592 6.10715 105 7L103 8C102.523 6.92857 101.043 6 100 6C99.5235 6 99.2835 6.76191 99 7C98.7165 7.22619 99 7.63096 99 8C99 8.39285 98.6946 8.75 99 9C99.3405 9.25 100.138 8.72624 101 9L102 10C102.147 10.0477 102.638 9.8452 103 10C103.341 10.1309 102.841 9.88091 103 10C103.556 10.3571 104.807 10.619 105 11C105.295 11.4999 105 12.3215 105 13C105 14.1548 104.806 15.3214 104 16C103.195 16.6785 102.27 17 101 17Z" fill="#727272"/>
<path d="M57 16L53 10L57 4H54L50 9V4H48V16H50V10L54 16H57Z" fill="#727272"/>
<path d="M62 15C62.8411 15.7395 63.6878 16 65 16C66.3234 16 68.1589 15.7395 69 15C69.8411 14.2604 70 13.2436 70 12V4H68V12C68 12.6274 67.3701 12.6415 67 13C66.6411 13.3474 65.7289 14 65 14C64.2711 14 64.3701 13.3474 64 13C63.6412 12.6415 63 12.6274 63 12V4H61V12C61 13.2436 61.1589 14.2604 62 15Z" fill="#727272"/>
<path d="M81 10L85 16H82L78 10V16H76V4H78V9L82 4H85L81 10Z" fill="#727272"/>
<path d="M89 4V16H91V4H89Z" fill="#727272"/>
<path d="M52 25H56V25C56 26.1322 55.7041 27.2479 55 28C54.2959 28.7437 53.1611 29 52 29C50.8015 29 49.7865 28.8677 49 28C48.221 27.1157 48 25.2479 48 24C48 22.7522 48.221 21.8761 49 21C49.7865 20.124 50.8165 20 52 20C52.7191 20 53.3857 20.6115 54 21C54.6217 21.3884 55.6854 21.3802 56 22L55 23C54.7753 22.5289 54.4569 22.281 54 22C53.5431 21.7107 52.5393 21 52 21C51.0937 21 50.5693 21.3471 50 22C49.4232 22.6529 49 23.0497 49 24C49 24.9504 49.4232 26.347 50 27C50.5842 27.6446 51.0786 28 52 28C52.7716 28 53.513 27.4132 54 27C54.4944 26.5785 54.8876 26.6943 55 26H52V25Z" fill="#727272"/>
<path d="M61 20V27H65V28H60V20H61Z" fill="#727272"/>
<path fill-rule="evenodd" clip-rule="evenodd" d="M69 21C68.2276 21.8678 68 22.7439 68 24C68 25.2397 68.2276 27.1158 69 28C69.7724 28.8761 70.8819 29 72 29C73.1181 29 74.2276 28.8761 75 28C75.7798 27.124 76 25.2479 76 24C76 22.7439 75.7798 21.8678 75 21C74.2276 20.124 73.1181 20 72 20C70.8819 20 69.7724 20.124 69 21ZM74 22C74.5738 22.6446 75 23.0413 75 24C75 24.9422 74.5738 26.3388 74 27C73.4409 27.6446 72.8533 28 72 28C71.154 28 70.5738 27.6446 70 27C69.4336 26.3388 69 24.9422 69 24C69 23.0497 69.4336 22.6529 70 22C70.5738 21.3471 71.154 21 72 21C72.8533 21 73.4409 21.3471 74 22Z" fill="#727272"/>
<path fill-rule="evenodd" clip-rule="evenodd" d="M85 24C85.3882 24.1829 85.7782 24.6723 86 25C86.2217 25.3276 86 25.5809 86 26C86 26.6401 85.4673 26.5657 85 27C84.5326 27.4343 84.6733 28 84 28H80V20H83C83.6574 20 84.5564 20.5809 85 21C85.4515 21.419 86 21.3829 86 22C86 22.7162 85.6021 23.6039 85 24ZM83 21H81V23H83C83.3486 23 83.7624 23.2362 84 23C84.2376 22.7639 85 22.3429 85 22C85 21.6648 84.2456 21.2362 84 21C83.7624 20.7562 83.3406 21 83 21ZM81 27H84C84.3722 27 84.7465 27.2515 85 27C85.2535 26.7486 85 26.3658 85 26C85 25.6419 85.2614 25.2515 85 25C84.7544 24.7485 84.3722 24 84 24H81V27Z" fill="#727272"/>
<path fill-rule="evenodd" clip-rule="evenodd" d="M96 28H97L94 20H93L90 28H91L92 26H95L96 28ZM92 25L93 21L95 25H92Z" fill="#727272"/>
<path d="M102 20V27H106V28H101V20H102Z" fill="#727272"/>
</g>
<defs>
<clipPath id="clip0_218_881">
<rect width="106" height="32" fill="white"/>
</clipPath>
</defs>
</svg>
