<svg width="126" height="20" viewBox="0 0 126 20" fill="none" xmlns="http://www.w3.org/2000/svg">
<g clip-path="url(#clip0_218_865)">
<path d="M28 6.00003C28.97 6.0003 30.2602 6.31723 31 7.00003C31.7399 7.68287 31.841 8.95843 32 10L37 9.00003C36.7181 7.39456 35.9622 5.25483 35 4.00003C34.0378 2.74525 33.4007 2.58882 32 2.00003C30.5993 1.41125 28.4872 0.774833 27 1.00003C25.5129 1.22523 24.1999 2.01745 23 3.00003L26 7.00003C26.6892 6.47101 27.1567 5.9995 28 6.00003Z" fill="#727272"/>
<path d="M10.0001 6.00001C10.6847 6.00162 11.3956 5.68477 12.0001 6.00001C12.7731 6.39584 13.5953 7.24255 14.0001 8.00001L18.0001 5.00001C17.1756 3.68376 16.3724 2.75831 15.0001 2.00001L12.0001 6.00001L15.0001 2.00001C13.4142 1.12613 10.8131 0.854556 9.00005 1.00001C7.18695 1.14547 5.41999 1.88498 4.00005 3.00001C2.56573 4.11103 1.55114 5.29104 1.00005 7.00001C0.449067 8.70864 0.478179 11.2826 1.00005 13C1.42628 14.422 2.93891 14.9445 4.00005 16C5.0612 17.0555 5.55613 18.5618 7.00005 19C8.44402 19.4383 10.5164 19.2832 12.0001 19C13.4838 18.7167 14.8291 17.9373 16.0001 17L13.0001 13C12.2378 13.6241 10.9931 14.0007 10.0001 14C9.10513 13.9999 8.72462 13.5151 8.00005 13C7.27547 12.4848 6.27839 11.8341 6.00005 11C5.86035 10.5824 6.00062 10.4395 6.00005 10C6.00074 9.32364 6.6776 8.5978 7.00005 8.00001C7.3225 7.40221 7.43037 7.38116 8.00005 7.00001L4.00005 3.00001L8.00005 7.00001C8.70487 6.52481 9.14472 5.99799 10.0001 6.00001V6.00001Z" fill="#727272"/>
<path d="M25 12L21 15C22.0956 16.8034 24.1551 18.3256 26 19C26.266 18.0832 25.7164 16.9511 26 16C26.2328 15.219 26.8428 14.5411 27 14C26.0359 13.6625 25.512 12.9801 25 12Z" fill="#727272"/>
<path d="M29 14C28.5739 13.9985 28.4062 14.1297 28 14C27.844 14.478 27.2282 15.317 27 16V16C26.6914 16.9235 26.2921 18.0979 26 19C27.4219 19.4637 28.5283 19.2628 30 19C31.4716 18.7372 32.8232 17.9278 34 17V16V17C35.1065 16.1388 36.3831 15.2639 37 14C37.6168 12.7361 37.9988 11.4082 38 10C38.0005 9.41118 38.1134 8.57764 38 8L33 9C33.0406 9.23249 32.9983 9.76396 33 10V10C33.0007 10.6563 33.2891 11.4118 33 12C32.7113 12.5873 31.5177 12.6027 31 13V13C30.2609 13.5753 29.9343 14.0007 29 14V14Z" fill="#727272"/>
<path d="M46 13V6H47L50 11V6H52V13H51L48 8V13H46Z" fill="#727272"/>
<path d="M55.9995 13.0002C56.1854 13.0268 56.8114 12.9987 56.9995 13.0002C57.3337 12.9997 57.6255 13.0067 57.9995 13.0002C58.3712 12.9902 58.6359 13.0214 58.9995 13.0002C59.3632 12.9789 59.6989 13.032 59.9995 13.0002V12.0002H56.9995C56.8932 12.0005 57.0991 12.0348 56.9995 12.0002C56.8998 11.9649 57.0513 11.0862 56.9995 11.0002C56.9351 10.8825 56.9918 11.1318 56.9995 11.0002V10.0002H59.9995V9.00022H56.9995V8.00022C56.9995 7.80675 56.8835 7.09416 56.9995 7.00022C57.1386 6.89913 56.8226 6.98986 56.9995 7.00022H59.9995V6.00022C59.7398 5.97474 59.313 6.01614 58.9995 6.00022C58.6861 5.98482 58.3908 6.01296 57.9995 6.00022C57.6082 5.98748 57.5104 6.00022 56.9995 6.00022C56.7949 6.00085 56.1971 5.95064 55.9995 6.00022C55.796 6.05005 56.1671 5.88287 55.9995 6.00022C55.8212 6.12932 55.0893 6.80847 54.9995 7.00022C54.8896 7.24394 54.9906 7.73648 54.9995 8.00022V11.0002C54.9995 11.357 54.8731 11.7963 54.9995 12.0002C55.1106 12.1898 55.7969 12.8921 55.9995 13.0002C56.1867 13.0985 55.7862 12.9713 55.9995 13.0002Z" fill="#727272"/>
<path d="M64 13V7H62V6H68V7H66V13H64Z" fill="#727272"/>
<path d="M70 6V13H72V10H74V13H76V6H74V9H72V6H70Z" fill="#727272"/>
<path d="M80.9996 12.9998C80.8109 12.9983 80.1857 13.0264 79.9996 12.9998C79.7861 12.9706 80.187 13.0979 79.9996 12.9998C79.797 12.8917 79.1105 12.1894 78.9996 11.9998C78.8734 11.7959 78.9989 11.3566 78.9996 10.9998V7.99981C78.9888 7.73655 78.8925 7.24413 78.9996 6.99981C79.0901 6.80802 79.8211 6.12887 79.9996 5.99981C80.1672 5.88232 79.7956 6.0495 79.9996 5.99981C80.1972 5.95016 80.795 6.00038 80.9996 5.99981C81.5108 5.99981 81.6076 5.98708 81.9996 5.99981C82.391 6.01256 82.6854 5.98442 82.9996 5.99981C83.3126 6.01574 83.7408 5.97434 83.9996 5.99981V6.99981H80.9996C80.8224 6.9894 81.1385 6.89866 80.9996 6.99981C80.8842 7.09376 80.9996 7.80553 80.9996 7.99981V8.99981H83.9996V9.99981H80.9996V10.9998C80.9919 11.1314 80.9352 10.8821 80.9996 10.9998C81.0518 11.0861 80.8995 11.9648 80.9996 11.9998C81.099 12.0344 80.8932 12.0001 80.9996 11.9998H83.9996V12.9998C83.6987 13.0316 83.3636 12.9785 82.9996 12.9998C82.6357 13.021 82.3718 12.9898 81.9996 12.9998C81.6273 13.0063 81.3337 12.9993 80.9996 12.9998Z" fill="#727272"/>
<path fill-rule="evenodd" clip-rule="evenodd" d="M87 6.00022V13.0002H88V10.0002C88.0812 10.0099 88.9003 10.0002 89 10.0002V10.0002C89.0991 10.0002 88.9038 9.99697 89 10.0002C89.0962 10.0035 88.9264 10.0002 89 10.0002L91 13.0002H92L91 10.0002C91.1397 9.94113 90.8746 10.0862 91 10.0002C91.1364 9.90636 90.9051 10.1374 91 10.0002C91.1144 9.82937 91.9508 9.20044 92 9.00022C92.0669 8.73141 92.0051 8.27733 92 8.00022C92.011 7.62181 92.1136 7.36095 92 7.00022C91.9178 6.74104 91.1949 6.18769 91 6.00022C90.822 5.83697 91.2313 6.06413 91 6.00022C90.7514 5.9321 90.2573 5.99805 90 6.00022H87ZM90 9.00022H88V7.00022H90C90.113 6.99859 89.8911 6.97036 90 7.00022C90.098 7.02745 89.9275 6.92814 90 7.00022C90.0817 7.08449 89.9686 7.88626 90 8.00022C90.0446 8.15857 90.0047 7.83555 90 8.00022C90.0052 8.17257 90.0446 8.83396 90 9.00022C89.9681 9.11802 90.0811 8.90987 90 9.00022C89.9292 9.07764 90.0991 8.96888 90 9.00022C89.8911 9.03293 90.1136 9.00159 90 9.00022Z" fill="#727272"/>
<path d="M95 13L96 6H97L99 11L101 6H102L103 13H102L101 8L100 13H98L97 8L96 13H95Z" fill="#727272"/>
<path d="M106 6V13H107V6H106Z" fill="#727272"/>
<path d="M111 13V6H112L115 11V6H117V13H116L113 8V13H111Z" fill="#727272"/>
<path fill-rule="evenodd" clip-rule="evenodd" d="M120 6.0001V13.0001H123C123.611 13.0001 124.601 13.2555 125 13.0001C125.399 12.7448 125.8 11.5168 126 11.0001C126.2 10.4834 126 10.7886 126 10.0001C126.004 9.5248 126.088 8.46872 126 8.0001C125.931 7.60916 125.219 7.34351 125 7.0001C124.802 6.69402 125.349 6.16534 125 6.0001C124.65 5.83288 123.525 6.0001 123 6.0001H120ZM123 12.0001H122V7.0001H123C123.195 6.99635 123.818 6.93401 124 7.0001C124.174 7.07041 123.908 7.84988 124 8.0001C124.126 8.21366 123.964 7.76003 124 8.0001C124.062 8.37137 124.007 8.62462 124 9.0001C124.009 9.41616 124.096 10.5929 124 11.0001C123.913 11.3346 124.19 10.8334 124 11.0001C123.897 11.0861 124.132 11.957 124 12.0001C123.869 12.0432 123.139 12.0067 123 12.0001Z" fill="#727272"/>
</g>
<defs>
<clipPath id="clip0_218_865">
<rect width="125" height="20" fill="white" transform="translate(1)"/>
</clipPath>
</defs>
</svg>
