<svg width="76" height="15" viewBox="0 0 76 15" fill="none" xmlns="http://www.w3.org/2000/svg">
<g clip-path="url(#clip0_218_616)">
<path fill-rule="evenodd" clip-rule="evenodd" d="M0.000257358 0.000187688C-0.158525 0.000187688 0.000257358 -0.155142 0.000257358 0.000187688V9.00019C0.000257358 9.15548 -0.158525 9.00019 0.000257358 9.00019H23.0003C23.159 9.00019 23.0003 9.15548 23.0003 9.00019V0.000187688C23.0003 -0.155142 23.159 0.000187688 23.0003 0.000187688H0.000257358ZM20.0003 6.00019C20.0796 6.00019 20.0003 6.07786 20.0003 6.00019V3.00019C20.0003 2.92252 20.0796 3.00019 20.0003 3.00019H3.00026C2.92087 3.00019 3.00026 2.92252 3.00026 3.00019V6.00019C3.00026 6.07786 2.92087 6.00019 3.00026 6.00019H20.0003Z" fill="#727272"/>
<path d="M3.0004 11.9999C3.0004 11.8342 3.16608 11.9999 3.0004 11.9999H0.000395782C-0.16529 11.9999 0.000395782 11.8342 0.000395782 11.9999V14.9999C0.000395782 15.1657 -0.16529 14.9999 0.000395782 14.9999H3.0004C3.16608 14.9999 3.0004 15.1657 3.0004 14.9999V11.9999Z" fill="#727272"/>
<path d="M56.0004 11.9999C56.0004 11.8342 56.166 11.9999 56.0004 11.9999H53.0004C52.8347 11.9999 53.0004 11.8342 53.0004 11.9999V14.9999C53.0004 15.1657 52.8347 14.9999 53.0004 14.9999H56.0004C56.166 14.9999 56.0004 15.1657 56.0004 14.9999V11.9999Z" fill="#727272"/>
<path d="M27.0003 11.9999C27.0003 11.8342 26.8415 11.9999 27.0003 11.9999H50.0003C50.159 11.9999 50.0003 11.8342 50.0003 11.9999V14.9999C50.0003 15.1657 50.159 14.9999 50.0003 14.9999H27.0003C26.8415 14.9999 27.0003 15.1657 27.0003 14.9999V11.9999Z" fill="#727272"/>
<path fill-rule="evenodd" clip-rule="evenodd" d="M53.0002 0.000187688C53.0002 -0.155142 52.8415 0.000187688 53.0002 0.000187688H76.0002C76.1591 0.000187688 76.0002 -0.155142 76.0002 0.000187688V9.00019C76.0002 9.15548 76.1591 9.00019 76.0002 9.00019H53.0002C52.8415 9.00019 53.0002 9.15548 53.0002 9.00019V0.000187688ZM73.0002 3.00019C73.0797 3.00019 73.0002 2.92252 73.0002 3.00019V6.00019C73.0002 6.07786 73.0797 6.00019 73.0002 6.00019H56.0002C55.9208 6.00019 56.0002 6.07786 56.0002 6.00019V3.00019C56.0002 2.92252 55.9208 3.00019 56.0002 3.00019H73.0002Z" fill="#727272"/>
<path d="M27.0003 0.000187688C26.8415 0.000187688 27.0003 -0.155141 27.0003 0.000187688V3.00019C27.0003 3.15552 26.8415 3.00019 27.0003 3.00019H47.0003C47.0797 3.00019 47.0003 2.92252 47.0003 3.00019V6.00019C47.0003 6.07786 47.0797 6.00019 47.0003 6.00019H27.0003C26.8415 6.00019 27.0003 5.84486 27.0003 6.00019V9.00019C27.0003 9.15548 26.8415 9.00019 27.0003 9.00019H50.0003C50.159 9.00019 50.0003 9.15548 50.0003 9.00019V0.000187688C50.0003 -0.155142 50.159 0.000187688 50.0003 0.000187688H27.0003Z" fill="#727272"/>
</g>
<defs>
<clipPath id="clip0_218_616">
<rect width="76" height="15" fill="white"/>
</clipPath>
</defs>
</svg>
