<svg width="126" height="23" viewBox="0 0 126 23" fill="none" xmlns="http://www.w3.org/2000/svg">
<g clip-path="url(#clip0_218_849)">
<path fill-rule="evenodd" clip-rule="evenodd" d="M19 14L11 1L6 10V10L3 14V14L1 17V17L11 23L20 17V17V17L19 14V14V14ZM85 7H83V5H85V7ZM85 15H83V8H85V15ZM29 15V6H33C33.2945 6 33.7814 5.96463 34 6C34.8123 6.12379 35.5894 6.45179 36 7C36.4151 7.54379 36 8.17769 36 9C36 9.53495 36.183 9.57123 36 10C35.8215 10.4289 35.3704 10.7215 35 11C34.634 11.2785 34.5401 11.916 34 12C33.7814 12.0353 33.2945 12 33 12H31V15H29ZM33 10C33.2499 10 33.8438 10.0442 34 10C34.3704 9.90716 34.8348 10.2918 35 10C35.1696 9.70828 35 9.35368 35 9C35 8.64632 35.1696 8.29179 35 8C34.8348 7.70379 34.3704 7.09284 34 7C33.8393 6.96021 33.2454 7 33 7H31V10H33ZM40 8C40.2009 7.86295 40.7456 8.06631 41 8C41.2544 7.92926 40.7322 8 41 8C41.1384 8 41.8349 7.97789 42 8V9C41.8303 8.95578 41.1785 9 41 9C40.6296 9 40.2767 9.84084 40 10C39.6787 10.1725 40.1607 9.68168 40 10C39.8438 10.3183 39 10.5711 39 11V15H38V8H39V9C39.1963 8.664 39.7144 8.17685 40 8ZM48 8L46 13L44 8H42L45 15L44 18H45L49 8H48ZM53 15C52.1074 15 51.5579 15.3979 51 15C50.4421 14.6021 50.1205 13.7207 50 13H52C52.0804 13.3581 51.7099 13.7966 52 14C52.2946 14.1989 52.5582 14 53 14C53.3838 14 53.7858 14.1504 54 14C54.2143 13.8452 54 13.2653 54 13C54 12.8276 54.0848 13.0928 54 13C53.9197 12.9072 54.2454 12.0884 54 12C53.7545 11.9072 53.5713 12.1503 53 12C52.3885 11.8408 51.3571 12.1813 51 12C50.6475 11.8143 50.1562 11.2476 50 11C49.8438 10.748 50 10.3624 50 10C50 9.55784 50.7678 9.33157 51 9C51.2365 8.66842 51.5716 8.18126 52 8C52.4329 7.81873 52.4333 8 53 8C53.5579 8 54.5626 7.82758 55 8C55.4374 8.17241 55.7322 8.67727 56 9C56.2723 9.31832 55.942 9.57564 56 10H54C53.9554 9.69498 54.2411 9.17686 54 9C53.7635 8.82315 53.3927 9.02211 53 9C52.6206 8.98231 52.2321 8.86291 52 9C51.7679 9.13256 52 9.76131 52 10C52 10.1459 51.9063 9.90716 52 10C52.0982 10.0928 51.7278 10.9027 52 11C52.2723 11.0928 53.4198 10.8541 54 11C54.5847 11.1504 54.6608 10.8142 55 11C55.3437 11.1857 55.8482 11.7392 56 12C56.1562 12.2565 56 12.6243 56 13C56 13.4775 56.241 13.6508 56 14C55.7635 14.3448 55.4508 14.8143 55 15C54.5537 15.1857 53.6159 15 53 15ZM67 8C66.6295 7.78338 65.5221 8 65 8C64.5313 8 64.3883 7.79663 64 8C63.6117 8.19894 63.2232 8.6419 63 9C62.8037 8.6419 62.3571 8.19894 62 8C61.643 7.79663 61.4954 8 61 8C60.5716 8 60.366 7.832 60 8C59.6385 8.16799 59.241 8.69937 59 9V8H58V15H59V11C59 10.7038 58.8885 10.2254 59 10C59.1116 9.77011 59.7948 9.12384 60 9C60.2053 8.87182 60.7277 9 61 9C61.4239 9 61.7545 9.71709 62 10C62.2454 10.2785 62 10.5049 62 11V15H64V11C64 10.6905 63.884 10.2255 64 10C64.1206 9.77011 63.7947 9.11935 64 9C64.2098 8.88061 64.7412 9 65 9C65.4195 9 65.7545 9.72149 66 10C66.2455 10.2785 66 10.5137 66 11V15H68V10C68 9.47831 68.1919 9.38467 68 9C67.8081 8.61095 67.3749 8.21221 67 8ZM76 10C76.0357 10.2432 76 10.6331 76 11V15H74V14C73.6921 14.4023 73.4061 14.8143 73 15C72.5938 15.1857 72.5713 15 72 15C71.4912 15 70.366 15.1902 70 15C69.6386 14.8055 70.192 14.3271 70 14C69.8126 13.6729 69 13.4023 69 13C69 12.4739 69.7366 12.3537 70 12C70.2678 11.6464 70.4332 11.1946 71 11C71.3169 10.8984 71.5894 11.0708 72 11C72.4151 10.9249 73.2324 10.1149 74 10V10C73.9688 9.58435 74.2365 10.1945 74 10C73.7679 9.80543 73.4865 9 73 9C72.6429 9 72.2946 8.83644 72 9C71.71 9.16356 71.1116 9.65957 71 10H70C70.183 9.37218 70.4868 8.35368 71 8C71.5133 7.6419 72.1743 8 73 8C73.6694 8 73.5224 7.78337 74 8C74.482 8.21663 74.7725 8.54463 75 9C75.1161 9.22989 75.9687 9.75241 76 10ZM74 13C74.0982 12.7657 73.9911 12.5085 74 12C73.2993 12.1105 73.308 11.9426 73 12C72.6965 12.0531 72.2321 11.9204 72 12C71.71 12.1061 71.1472 12.8496 71 13C70.8527 13.1503 71 12.779 71 13C71 13.2697 70.7992 13.8319 71 14C71.2053 14.168 71.6296 14 72 14C72.3437 14 72.7412 14.1193 73 14C73.2634 13.8762 73.8393 13.1813 74 13C74.1607 12.8187 73.9419 13.1857 74 13ZM79 12V9H82V8H79V6H78V8H77V9H78V12V13C78 13.305 77.9643 13.7789 78 14C78.0357 14.221 77.884 13.7922 78 14C78.192 14.3493 78.6117 14.8364 79 15C79.3883 15.1592 79.4822 15 80 15C80.3793 15 81.5626 15.0839 82 15V14C81.6787 14.0486 81.2499 14 81 14C80.7277 14 80.1874 14.0707 80 14C79.817 13.9293 80.1027 13.1681 80 13C79.9375 12.9072 80.0179 13.1415 80 13C79.9821 12.8585 79 12.2299 79 12V12ZM88 15C88.5355 15.3227 89.2725 15 90 15C90.8078 15 91.4425 15.389 92 15C92.5579 14.6066 92.7768 13.7295 93 13H92C91.8705 13.3802 91.2499 13.8099 91 14C90.7501 14.1858 90.4195 14 90 14C89.4064 14 89.3124 13.4068 89 13C88.6876 12.5888 88.0045 12.703 88 12C88.0045 11.3103 88.6965 10.4156 89 10C89.3079 9.58444 89.3931 9 90 9C90.3704 9 90.7099 9.78341 91 10C91.2946 10.2167 91.8792 9.61985 92 10H93C92.8884 9.53133 93.2985 9.34042 93 9C92.7052 8.65516 92.4415 8.18569 92 8C91.5582 7.81432 90.5445 8 90 8C89.2815 8 88.5401 7.67726 88 8C87.4645 8.32273 87.2901 9.42529 87 10C86.71 10.5703 87 11.2705 87 12C87.0044 12.725 86.7188 13.4253 87 14C87.2812 14.5703 87.4689 14.6728 88 15ZM103 15H97V6H99V14H103V15ZM110 11C110 10.6331 110.035 10.2432 110 10C109.969 9.75241 110.115 9.22989 110 9C109.772 8.54463 109.483 8.21663 109 8C108.523 7.78337 107.67 8 107 8C106.174 8 105.513 7.6419 105 8C104.487 8.35368 104.183 9.37218 104 10H106C106.112 9.65957 105.71 9.16356 106 9C106.294 8.83644 106.643 9 107 9C107.486 9 107.768 9.80543 108 10C108.237 10.1945 108.968 9.58435 109 10V10C108.232 10.1149 107.416 10.9249 107 11C106.59 11.0708 106.317 10.8984 106 11C105.433 11.1946 104.268 11.6464 104 12C103.736 12.3537 104 12.4739 104 13C104 13.4023 103.813 13.6729 104 14C104.192 14.3271 104.639 14.8055 105 15C105.367 15.1902 105.492 15 106 15C106.572 15 107.594 15.1857 108 15C108.406 14.8143 108.692 14.4023 109 14V15H110V11ZM109 12C108.991 12.5085 109.099 12.7657 109 13C108.942 13.1857 108.161 12.8187 108 13C107.839 13.1813 108.263 13.8762 108 14C107.741 14.1193 107.343 14 107 14C106.629 14 106.205 14.168 106 14C105.799 13.8319 106 13.2697 106 13C106 12.779 105.853 13.1503 106 13C106.148 12.8496 105.711 12.1061 106 12C106.232 11.9204 106.696 12.0531 107 12C107.308 11.9426 108.299 12.1105 109 12ZM116 8C116.669 8 116.491 7.67285 117 8C117.508 8.32274 118.723 9.42527 119 10C119.277 10.5703 119 11.2749 119 12C119 12.7162 119.272 12.4252 119 13C118.728 13.5703 117.504 14.6684 117 15C116.5 15.3271 116.651 15 116 15C115.165 15 114.54 15.4864 114 15V15H112V6H114V8C114.504 7.63305 115.303 8 116 8ZM115 14C115.406 14 115.727 14.2034 116 14C116.277 13.7966 116.867 13.3536 117 13C117.139 12.6463 117 12.4509 117 12C117 11.5534 117.139 10.3536 117 10C116.862 9.64627 116.286 10.2034 116 10C115.72 9.79222 115.419 9 115 9C114.407 9 114.29 9.58004 114 10C113.71 10.4156 114 11.2705 114 12C114 12.7295 113.706 12.58 114 13C114.295 13.4156 114.379 14 115 14ZM121 15C121.558 15.3979 122.107 15 123 15C123.616 15 124.554 15.1857 125 15C125.451 14.8143 125.763 14.3448 126 14C126.24 13.6508 126 13.4775 126 13C126 12.6243 126.156 12.2565 126 12C125.848 11.7392 125.344 11.1857 125 11C124.661 10.8142 124.585 11.1504 124 11C123.42 10.8541 122.272 11.0928 122 11C121.728 10.9027 122.099 10.0928 122 10C121.907 9.90716 122 10.1459 122 10C122 9.76131 121.768 9.13256 122 9C122.232 8.86291 122.621 8.98231 123 9C123.393 9.02211 123.763 8.82315 124 9C124.24 9.17686 123.956 9.69498 124 10H126C125.942 9.57564 125.272 9.31832 125 9C124.732 8.67727 124.437 8.17241 124 8C123.563 7.82758 123.558 8 123 8C122.433 8 121.433 7.81873 121 8C120.571 8.18126 120.237 8.66842 120 9C119.768 9.33157 120 9.55784 120 10C120 10.3624 119.844 10.748 120 11C120.156 11.2476 120.647 11.8143 121 12C121.357 12.1813 122.389 11.8408 123 12C123.572 12.1503 123.754 11.9072 124 12C124.245 12.0884 123.92 12.9072 124 13C124.085 13.0928 124 12.8276 124 13C124 13.2653 124.214 13.8452 124 14C123.786 14.1504 123.385 14 123 14C122.558 14 122.295 14.1989 122 14C121.71 13.7966 121.081 13.3581 121 13H120C120.121 13.7207 120.442 14.6021 121 15Z" fill="#727272"/>
</g>
<defs>
<clipPath id="clip0_218_849">
<rect width="125" height="23" fill="white" transform="translate(1)"/>
</clipPath>
</defs>
</svg>
