<svg width="76" height="18" viewBox="0 0 76 18" fill="none" xmlns="http://www.w3.org/2000/svg">
<path d="M9 13.0002V13.0002V6.00021V6.00021L12 3.00021C12.9309 2.09108 15.0691 2.09108 16 3.00021C16.9302 3.90859 16.9302 5.09184 16 6.00021L12 9.00021L17 14.0002C17.9302 14.9086 17.9302 16.091 17 17.0002C16.069 17.9093 14.931 17.9093 14 17.0002L9 13.0002Z" fill="#A99FA9"/>
<path d="M8.99995 5.00011V12.0001L5.99995 15.0001C5.06305 15.9098 2.93686 15.9098 1.99995 15.0001C1.06382 14.0905 1.06382 12.909 1.99995 12.0001L5.99995 9.00011L0.999949 4.00011C0.0638192 3.09122 0.0638192 1.909 0.999949 1.00011C1.93686 0.0904586 3.06304 0.0904586 3.99995 1.00011L8.99995 5.00011Z" fill="#958695"/>
<path d="M8.99976 13L7.99976 12C7.02097 10.8723 7.02086 8.12752 7.99976 7L8.99976 6L9.99976 7C10.9787 8.12752 10.9786 10.8723 9.99976 12L8.99976 13Z" fill="#727272"/>
<path d="M53 2V16H56V12L59 16H65L68 12L71 16H75L70 10L75 3H71L68 7L65 3H62L67 10L62 16L58 11L62 6H59L56 10V2H53Z" fill="#727272"/>
<path fill-rule="evenodd" clip-rule="evenodd" d="M42 11C42 13.7615 39.7615 16 37 16C34.2386 16 32 13.7615 32 11C32 8.23859 34.2386 6 37 6C39.7615 6 42 8.23859 42 11ZM39 11C39 12.3807 38.3807 13 37 13C35.6194 13 35 12.3807 35 11C35 9.61927 35.6194 8 37 8C38.3807 8 39 9.61927 39 11Z" fill="#727272"/>
<path d="M52 12C51.4411 14.1565 49.346 16 47 16C44.2194 16 42 13.7615 42 11C42 8.23859 44.2194 6 47 6C49.4948 6 51.6005 7.63529 52 10H49C48.6545 9.02904 48.0961 8 47 8C45.6096 8 45 9.61927 45 11C45 12.3807 45.6096 13 47 13C47.9319 13 48.5647 12.7473 49 12H52Z" fill="#727272"/>
<path fill-rule="evenodd" clip-rule="evenodd" d="M21 16V3H27C27.9006 3.13333 30 4.44001 30 7C30 9.55999 27.9006 9.86665 27 10L32 16H29L24 10V16H21ZM24 5H26C26.7461 5 27 6.22681 27 7C27 7.7732 26.7461 8 26 8H24V5Z" fill="#727272"/>
</svg>
