<svg width="126" height="24" viewBox="0 0 126 24" fill="none" xmlns="http://www.w3.org/2000/svg">
<path d="M35 6.99986H38C38.5944 6.99986 38.5738 6.8167 39 6.99986C39.4261 7.18301 39.7708 7.64088 40 7.99986C40.2291 8.35883 41 8.47605 41 8.99986C41 9.41372 40.1432 9.69579 40 9.99986C39.8568 10.3038 40.2614 10.7948 40 10.9999C39.7421 11.205 39.351 11.8827 39 11.9999V11.9999H36V10.9999H38C38.3043 10.9999 38.7995 11.1097 39 10.9999C39.2006 10.89 38.8997 10.194 39 9.99986C39.1038 9.80575 39 10.2489 39 9.99986C39 9.73242 39.1003 9.19397 39 8.99986C38.8997 8.802 39.2042 8.10609 39 7.99986C38.7959 7.89363 38.3115 7.99986 38 7.99986H36V14.9999H35V6.99986ZM39 14.9999L38 10.9999H39L41 14.9999V14.9999H39Z" fill="#727272"/>
<path d="M47 12.0001V12.0001C47 11.576 46.866 11.3567 47 11.0001C47.134 10.64 47.7439 10.264 48 10.0001C48.2562 9.73636 48.6295 9.14628 49 9.00013C49.3704 8.85042 49.527 9.00013 50 9.00013C50.4808 9.00013 50.6296 8.85042 51 9.00013C51.3744 9.14628 51.7439 9.73636 52 10.0001C52.2561 10.264 52.866 10.64 53 11.0001C53.1339 11.3567 53 11.576 53 12.0001V12.0001C53 12.4207 53.1339 12.64 53 13.0001C52.866 13.3566 52.2561 13.7327 52 14.0001C51.7439 14.2639 51.3704 14.8539 51 15.0001C50.6296 15.1463 50.4768 15.0001 50 15.0001C49.527 15.0001 49.3744 15.1463 49 15.0001C48.6256 14.8539 48.2562 14.2639 48 14.0001C47.7439 13.7327 47.134 13.3566 47 13.0001C46.866 12.64 47 12.4207 47 12.0001ZM49 12.0001V12.0001C49 12.2532 48.9448 12.779 49 13.0001C49.0551 13.2211 48.8857 12.8326 49 13.0001C49.1143 13.1677 48.8187 13.9039 49 14.0001C49.1852 14.0928 49.7439 14.0001 50 14.0001C50.2522 14.0001 50.8187 14.0928 51 14.0001C51.1813 13.9039 50.8857 13.1677 51 13.0001C51.1182 12.8326 50.9447 13.2211 51 13.0001C51.0551 12.779 51 12.2532 51 12.0001V12.0001C51 11.7506 51.0551 11.2176 51 11.0001C50.9447 10.7791 51.1182 11.1677 51 11.0001C50.8857 10.829 51.1853 10.0964 51 10.0001C50.8187 9.90032 50.2562 10.0001 50 10.0001C49.7478 10.0001 49.1812 9.90032 49 10.0001C48.8187 10.0964 49.1143 10.829 49 11.0001C48.8857 11.1677 49.0551 10.7791 49 11.0001C48.9448 11.2176 49 11.7506 49 12.0001Z" fill="#727272"/>
<path d="M61.0004 14.0002C61.1992 14.0002 60.8443 14.0786 61.0004 14.0002C61.1566 13.9218 61.9081 13.1428 62.0004 13.0002C62.0963 12.8576 61.9934 13.1892 62.0004 13.0002H63.0004C62.9934 13.3924 63.2134 13.6901 63.0004 14.0002C62.7874 14.3104 62.3555 14.8184 62.0004 15.0002C61.649 15.1785 61.4371 15.0002 61.0004 15.0002C60.5567 15.0002 59.3305 15.1499 59.0004 15.0002C58.6703 14.8504 59.2206 14.2677 59.0004 14.0002C58.7839 13.7329 58.1105 13.3531 58.0004 13.0002C57.894 12.6473 58.0004 12.403 58.0004 12.0002V12.0002C58.0004 11.5974 57.894 11.3532 58.0004 11.0002C58.1105 10.6473 58.7839 10.2677 59.0004 10.0002C59.2206 9.73289 58.6703 9.14994 59.0004 9.00023C59.3305 8.85052 60.5602 9.00023 61.0004 9.00023C61.4655 9.00023 61.6491 8.81844 62.0004 9.00023C62.3555 9.1821 62.8016 9.66865 63.0004 10.0002C63.2028 10.3317 62.9934 10.551 63.0004 11.0002H62.0004C61.9934 10.7935 62.0856 11.1642 62.0004 11.0002C61.9152 10.8363 61.1566 10.1 61.0004 10.0002C60.8443 9.90042 61.2241 10.0002 61.0004 10.0002C60.7626 10.0002 60.1602 9.90042 60.0004 10.0002C59.8442 10.1 60.0892 10.8256 60.0004 11.0002C59.9153 11.1713 59.0359 10.7864 59.0004 11.0002C58.9685 11.2105 59.0004 11.7685 59.0004 12.0002V12.0002C59.0004 12.2355 58.9685 12.7863 59.0004 13.0002C59.0359 13.2141 59.9153 12.8291 60.0004 13.0002C60.0892 13.1678 59.8442 13.9004 60.0004 14.0002C60.1602 14.1 60.7555 14.0002 61.0004 14.0002Z" fill="#727272"/>
<path d="M71 7V16H69V7H71ZM75 10L72 13L70 14V13L71 12L73 10H75ZM73 16L71 13L72 12L75 16H73Z" fill="#727272"/>
<path d="M85 14V15H81V14H85ZM81 7V15H80V7H81Z" fill="#727272"/>
<path d="M89.9996 12.0001V12.0001C89.9996 11.5831 89.8621 11.3567 89.9996 11.0001C90.138 10.64 90.7403 10.264 90.9996 10.0001C91.2598 9.73279 91.6305 9.14628 91.9996 9.00013C92.3696 8.85042 92.541 9.00013 92.9996 9.00013C93.4628 9.00013 93.6305 8.85042 93.9996 9.00013C94.3733 9.14628 94.7394 9.73279 94.9996 10.0001C95.2635 10.264 95.8621 10.64 95.9996 11.0001C96.138 11.3567 95.9996 11.5831 95.9996 12.0001V12.0001C95.9996 12.4172 96.138 12.6436 95.9996 13.0001C95.8621 13.3566 95.2635 13.7327 94.9996 14.0001C94.7394 14.2639 94.3687 14.8503 93.9996 15.0001C93.6342 15.1463 93.4628 15.0001 92.9996 15.0001C92.5363 15.0001 92.3687 15.1463 91.9996 15.0001C91.6295 14.8503 91.2635 14.2639 90.9996 14.0001C90.7403 13.7327 90.138 13.3566 89.9996 13.0001C89.8621 12.6436 89.9996 12.4172 89.9996 12.0001ZM90.9996 12.0001V12.0001C90.9996 12.2889 90.923 12.7435 90.9996 13.0001C91.0771 13.2533 91.8446 13.8041 91.9996 14.0001C92.1574 14.1963 91.7643 13.8861 91.9996 14.0001C92.2349 14.1106 92.6868 14.0001 92.9996 14.0001C93.3087 14.0001 93.768 14.1106 93.9996 14.0001C94.2349 13.8861 93.8455 14.1963 93.9996 14.0001C94.1537 13.8041 94.9221 13.2533 94.9996 13.0001C95.0808 12.7435 94.9996 12.2889 94.9996 12.0001V12.0001C94.9996 11.715 95.0808 11.2532 94.9996 11.0001C94.9221 10.7434 94.1583 10.1962 93.9996 10.0001C93.8455 9.80044 94.2358 10.1142 93.9996 10.0001C93.7689 9.88599 93.3124 10.0001 92.9996 10.0001C92.6905 10.0001 92.2358 9.88599 91.9996 10.0001C91.7689 10.1142 92.1574 9.80044 91.9996 10.0001C91.8446 10.1962 91.0771 10.7434 90.9996 11.0001C90.923 11.2532 90.9996 11.715 90.9996 12.0001Z" fill="#727272"/>
<path d="M105 8.99993H106V14.9999C106 15.5611 106.211 16.6036 106 16.9999C105.788 17.3963 105.38 17.7958 105 17.9999C104.624 18.2079 103.493 17.9999 103 17.9999C102.796 17.9999 103.278 18.0706 103 17.9999C102.726 17.9332 102.266 18.1648 102 17.9999C101.737 17.8391 101.179 17.2747 101 16.9999L102 15.9999C102.248 16.3217 102.73 16.8744 103 16.9999C103.274 17.1256 102.734 16.9999 103 16.9999C103.321 16.9999 103.767 17.1295 104 16.9999C104.234 16.8705 104.872 16.255 105 15.9999C105.131 15.7488 105 15.3687 105 14.9999V10.9999V8.99993ZM101 11.9999V11.9999C101 11.5133 100.895 11.3963 101 10.9999C101.109 10.5996 101.799 10.2864 102 9.99993C102.205 9.71351 101.711 9.15295 102 8.99993C102.288 8.84299 102.638 8.99993 103 8.99993C103.372 8.99993 103.722 8.85868 104 8.99993C104.28 9.13725 104.806 9.73313 105 9.99993C105.197 10.2629 104.886 10.6271 105 10.9999C105.113 11.3727 105.956 11.529 106 11.9999V12.9999C105.959 13.4669 105.117 13.6271 105 13.9999C104.886 14.3728 105.197 14.737 105 14.9999C104.806 15.2628 104.28 14.8586 104 14.9999C103.719 15.1373 103.377 15.9999 103 15.9999C102.646 15.9999 102.288 15.1608 102 14.9999C101.715 14.839 102.204 15.2903 102 14.9999C101.796 14.7095 101.109 14.3923 101 13.9999C100.895 13.6036 101 12.4629 101 11.9999ZM102 11.9999V11.9999C102 12.3177 101.941 12.7214 102 12.9999C102.062 13.2786 101.876 13.7881 102 13.9999C102.128 14.2119 102.803 14.8783 103 14.9999C103.197 15.1176 103.726 14.9999 104 14.9999C104.336 14.9999 103.781 14.1529 104 13.9999C104.219 13.8469 104.872 14.2511 105 13.9999C105.131 13.7488 104.927 13.2942 105 12.9999V11.9999C104.959 11.7841 105.084 11.2001 105 10.9999C104.919 10.7959 105.132 10.157 105 9.99993C104.872 9.83906 104.19 10.0941 104 9.99993C103.81 9.90567 104.255 9.99993 104 9.99993C103.722 9.99993 103.201 9.87428 103 9.99993C102.803 10.1216 102.128 10.784 102 10.9999C101.876 11.2118 102.062 10.7173 102 10.9999C101.941 11.2785 102 11.6821 102 11.9999Z" fill="#727272"/>
<path d="M114 8.99998V15H113V8.99998H114ZM113 7.99998C113 7.83738 112.918 7.11199 113 6.99998C113.086 6.88797 112.835 6.99998 113 6.99998C113.161 6.99998 113.915 6.88797 114 6.99998C114.088 7.11199 114 7.83738 114 7.99998C114 8.15535 114.088 7.88797 114 7.99998C113.915 8.10838 113.161 7.99998 113 7.99998C112.835 7.99998 113.086 8.10838 113 7.99998C112.918 7.88797 113 8.15535 113 7.99998Z" fill="#727272"/>
<path d="M123 13.9999C123.242 13.9999 122.795 14.0961 123 13.9999C123.205 13.9036 123.868 14.1674 124 13.9999C124.132 13.8287 123.982 13.2174 124 12.9999H125C124.982 13.3421 125.22 13.704 125 13.9999C124.785 14.2922 124.352 14.818 124 14.9999C123.65 15.1781 123.421 14.9999 123 14.9999C122.554 14.9999 121.333 15.1531 121 14.9999C120.671 14.8465 121.22 14.2673 121 13.9999C120.784 13.7325 120.11 13.3456 120 12.9999C119.894 12.6505 120 12.3884 120 11.9999V11.9999C120 11.6112 119.894 11.3457 120 10.9999C120.11 10.6505 120.784 10.2673 121 9.99986C121.22 9.73252 120.671 9.15314 121 8.99986C121.333 8.84659 122.554 8.99986 123 8.99986C123.465 8.99986 123.653 8.81451 124 8.99986C124.348 9.18173 124.804 9.68254 125 9.99986C125.201 10.3135 124.982 10.6006 125 10.9999H124C123.982 10.761 124.121 10.1924 124 9.99986C123.883 9.80738 123.205 10.1139 123 9.99986C122.799 9.88215 123.271 9.99986 123 9.99986C122.69 9.99986 122.213 9.87859 122 9.99986C121.793 10.1175 121.124 9.7966 121 9.99986C120.879 10.1995 121.055 10.7538 121 10.9999C120.949 11.2422 121 11.7468 121 11.9999V11.9999C121 12.2529 120.949 12.7539 121 12.9999C121.051 13.2459 120.88 13.8002 121 13.9999C121.125 14.1996 121.792 13.8787 122 13.9999C122.212 14.1175 122.686 13.9999 123 13.9999Z" fill="#727272"/>
<g opacity="0.8">
<path d="M2 1H18C22.0942 1 25 4.85785 25 9C25 13.1422 22.0942 16 18 16H2V1Z" fill="#727272"/>
</g>
<g opacity="0.8">
<path d="M2 1L25 23H2V1Z" fill="#727272"/>
</g>
<path d="M2 16H17L2 1V16Z" fill="#727272"/>
</svg>
