<svg width="126" height="30" viewBox="0 0 126 30" fill="none" xmlns="http://www.w3.org/2000/svg">
<g clip-path="url(#clip0_218_846)">
<path fill-rule="evenodd" clip-rule="evenodd" d="M25 2H28V10H25V2ZM10 8V13C7.45525 13 6 14.4431 6 17C6 19.5569 7.45525 22 10 22C12.2292 22 14.573 20.1132 15 18V18V13H19V18V18C18.5374 22.6787 14.7783 27 10 27C4.91049 27 1 22.1138 1 17C1 11.8863 4.91049 8 10 8ZM16 8H10V13H16H24V8H16ZM44 17H41V27H44V17ZM42 16C42.2702 16.258 42.6486 16 43 16C43.3514 16 43.7432 16.258 44 16C44.2703 15.7284 44 15.353 44 15C44 14.6469 44.2703 14.258 44 14C43.7432 13.7284 43.3514 13 43 13C42.6486 13 42.2702 13.7284 42 14C41.7432 14.258 41 14.6469 41 15C41 15.353 41.7432 15.7284 42 16ZM34 26C34.6352 26.5568 34.7835 27 36 27C36.5271 27 37.581 26.1494 38 26C38.4325 25.837 38.7027 26.258 39 26C39.2973 25.742 39.8379 25.3395 40 25C40.1622 24.647 40 24.3803 40 24C40 23.4432 39.2432 22.3395 39 22C38.7702 21.647 39.3514 22.2173 39 22C38.6486 21.7827 37.419 21.1086 37 21C36.5945 20.8778 36.3514 21.095 36 21C35.6486 20.8914 35.2432 20.1222 35 20C34.7702 19.8778 35 20.2173 35 20C35 19.742 34.8108 19.1765 35 19C35.2027 18.8235 35.6486 19 36 19C36.3514 19 36.7702 18.7963 37 19C37.2433 19.2037 36.946 19.7963 37 20H40C39.8918 19.1851 39.6082 18.5432 39 18C38.4053 17.4567 37.1218 17 36 17C35.4864 17 35.4055 16.837 35 17C34.5945 17.1494 34.2973 17.742 34 18C33.7027 18.258 33.1622 18.647 33 19C32.8513 19.3395 33 19.6197 33 20C33 20.5432 32.7702 20.6605 33 21C33.2433 21.326 33.6486 21.7827 34 22C34.3514 22.2037 34.5945 22.8914 35 23C35.419 23.1086 35.6486 22.8914 36 23C36.3514 23.095 36.7702 22.8778 37 23C37.2432 23.1222 37 23.7827 37 24C37 24.2581 37.2432 23.7827 37 24C36.7702 24.2037 36.4056 25 36 25C35.5945 25 35.2433 24.2173 35 24C34.7568 23.7827 35.0541 24.3124 35 24H32C32.0946 24.9235 33.3783 25.4432 34 26ZM50 30C49.135 30 48.5406 30.3124 48 30C47.4729 29.6876 47.3109 28.3939 47 28C46.6486 27.5519 46.1758 27.5704 46 27H48C48.0947 27.1765 48.8378 26.8642 49 27C49.1487 27.1086 48.7702 27.905 49 28C49.2297 28.0951 49.6486 28 50 28C50.6623 28 51.6215 27.3666 52 27C52.3785 26.6469 52 26.5704 52 26V25C51.8108 25.1901 52.2432 25.8506 52 26C51.7838 26.1359 51.2973 25.8913 51 26C50.7027 26.095 50.3785 26 50 26C49.4189 26 48.5271 26.2309 48 26C47.4864 25.7691 47.392 25.4075 47 25C46.6215 24.5926 46.2297 23.5568 46 23C45.7837 22.4432 46 22.6654 46 22C46 21.3345 45.7837 20.5569 46 20C46.2297 19.4432 46.6215 18.4074 47 18C47.392 17.5926 47.4864 17.2309 48 17C48.5271 16.7691 49.4189 17 50 17C50.4056 17 50.6756 16.8914 51 17C51.3244 17.1086 51.7702 17.8778 52 18C52.2568 18.1494 51.7838 17.8099 52 18L53 17H55V26C55 27.2222 53.7839 28.2531 53 29C52.2295 29.7469 51.4192 30 50 30ZM50 24C50.2973 24 50.7297 24.1222 51 24C51.2702 23.8778 51.7972 23.2037 52 23C52.2027 22.7827 51.8783 23.2852 52 23C52.1216 22.7149 52 22.3259 52 22C52 21.674 52.1216 21.2851 52 21C51.8783 20.7149 52.2027 20.2037 52 20C51.7972 19.7827 51.2702 19.1222 51 19C50.7297 18.8778 50.2973 19 50 19C49.6892 19 49.2702 18.8778 49 19C48.7297 19.1222 49.2027 19.7827 49 20C48.7972 20.2037 48.1216 20.7149 48 21C47.8918 21.2851 48 21.674 48 22C48 22.3259 47.8918 22.7149 48 23C48.1216 23.2852 48.7972 22.7827 49 23C49.2027 23.2037 48.7297 23.8778 49 24C49.2702 24.1222 49.6892 24 50 24ZM59 17H57V27H59V21C59 20.4296 59.7027 20.3259 60 20C60.3108 19.6741 60.5945 19 61 19C61.4055 19 61.7027 19.6741 62 20C62.3109 20.3259 62 20.4296 62 21V27H65V21C65 20.4296 64.7027 20.3259 65 20C65.3109 19.6741 65.5945 19 66 19C66.4056 19 66.7027 19.6741 67 20C67.3109 20.3259 68 20.4296 68 21V27H70V21C70 19.7235 69.6082 18.6519 69 18C68.3918 17.3482 68.0137 17 67 17C66.5945 17 65.3379 16.8642 65 17C64.6621 17.1222 65.2432 17.8506 65 18C64.7162 18.1766 64.2162 17.7691 64 18C63.8513 17.7691 63.2432 18.1766 63 18C62.7838 17.8506 62.3379 17.1222 62 17C61.6621 16.8642 61.4731 17 61 17C60.6621 17 60.2703 16.8914 60 17C59.7297 17.1086 60.1892 17.8778 60 18C59.7702 18.1494 59.1892 17.8099 59 18V17ZM75 27C73.9864 27 72.5406 26.4889 72 26C71.4593 25.4976 72 24.7741 72 24C72 23.5383 71.8243 23.3803 72 23C72.1892 22.6061 72.5675 22.2716 73 22C73.4326 21.7149 74.2972 21.1494 75 21C75.7164 20.837 75.9323 21 77 21C77 20.484 77.2838 20.2852 77 20C76.7297 19.7149 76.4596 19 76 19C75.6891 19 75.1892 18.8914 75 19C74.8243 19.1086 74.1081 19.8778 74 20C73.8783 20.1494 74.0406 19.8099 74 20H72C72.0541 19.5654 71.8108 19.3803 72 19C72.2027 18.6197 72.6621 18.2851 73 18C73.3379 17.7148 73.5404 17.163 74 17C74.473 16.8235 75.4188 17 76 17C76.5271 17 76.554 16.8099 77 17C77.446 17.1765 77.6756 17.6741 78 18C78.3244 18.3259 78.8242 18.5519 79 19C79.1892 19.4481 80 20.4704 80 21V27H78L77 26C76.7838 26.1901 77.2568 25.8506 77 26C76.7702 26.1359 76.3244 25.8914 76 26C75.6756 26.095 75.4056 27 75 27ZM75 25C75.6081 25 76.635 24.353 77 24C77.3784 23.6333 77 23.5704 77 23V22C76.3107 22 76.419 22.9321 76 23C75.581 23.0544 75.2433 22.8778 75 23C74.7703 23.1086 74.0811 22.8371 74 23C73.9189 23.163 74 23.7963 74 24C74 24.258 73.7702 24.7827 74 25C74.2298 25.2037 74.6486 25 75 25ZM83 17H82V30H83V25C83.1891 25.2309 83.7297 25.8235 84 26C84.2298 26.1494 84.6621 25.8641 85 26C85.3379 26.1222 85.5405 27 86 27C86.5812 27 87.4863 26.2309 88 26C88.527 25.7691 88.6215 25.4074 89 25C89.392 24.579 89.7838 24.5704 90 24C90.2298 23.4296 90 22.6926 90 22C90 21.3075 90.2298 20.5704 90 20C89.7838 19.4296 89.392 19.4074 89 19C88.6215 18.579 88.527 18.2309 88 18C87.4863 17.7691 86.5812 17 86 17C85.5405 17 85.3379 16.8778 85 17C84.6621 17.1086 84.2298 17.8506 84 18C83.7297 18.163 83.1891 17.7963 83 18V17ZM87 25C86.6621 25.1494 86.3785 25 86 25C85.6215 25 85.3514 25.1494 85 25C84.6621 24.837 84.2568 24.2851 84 24C83.7432 23.7148 83.1622 23.3938 83 23C82.8513 22.5926 83 22.4889 83 22C83 21.5111 82.8513 21.3938 83 21C83.1622 20.5926 83.7432 20.2852 84 20C84.2568 19.7149 84.6621 19.1494 85 19C85.3514 18.837 85.6215 19 86 19C86.3785 19 86.6621 18.837 87 19C87.3514 19.1494 87.7432 19.7149 88 20C88.2568 20.2852 88.8513 20.5926 89 21C89.1621 21.3938 89 21.5111 89 22C89 22.4889 89.1621 22.5926 89 23C88.8513 23.3938 88.2568 23.7148 88 24C87.7432 24.2851 87.3514 24.837 87 25ZM92 17H93L94 18C94.1888 17.7963 94.7426 18.163 95 18C95.2294 17.8506 94.6757 17.1086 95 17C95.3243 16.8778 96.5674 17 97 17V17V19H96C95.2837 19 95.4588 18.5382 95 19C94.5538 19.4618 94 20.2259 94 21V27H92V17ZM100 17H98V27H100V17ZM99 15C99.1897 15.1765 98.7299 16 99 16C99.2845 16 99.8248 15.1765 100 15C100.19 14.8099 100 15.2716 100 15C100 14.7149 100.19 14.1765 100 14C99.8248 13.8099 99.2845 14 99 14C98.7299 14 99.1897 13.8099 99 14C98.8248 14.1765 98 14.7149 98 15C98 15.2716 98.8248 14.8099 99 15ZM103 17H104V18C104.149 17.7963 104.784 18.163 105 18C105.19 17.8506 104.729 17.1086 105 17C105.27 16.8778 105.608 17 106 17C106.46 17 107.689 17.8235 108 18C108.324 18.163 107.798 17.7963 108 18C108.244 18.2445 108.852 18.7012 109 19C109.176 18.7012 109.743 18.2445 110 18C110.23 17.7963 109.662 18.163 110 18C110.338 17.8235 111.514 17 112 17C112.406 17 112.635 17.8235 113 18C113.365 18.163 113.716 17.674 114 18C114.284 18.3259 113.837 18.5246 114 19C114.162 19.4617 115 20.416 115 21V27H113V21C113 20.2259 113.351 19.3939 113 19C112.649 18.6062 111.513 19 111 19C110.486 19 110.392 18.5791 110 19C109.622 19.421 109 20.2802 109 21V27H108V21C108 20.2259 107.351 19.3939 107 19C106.649 18.6062 106.513 19 106 19C105.756 19 105.243 18.8778 105 19C104.77 19.1086 105.176 18.7827 105 19C104.825 19.2037 104.108 19.7148 104 20C103.892 20.2851 104 20.6605 104 21V27H103V17ZM119 26C119.527 26.2309 120.392 27 121 27C121.5 27 121.594 26.1359 122 26C122.419 25.8506 122.689 26.2309 123 26C123.324 25.7692 123.771 25.3124 124 25C124.23 24.6876 124.851 24.3259 125 24H123C122.92 24.1086 123.135 23.8641 123 24C122.878 24.1222 122.189 24.8914 122 25C121.824 25.1086 122.243 24.9185 122 25C121.757 25.0815 121.297 25 121 25C120.649 25 120.324 25.1359 120 25C119.676 24.8506 119.244 24.2309 119 24C118.757 23.7692 118.162 24.3124 118 24C117.851 23.6876 118.027 23.326 118 23H125C125.014 22.9321 124.986 22.0815 125 22C125.014 21.9321 124.986 22.095 125 22C125.014 21.905 125 22.1359 125 22C125 21.3075 125.229 20.5568 125 20C124.783 19.4296 124.378 19.3939 124 19C123.622 18.5926 122.513 18.2174 122 18C121.5 17.7827 121.555 17 121 17C120.446 17 119.513 17.7691 119 18C118.486 18.2309 118.392 18.579 118 19C117.608 19.4074 117.243 19.4296 117 20C116.771 20.5704 117 21.3075 117 22C117 22.6926 116.783 23.4296 117 24C117.229 24.5704 117.608 24.579 118 25C118.406 25.4074 118.473 25.7691 119 26ZM123 20C123.162 20.3259 122.946 20.6197 123 21H118C118.054 20.6197 118.851 20.3259 119 20C119.162 19.6741 118.77 19.2309 119 19C119.243 18.7691 119.702 19.1358 120 19C120.297 18.8641 120.676 19 121 19C121.324 19 121.702 18.8641 122 19C122.297 19.1358 122.771 18.7691 123 19C123.243 19.2309 122.851 19.6741 123 20Z" fill="#727272"/>
</g>
<defs>
<clipPath id="clip0_218_846">
<rect width="125" height="29" fill="white" transform="translate(1 1)"/>
</clipPath>
</defs>
</svg>
