<svg width="86" height="26" viewBox="0 0 86 26" fill="none" xmlns="http://www.w3.org/2000/svg">
<g clip-path="url(#clip0_218_754)">
<mask id="mask0_218_754" style="mask-type:luminance" maskUnits="userSpaceOnUse" x="29" y="10" width="58" height="10">
<path d="M31 18.9999C30.5089 18.8529 30.3878 18.3272 30 17.9999V16.9999C30.3599 17.2927 31.5569 17.8493 32 17.9999C32.4542 18.1428 32.5226 18.0066 33 17.9999C33.5924 17.9999 33.6772 18.217 34 17.9999C34.1561 17.8989 34.9149 17.1621 35 16.9999C35.0851 16.8376 35.0077 17.1818 35 16.9999C35.0069 16.8446 35.08 16.1344 35 15.9999C34.92 15.8653 34.1419 16.0717 34 15.9999C33.5419 15.7814 33.5011 16.0936 33 15.9999C32.4668 15.8956 31.5041 15.1981 31 14.9999C30.6256 14.8531 30.2506 14.3075 30 13.9999C29.7601 13.6766 29.9837 13.3981 30 12.9999C29.9916 12.5695 30.7525 12.3569 31 11.9999C31.263 11.6385 31.5798 11.1707 32 10.9999C32.4966 10.7975 32.4617 10.9872 33 10.9999C33.5358 10.9967 34.4928 10.8319 35 10.9999C35.4564 11.1456 35.6576 11.6724 36 11.9999V12.9999C35.6607 12.7222 34.412 12.1596 34 11.9999C33.6044 11.8547 33.4228 11.9974 33 11.9999C32.4284 11.9999 32.3278 11.7668 32 11.9999C31.8416 12.1091 31.0858 12.8305 31 12.9999C30.9142 13.1691 30.9926 12.8113 31 12.9999C30.9919 13.1588 30.9245 13.8586 31 13.9999C31.0754 14.1412 31.8616 13.9148 32 13.9999C32.2863 14.1811 32.3671 14.8521 33 14.9999C33.5472 15.1143 34.4764 14.8078 35 14.9999C35.3779 15.1361 35.7322 15.7072 36 15.9999C36.2542 16.3049 36.0175 16.6078 36 16.9999C36.0082 17.4231 36.247 17.6512 36 17.9999C35.7349 18.3545 35.4205 18.8407 35 18.9999C34.4834 19.1947 33.554 19.0123 33 18.9999C32.4235 19.0046 31.5498 19.1685 31 18.9999ZM38 18.9999V10.9999H39V18.9999H38ZM47 10.9999H48V18.9999H47V12.9999L45 17.9999H44L42 12.9999V18.9999H41V10.9999V10.9999L44 15.9999L47 10.9999ZM50 10.9999H53C53.8441 10.9999 54.534 11.5932 55 11.9999C55.466 12.4065 55.9991 12.2556 56 12.9999C56 13.7374 55.467 14.5865 55 14.9999C54.5331 15.4132 53.8431 15.9999 53 15.9999H51V18.9999H50V10.9999ZM53 14.9999C54.1157 14.9999 55.001 13.9532 55 12.9999C54.9991 12.0465 54.1137 11.9912 53 11.9999H51V14.9999H53ZM57 18.9999V10.9999H59V17.9999H62V18.9999H57ZM68 10.9999L65 14.9999V18.9999H64V14.9999L61 10.9999H62L65 13.9999L67 10.9999H68ZM78 10.9999H79L76 18.9999H75L71 10.9999H72L75 16.9999L78 10.9999ZM81 18.9999C80.4303 18.6735 80.2837 17.5802 80 16.9999C79.6817 16.3357 79.9819 15.7324 80 14.9999C79.9819 14.2672 79.6817 13.664 80 12.9999C80.2829 12.4206 80.4295 11.3231 81 10.9999C81.613 10.6665 82.2971 10.982 83 10.9999C83.5153 10.9957 84.5146 10.8311 85 10.9999C85.4436 11.154 85.6635 11.68 86 11.9999V12.9999C85.6738 12.7207 84.4034 12.1567 84 11.9999C83.621 11.8629 83.4042 11.9981 83 11.9999C82.1711 11.9999 81.4468 12.4752 81 12.9999C80.5524 13.5245 81.0008 14.0244 81 14.9999C81 15.9752 80.5517 16.4704 81 16.9999C81.4484 17.5293 82.1719 17.997 83 17.9999C83.4042 18.003 83.6202 18.1353 84 17.9999C84.4019 17.8442 85.6746 17.2774 86 16.9999V17.9999C85.6628 18.3197 85.4436 18.8458 85 18.9999C84.517 19.1687 83.5138 19.0041 83 18.9999C82.2964 19.0166 81.6115 19.3385 81 18.9999Z" fill="#7A8AA0"/>
<path d="M31 18.9999C30.5089 18.8529 30.3878 18.3272 30 17.9999V16.9999C30.3599 17.2927 31.5569 17.8493 32 17.9999C32.4542 18.1428 32.5226 18.0066 33 17.9999C33.5924 17.9999 33.6772 18.217 34 17.9999C34.1561 17.8989 34.9149 17.1621 35 16.9999C35.0851 16.8376 35.0077 17.1818 35 16.9999C35.0069 16.8446 35.08 16.1344 35 15.9999C34.92 15.8653 34.1419 16.0717 34 15.9999C33.5419 15.7814 33.5011 16.0936 33 15.9999C32.4668 15.8956 31.5041 15.1981 31 14.9999C30.6256 14.8531 30.2506 14.3075 30 13.9999C29.7601 13.6766 29.9837 13.3981 30 12.9999C29.9916 12.5695 30.7525 12.3569 31 11.9999C31.263 11.6385 31.5798 11.1707 32 10.9999C32.4966 10.7975 32.4617 10.9872 33 10.9999C33.5358 10.9967 34.4928 10.8319 35 10.9999C35.4564 11.1456 35.6576 11.6724 36 11.9999V12.9999C35.6607 12.7222 34.412 12.1596 34 11.9999C33.6044 11.8547 33.4228 11.9974 33 11.9999C32.4284 11.9999 32.3278 11.7668 32 11.9999C31.8416 12.1091 31.0858 12.8305 31 12.9999C30.9142 13.1691 30.9926 12.8113 31 12.9999C30.9919 13.1588 30.9245 13.8586 31 13.9999C31.0754 14.1412 31.8616 13.9148 32 13.9999C32.2863 14.1811 32.3671 14.8521 33 14.9999C33.5472 15.1143 34.4764 14.8078 35 14.9999C35.3779 15.1361 35.7322 15.7072 36 15.9999C36.2542 16.3049 36.0175 16.6078 36 16.9999C36.0082 17.4231 36.247 17.6512 36 17.9999C35.7349 18.3545 35.4205 18.8407 35 18.9999C34.4834 19.1947 33.554 19.0123 33 18.9999C32.4235 19.0046 31.5498 19.1685 31 18.9999ZM38 18.9999V10.9999H39V18.9999H38ZM47 10.9999H48V18.9999H47V12.9999L45 17.9999H44L42 12.9999V18.9999H41V10.9999V10.9999L44 15.9999L47 10.9999ZM50 10.9999H53C53.8441 10.9999 54.534 11.5932 55 11.9999C55.466 12.4065 55.9991 12.2556 56 12.9999C56 13.7374 55.467 14.5865 55 14.9999C54.5331 15.4132 53.8431 15.9999 53 15.9999H51V18.9999H50V10.9999ZM53 14.9999C54.1157 14.9999 55.001 13.9532 55 12.9999C54.9991 12.0465 54.1137 11.9912 53 11.9999H51V14.9999H53ZM57 18.9999V10.9999H59V17.9999H62V18.9999H57ZM68 10.9999L65 14.9999V18.9999H64V14.9999L61 10.9999H62L65 13.9999L67 10.9999H68ZM78 10.9999H79L76 18.9999H75L71 10.9999H72L75 16.9999L78 10.9999ZM81 18.9999C80.4303 18.6735 80.2837 17.5802 80 16.9999C79.6817 16.3357 79.9819 15.7324 80 14.9999C79.9819 14.2672 79.6817 13.664 80 12.9999C80.2829 12.4206 80.4295 11.3231 81 10.9999C81.613 10.6665 82.2971 10.982 83 10.9999C83.5153 10.9957 84.5146 10.8311 85 10.9999C85.4436 11.154 85.6635 11.68 86 11.9999V12.9999C85.6738 12.7207 84.4034 12.1567 84 11.9999C83.621 11.8629 83.4042 11.9981 83 11.9999C82.1711 11.9999 81.4468 12.4752 81 12.9999C80.5524 13.5245 81.0008 14.0244 81 14.9999C81 15.9752 80.5517 16.4704 81 16.9999C81.4484 17.5293 82.1719 17.997 83 17.9999C83.4042 18.003 83.6202 18.1353 84 17.9999C84.4019 17.8442 85.6746 17.2774 86 16.9999V17.9999C85.6628 18.3197 85.4436 18.8458 85 18.9999C84.517 19.1687 83.5138 19.0041 83 18.9999C82.2964 19.0166 81.6115 19.3385 81 18.9999Z" stroke="#7A8AA0" stroke-width="0.254556"/>
</mask>
<g mask="url(#mask0_218_754)">
<path d="M31 18.9999C30.5089 18.8529 30.3878 18.3272 30 17.9999V16.9999C30.3599 17.2927 31.5569 17.8493 32 17.9999C32.4542 18.1428 32.5226 18.0066 33 17.9999C33.5924 17.9999 33.6772 18.217 34 17.9999C34.1561 17.8989 34.9149 17.1621 35 16.9999C35.0851 16.8376 35.0077 17.1818 35 16.9999C35.0069 16.8446 35.08 16.1344 35 15.9999C34.92 15.8653 34.1419 16.0717 34 15.9999C33.5419 15.7814 33.5011 16.0936 33 15.9999C32.4668 15.8956 31.5041 15.1981 31 14.9999C30.6256 14.8531 30.2506 14.3075 30 13.9999C29.7601 13.6766 29.9837 13.3981 30 12.9999C29.9916 12.5695 30.7525 12.3569 31 11.9999C31.263 11.6385 31.5798 11.1707 32 10.9999C32.4966 10.7975 32.4617 10.9872 33 10.9999C33.5358 10.9967 34.4928 10.8319 35 10.9999C35.4564 11.1456 35.6576 11.6724 36 11.9999V12.9999C35.6607 12.7222 34.412 12.1596 34 11.9999C33.6044 11.8547 33.4228 11.9974 33 11.9999C32.4284 11.9999 32.3278 11.7668 32 11.9999C31.8416 12.1091 31.0858 12.8305 31 12.9999C30.9142 13.1691 30.9926 12.8113 31 12.9999C30.9919 13.1588 30.9245 13.8586 31 13.9999C31.0754 14.1412 31.8616 13.9148 32 13.9999C32.2863 14.1811 32.3671 14.8521 33 14.9999C33.5472 15.1143 34.4764 14.8078 35 14.9999C35.3779 15.1361 35.7322 15.7072 36 15.9999C36.2542 16.3049 36.0175 16.6078 36 16.9999C36.0082 17.4231 36.247 17.6512 36 17.9999C35.7349 18.3545 35.4205 18.8407 35 18.9999C34.4834 19.1947 33.554 19.0123 33 18.9999C32.4235 19.0046 31.5498 19.1685 31 18.9999ZM38 18.9999V10.9999H39V18.9999H38ZM47 10.9999H48V18.9999H47V12.9999L45 17.9999H44L42 12.9999V18.9999H41V10.9999V10.9999L44 15.9999L47 10.9999ZM50 10.9999H53C53.8441 10.9999 54.534 11.5932 55 11.9999C55.466 12.4065 55.9991 12.2556 56 12.9999C56 13.7374 55.467 14.5865 55 14.9999C54.5331 15.4132 53.8431 15.9999 53 15.9999H51V18.9999H50V10.9999ZM53 14.9999C54.1157 14.9999 55.001 13.9532 55 12.9999C54.9991 12.0465 54.1137 11.9912 53 11.9999H51V14.9999H53ZM57 18.9999V10.9999H59V17.9999H62V18.9999H57ZM68 10.9999L65 14.9999V18.9999H64V14.9999L61 10.9999H62L65 13.9999L67 10.9999H68ZM78 10.9999H79L76 18.9999H75L71 10.9999H72L75 16.9999L78 10.9999ZM81 18.9999C80.4303 18.6735 80.2837 17.5802 80 16.9999C79.6817 16.3357 79.9819 15.7324 80 14.9999C79.9819 14.2672 79.6817 13.664 80 12.9999C80.2829 12.4206 80.4295 11.3231 81 10.9999C81.613 10.6665 82.2971 10.982 83 10.9999C83.5153 10.9957 84.5146 10.8311 85 10.9999C85.4436 11.154 85.6635 11.68 86 11.9999V12.9999C85.6738 12.7207 84.4034 12.1567 84 11.9999C83.621 11.8629 83.4042 11.9981 83 11.9999C82.1711 11.9999 81.4468 12.4752 81 12.9999C80.5524 13.5245 81.0008 14.0244 81 14.9999C81 15.9752 80.5517 16.4704 81 16.9999C81.4484 17.5293 82.1719 17.997 83 17.9999C83.4042 18.003 83.6202 18.1353 84 17.9999C84.4019 17.8442 85.6746 17.2774 86 16.9999V17.9999C85.6628 18.3197 85.4436 18.8458 85 18.9999C84.517 19.1687 83.5138 19.0041 83 18.9999C82.2964 19.0166 81.6115 19.3385 81 18.9999Z" fill="#727272"/>
<path d="M31 18.9999C30.5089 18.8529 30.3878 18.3272 30 17.9999V16.9999C30.3599 17.2927 31.5569 17.8493 32 17.9999C32.4542 18.1428 32.5226 18.0066 33 17.9999C33.5924 17.9999 33.6772 18.217 34 17.9999C34.1561 17.8989 34.9149 17.1621 35 16.9999C35.0851 16.8376 35.0077 17.1818 35 16.9999C35.0069 16.8446 35.08 16.1344 35 15.9999C34.92 15.8653 34.1419 16.0717 34 15.9999C33.5419 15.7814 33.5011 16.0936 33 15.9999C32.4668 15.8956 31.5041 15.1981 31 14.9999C30.6256 14.8531 30.2506 14.3075 30 13.9999C29.7601 13.6766 29.9837 13.3981 30 12.9999C29.9916 12.5695 30.7525 12.3569 31 11.9999C31.263 11.6385 31.5798 11.1707 32 10.9999C32.4966 10.7975 32.4617 10.9872 33 10.9999C33.5358 10.9967 34.4928 10.8319 35 10.9999C35.4564 11.1456 35.6576 11.6724 36 11.9999V12.9999C35.6607 12.7222 34.412 12.1596 34 11.9999C33.6044 11.8547 33.4228 11.9974 33 11.9999C32.4284 11.9999 32.3278 11.7668 32 11.9999C31.8416 12.1091 31.0858 12.8305 31 12.9999C30.9142 13.1691 30.9926 12.8113 31 12.9999C30.9919 13.1588 30.9245 13.8586 31 13.9999C31.0754 14.1412 31.8616 13.9148 32 13.9999C32.2863 14.1811 32.3671 14.8521 33 14.9999C33.5472 15.1143 34.4764 14.8078 35 14.9999C35.3779 15.1361 35.7322 15.7072 36 15.9999C36.2542 16.3049 36.0175 16.6078 36 16.9999C36.0082 17.4231 36.247 17.6512 36 17.9999C35.7349 18.3545 35.4205 18.8407 35 18.9999C34.4834 19.1947 33.554 19.0123 33 18.9999C32.4235 19.0046 31.5498 19.1685 31 18.9999ZM38 18.9999V10.9999H39V18.9999H38ZM47 10.9999H48V18.9999H47V12.9999L45 17.9999H44L42 12.9999V18.9999H41V10.9999V10.9999L44 15.9999L47 10.9999ZM50 10.9999H53C53.8441 10.9999 54.534 11.5932 55 11.9999C55.466 12.4065 55.9991 12.2556 56 12.9999C56 13.7374 55.467 14.5865 55 14.9999C54.5331 15.4132 53.8431 15.9999 53 15.9999H51V18.9999H50V10.9999ZM53 14.9999C54.1157 14.9999 55.001 13.9532 55 12.9999C54.9991 12.0465 54.1137 11.9912 53 11.9999H51V14.9999H53ZM57 18.9999V10.9999H59V17.9999H62V18.9999H57ZM68 10.9999L65 14.9999V18.9999H64V14.9999L61 10.9999H62L65 13.9999L67 10.9999H68ZM78 10.9999H79L76 18.9999H75L71 10.9999H72L75 16.9999L78 10.9999ZM81 18.9999C80.4303 18.6735 80.2837 17.5802 80 16.9999C79.6817 16.3357 79.9819 15.7324 80 14.9999C79.9819 14.2672 79.6817 13.664 80 12.9999C80.2829 12.4206 80.4295 11.3231 81 10.9999C81.613 10.6665 82.2971 10.982 83 10.9999C83.5153 10.9957 84.5146 10.8311 85 10.9999C85.4436 11.154 85.6635 11.68 86 11.9999V12.9999C85.6738 12.7207 84.4034 12.1567 84 11.9999C83.621 11.8629 83.4042 11.9981 83 11.9999C82.1711 11.9999 81.4468 12.4752 81 12.9999C80.5524 13.5245 81.0008 14.0244 81 14.9999C81 15.9752 80.5517 16.4704 81 16.9999C81.4484 17.5293 82.1719 17.997 83 17.9999C83.4042 18.003 83.6202 18.1353 84 17.9999C84.4019 17.8442 85.6746 17.2774 86 16.9999V17.9999C85.6628 18.3197 85.4436 18.8458 85 18.9999C84.517 19.1687 83.5138 19.0041 83 18.9999C82.2964 19.0166 81.6115 19.3385 81 18.9999Z" stroke="#727272" stroke-width="0.254556"/>
</g>
<path fill-rule="evenodd" clip-rule="evenodd" d="M14 0L16 1V4L13 5L11 4V1L14 0ZM12 2V3L13 4L15 3V2L14 1L12 2Z" fill="#727272"/>
<path d="M14 3H13V2H14V2V3V3Z" fill="#727272"/>
<path fill-rule="evenodd" clip-rule="evenodd" d="M14 2H13V3H14V3V2V2Z" fill="#727272"/>
<path fill-rule="evenodd" clip-rule="evenodd" d="M24 19L26 20V23L24 24L21 23V20L24 19ZM22 21V22L24 23L25 22V21L24 20L22 21Z" fill="#727272"/>
<path d="M24 22H23V21H24V21V22V22Z" fill="#727272"/>
<path fill-rule="evenodd" clip-rule="evenodd" d="M24 21H23V22H24V22V21V21Z" fill="#727272"/>
<path fill-rule="evenodd" clip-rule="evenodd" d="M21 8L23 9V12L21 13L18 12V9L21 8ZM19 10V11L21 12L22 11V10L21 9L19 10Z" fill="#727272"/>
<path d="M21 12H20V11H21V11V12V12Z" fill="#727272"/>
<path fill-rule="evenodd" clip-rule="evenodd" d="M21 11H20V12H21V12V11V11Z" fill="#727272"/>
<path fill-rule="evenodd" clip-rule="evenodd" d="M7 8L9 9V12L7 13L4 12V9L7 8ZM7 9L5 10V11L7 12L8 11V10L7 9Z" fill="#727272"/>
<path d="M7 12H6V11H7V11V12V12Z" fill="#727272"/>
<path fill-rule="evenodd" clip-rule="evenodd" d="M7 11H6V12H7V12V11V11Z" fill="#727272"/>
<path fill-rule="evenodd" clip-rule="evenodd" d="M4 19L6 20V23L4 24L1 23V20L4 19ZM2 21V22L4 23L5 22V21L4 20L2 21Z" fill="#727272"/>
<path d="M4 22H3V21H4V21V22V22Z" fill="#727272"/>
<path fill-rule="evenodd" clip-rule="evenodd" d="M4 21H3V22H4V22V21V21Z" fill="#727272"/>
<path fill-rule="evenodd" clip-rule="evenodd" d="M14 20L16 21V24L13 25L11 24V21L14 20ZM12 22V23L13 24L15 23V22L14 21L12 22Z" fill="#727272"/>
<path d="M14 24H13V23H14V23V24V24Z" fill="#727272"/>
<path fill-rule="evenodd" clip-rule="evenodd" d="M14 23H13V24H14V24V23V23Z" fill="#727272"/>
<path fill-rule="evenodd" clip-rule="evenodd" d="M14 5V15L19 12L20 13L15 15L23 20V21L14 16V21V21V16L5 21V20L13 15L8 13L9 12L14 15V5V5Z" fill="#727272"/>
</g>
<defs>
<clipPath id="clip0_218_754">
<rect width="86" height="26" fill="white"/>
</clipPath>
</defs>
</svg>
