<svg width="86" height="20" viewBox="0 0 86 20" fill="none" xmlns="http://www.w3.org/2000/svg">
<g clip-path="url(#clip0_218_806)">
<path fill-rule="evenodd" clip-rule="evenodd" d="M72.0003 0.999769C70.792 1.37693 71.1361 3.0798 72.0003 3.99977C72.7918 4.84232 73.5347 4.02333 74.0003 2.99977C74.143 2.68597 74.1351 2.2781 74.0003 1.99977C73.6352 1.24762 72.801 0.749771 72.0003 0.999769ZM5.00028 1.99977C4.32313 2.08713 3.39435 2.75366 3.00028 2.99977C2.93638 3.03977 3.07825 2.95695 3.00028 2.99977C1.17034 4.00344 0.486662 7.44485 2.00028 8.99977C3.07106 10.0999 4.35615 9.63126 5.00028 8.99977C6.46768 7.56141 6.57156 7.21668 6.00028 6.99977C4.97146 6.60899 3.9988 6.64228 4.00028 5.99977C4.00199 5.16348 4.57485 5.00084 6.00028 4.99977C6.89448 4.99934 7.35274 4.72468 8.00028 4.99977C8.1464 5.06184 8.89655 4.96128 9.00028 4.99977C9.10403 5.03848 8.963 4.97597 9.00028 4.99977C9.04417 5.02745 8.97963 5.02247 9.00028 4.99977C9.0414 4.95435 9.00028 5.06357 9.00028 4.99977C9.00028 4.97317 8.88526 4.2941 9.00028 3.99977C9.37048 3.05126 9.29955 3.0746 9.00028 2.99977C8.9515 2.98766 9.11743 3.05535 9.00028 2.99977C7.90479 2.47988 6.34584 1.82632 5.00028 1.99977ZM80.0003 4.99977C78.5358 5.3432 77.5335 6.71388 77.0003 7.99977C76.2279 9.86221 76.0647 12.599 77.0003 13.9998C77.0833 14.1241 77.0003 13.9818 77.0003 13.9998C77.0003 14.1447 77.6487 14.8019 78.0003 14.9998C78.4065 15.2286 78.8571 15.97 79.0003 15.9998C79.0863 16.018 79.8147 15.9538 80.0003 15.9998C80.5021 16.1241 81.4985 16.1241 82.0003 15.9998C82.1858 15.9538 82.9202 16.0166 83.0003 15.9998C83.3013 15.9366 83.6378 15.2942 84.0003 14.9998C84.7272 14.4096 85.6735 14.0099 86.0003 12.9998C86.4315 11.6664 86.5045 9.12822 86.0003 7.99977C85.9534 7.89511 85.0003 8.02053 85.0003 7.99977C85.0003 7.94722 85.0735 7.07957 85.0003 6.99977C84.9675 6.96386 85.0297 7.0573 85.0003 6.99977C84.9252 6.85228 84.2076 6.14639 84.0003 5.99977C83.5536 5.68381 83.3281 6.14747 83.0003 5.99977C82.062 5.57741 80.9428 4.77853 80.0003 4.99977ZM71.0003 10.9998C71.0003 15.5808 71.9494 15.9799 72.0003 15.9998C72.0736 16.0284 73.9268 16.0284 74.0003 15.9998C74.051 15.9799 74.0003 15.5808 74.0003 10.9998V5.99977H73.0003H71.0003V10.9998ZM82.0003 7.99977C82.5826 8.17494 82.7508 8.32396 83.0003 8.99977C83.3261 9.88341 83.3849 11.2332 83.0003 11.9998C82.9304 12.1387 83.0276 12.9457 83.0003 12.9998C82.6863 13.6217 80.7849 13.3046 80.0003 12.9998C78.3805 12.3704 78.4383 8.92904 80.0003 7.99977C80.3719 7.77831 81.5821 7.8739 82.0003 7.99977ZM68.0003 11.9998C67.9806 12.0062 68.1077 11.9661 68.0003 11.9998C66.4212 12.4935 66.4266 15.4689 68.0003 15.9998C69.6205 16.5463 70.7699 14.5459 70.0003 12.9998C69.6959 12.3884 68.6214 11.7964 68.0003 11.9998Z" fill="#727272"/>
<path fill-rule="evenodd" clip-rule="evenodd" d="M32.9995 0.999868C32.8626 1.01467 32.573 0.900881 31.9995 0.999868C31.426 1.09865 31.0172 0.999868 30.9995 0.999868C30.935 0.999868 30.9347 15.9751 30.9995 15.9999C31.0833 16.0319 33.9484 16.0323 33.9995 15.9999C34.0339 15.9785 33.9925 14.6507 33.9995 12.9999V10.9999V11.9999C34.4063 12.3744 35.9995 12.9051 35.9995 12.9999C35.9995 13.0106 35.8838 13.8512 35.9995 13.9999C36.1156 14.1486 35.9735 13.9515 35.9995 13.9999C36.0639 14.1201 36.9419 14.9423 36.9995 14.9999C37.0251 15.0255 36.9995 14.98 36.9995 14.9999C36.9995 15.0199 36.8725 14.8099 36.9995 14.9999C37.1266 15.1898 36.9995 14.9791 36.9995 14.9999C36.9995 15.0206 36.9616 15.98 36.9995 15.9999C37.0838 16.0446 40.9287 16.0442 40.9995 15.9999C41.0501 15.9679 40.1388 15.1994 39.9995 14.9999C39.9659 14.9515 40.0826 15.1548 39.9995 14.9999C39.9164 14.8446 40.1049 14.1581 39.9995 13.9999C39.8945 13.8419 39.9995 14.0128 39.9995 13.9999C39.9995 13.9693 39.2773 13.3698 38.9995 12.9999C38.8822 12.8438 39.0217 13.0377 38.9995 12.9999C38.9772 12.9622 38.1285 12.1578 37.9995 11.9999C37.8705 11.8418 38.1315 12.163 37.9995 11.9999C37.6569 11.5769 37.2573 10.2429 36.9995 9.99987H35.9995L36.9995 8.99987C37.7852 8.21029 38.7246 7.33617 38.9995 6.99987C39.0821 6.89898 38.9647 7.02885 38.9995 6.99987C39.0341 6.97068 39.9017 7.11409 39.9995 6.99987C40.0972 6.88544 39.9409 6.06121 39.9995 5.99987C40.1837 5.80718 39.9995 6.0208 39.9995 5.99987C39.9995 5.98887 39.9425 5.99966 38.9995 5.99987H36.9995V5.99987C36.8144 6.22386 36.3428 6.61681 35.9995 6.99987C35.916 7.09314 36.0513 6.9324 35.9995 6.99987C35.9098 7.11705 35.5126 7.43576 34.9995 7.99987C34.8725 8.13967 35.1462 7.83785 34.9995 7.99987C34.853 8.16168 34.0921 8.90172 33.9995 8.99987V8.99987V4.99987V0.999868V0.999868C33.936 1.00241 33.1364 0.985062 32.9995 0.999868ZM54.9995 0.999868C54.8628 1.01467 53.573 0.900881 52.9995 0.999868C52.426 1.09865 52.0172 0.999868 51.9995 0.999868C51.9545 0.999868 51.9541 12.4579 51.9995 12.9999C52.0907 14.0934 52.3909 14.6468 52.9995 14.9999C53.2789 15.1619 53.7994 15.9487 53.9995 15.9999C54.6096 16.156 55.9614 16.1021 55.9995 15.9999C56.0095 15.973 55.9656 15.2227 55.9995 14.9999C56.0337 14.7769 56.933 14.3791 56.9995 13.9999C57.1473 13.1578 57.1605 13.0005 56.9995 12.9999C56.4934 12.9977 55.218 13.3624 54.9995 12.9999C54.7984 12.6665 55.0119 13.0967 54.9995 6.99987V0.999868V0.999868C54.9366 1.00241 55.1364 0.985062 54.9995 0.999868ZM14.9995 2.99987C14.765 3.04408 14.1263 2.98676 13.9995 2.99987C13.8725 3.01319 13.3445 2.94318 12.9995 2.99987C12.6546 3.05634 13.0113 2.99987 12.9995 2.99987C12.9454 2.99987 12.9439 12.5781 12.9995 12.9999C13.1963 14.4911 12.8824 14.4711 13.9995 14.9999C14.9811 15.4644 17.6837 15.46 18.9995 14.9999C19.4562 14.8405 19.194 15.0293 18.9995 13.9999C18.9092 13.5216 19.0119 13.1114 18.9995 12.9999C18.9756 12.7853 19.1662 12.937 18.9995 12.9999C18.6997 13.1128 17.5232 12.9836 16.9995 12.9999C16.0098 13.0309 16.2639 12.7692 15.9995 11.9999H14.9995V9.99987V7.99987H16.9995H18.9995V6.99987V5.99987H16.9995H14.9995V3.99987V2.99987V2.99987C14.9262 3.00219 15.234 2.95545 14.9995 2.99987ZM22.9995 4.99987C22.0568 5.12571 21.0158 5.88714 20.9995 5.99987C20.9889 6.07411 20.9723 7.9728 20.9995 7.99987C21.0081 8.00812 21.789 8.06057 21.9995 7.99987C23.1392 7.67139 24.4193 7.7065 24.9995 7.99987C25.4372 8.22111 25.9995 8.44147 25.9995 8.99987C25.9995 9.19763 26.0756 9.01827 25.9995 8.99987C25.4399 8.86408 23.639 8.88417 22.9995 8.99987C20.8994 9.38017 19.8479 11.1407 19.9995 12.9999C20.0658 13.8129 20.5096 14.5167 20.9995 14.9999C21.7676 15.757 21.9473 15.9999 23.9995 15.9999C25.4245 15.9999 26.7449 15.2365 27.9995 14.9999H28.9995V11.9999C28.9833 8.42167 28.224 8.77633 27.9995 7.99987C27.7817 7.2452 27.5674 6.27822 26.9995 5.99987C26.5147 5.76213 26.4342 5.09991 25.9995 4.99987C25.6326 4.91526 23.5611 4.92478 22.9995 4.99987ZM44.9995 4.99987C43.7169 5.28731 42.5974 6.94399 41.9995 7.99987C41.8262 8.30614 41.0277 8.88355 40.9995 8.99987C40.9853 9.05825 41.0513 8.82557 40.9995 8.99987C40.7011 10.0033 40.6995 10.9598 40.9995 11.9999C41.0481 12.1684 40.9812 12.9261 40.9995 12.9999C41.0365 13.1467 41.8077 13.6943 41.9995 13.9999C42.4182 14.6661 43.17 15.7653 43.9995 15.9999C44.7162 16.2025 45.1372 15.9999 45.9995 15.9999C46.8031 15.9999 48.018 16.1852 48.9995 15.9999C49.2492 15.9527 49.9161 15.0614 49.9995 14.9999C50.0765 14.9429 49.221 15.2947 48.9995 13.9999C48.8397 13.0651 49.1285 12.9484 48.9995 12.9999C47.721 13.5089 45.8783 13.4417 44.9995 12.9999C44.4354 12.7163 44.0049 12.4417 43.9995 11.9999C43.9989 11.9415 43.9987 11.9999 46.9995 11.9999H49.9995V10.9999C50.3268 7.89976 49.3446 6.63821 46.9995 5.99987C46.5688 5.88269 45.4181 4.90617 44.9995 4.99987ZM56.9995 5.99987C57.0127 6.03371 56.9821 5.90913 56.9995 5.99987C57.0426 6.22386 57.5213 7.61764 57.9995 8.99987C58.043 9.12593 57.9008 8.73803 57.9995 8.99987C58.0982 9.26152 58.9373 9.82537 58.9995 9.99987C59.0619 10.1744 58.9074 10.7962 58.9995 10.9999C59.0916 11.2033 58.9837 10.9417 58.9995 10.9999C59.0285 11.1076 58.7433 11.4548 58.9995 11.9999C59.0789 12.1687 59.9995 12.98 59.9995 12.9999C59.9995 13.0368 59.5711 13.1145 59.9995 13.9999C60.1309 14.2712 60.9456 14.8857 60.9995 14.9999V14.9999V14.9999C60.5134 16.1574 59.4812 16.4148 57.9995 15.9999C57.8179 15.9491 57.0083 15.9912 56.9995 15.9999C56.9735 16.0258 56.9995 17.9127 56.9995 17.9999C56.9995 18.0686 57.0541 18.8139 56.9995 18.9999C56.9859 19.0464 56.6772 18.897 56.9995 18.9999C58.2393 19.3951 60.2043 19.4835 60.9995 18.9999C61.0738 18.9548 60.9507 18.022 60.9995 17.9999C61.1063 17.9514 61.8738 18.1568 61.9995 17.9999C62.049 17.9383 61.922 18.0921 61.9995 17.9999C62.077 17.9079 61.9505 17.0836 61.9995 16.9999C62.0483 16.9159 62.9136 17.1418 62.9995 16.9999C63.0852 16.858 62.9758 16.0484 62.9995 15.9999C63.0235 15.9515 62.8723 16.2519 62.9995 15.9999C63.1266 15.7479 62.9748 15.0756 62.9995 14.9999C63.0242 14.9239 63.9459 15.1082 63.9995 14.9999C64.167 14.6627 63.9729 14.0916 63.9995 13.9999C64.0135 13.9514 63.9644 14.0776 63.9995 13.9999C64.2177 13.5209 63.9091 13.241 63.9995 12.9999C64.0558 12.8494 64.8907 12.2607 64.9995 11.9999C65.1083 11.7389 64.9995 12.0176 64.9995 11.9999C64.9995 11.9818 64.894 11.2641 64.9995 10.9999C65.1049 10.7357 64.9653 11.1065 64.9995 10.9999C65.0339 10.8933 65.9458 10.1452 65.9995 9.99987C66.3997 8.91608 66.9599 6.26891 66.9995 5.99987V5.99987H65.9995H63.9995V5.99987C63.9933 6.05802 64.1354 6.5301 63.9995 6.99987C63.8639 7.46964 63.9989 7.97533 63.9995 7.99987C64.0007 8.04429 63.2718 9.12358 62.9995 9.99987C62.9211 10.252 63.0588 10.8061 62.9995 10.9999C62.8452 11.5052 62.0257 12.0001 61.9995 11.9999C61.9738 11.9999 61.9995 12.0595 61.9995 11.9999C61.9995 11.9777 62.1039 11.2684 61.9995 10.9999C61.8948 10.7314 62.0306 10.0967 61.9995 9.99987C61.9684 9.90299 61.1348 10.3973 60.9995 9.99987C60.8642 9.60244 61.0387 9.13544 60.9995 8.99987C60.9603 8.86408 61.0984 8.31016 60.9995 7.99987C60.9005 7.68979 60.1228 6.43114 59.9995 5.99987V5.99987H58.9995C57.5637 5.99945 56.9768 5.9417 56.9995 5.99987ZM45.9995 7.99987C46.1049 8.05318 46.9289 7.93536 46.9995 7.99987C47.0701 8.06459 46.9486 7.96031 46.9995 7.99987C47.1676 8.13058 46.9416 8.576 46.9995 8.99987V9.99987H45.9995C43.8949 9.99987 43.8463 9.48085 43.9995 8.99987C44.2087 8.34291 44.5497 8.22745 44.9995 7.99987C45.3443 7.82537 45.6699 7.83257 45.9995 7.99987ZM6.99954 7.99987C6.83623 8.05761 6.5434 8.42666 5.99954 8.99987C5.7693 9.24268 6.02555 8.98527 5.99954 8.99987C5.97353 9.01425 5.10954 9.86471 4.99954 9.99987C4.66952 10.4051 5.46891 9.78285 5.99954 9.99987C7.38699 10.5671 7.03153 11.2612 6.99954 11.9999C6.95626 12.9975 6.15022 13.2252 3.99954 12.9999C3.43694 12.9411 3.46472 13.1515 2.99954 12.9999C2.40004 12.8043 2.25473 13.1274 1.99954 12.9999C1.77717 12.8888 2.01958 11.9432 1.99954 11.9999C1.98718 12.0341 2.02832 12.932 1.99954 12.9999C1.97076 13.0675 2.07352 12.7767 1.99954 12.9999C1.92577 13.2228 1.09889 13.7338 0.999541 13.9999C0.900191 14.2659 1.01191 14.9233 0.999541 14.9999V14.9999V14.9999C1.55831 15.2798 2.41114 15.9068 2.99954 15.9999C3.146 16.0232 3.82366 15.9705 3.99954 15.9999C5.48506 16.2494 7.93956 15.5165 8.99954 14.9999C9.52506 14.7437 9.99954 14.1598 9.99954 13.9999C9.99954 13.9777 9.96138 14.0405 9.99954 13.9999C10.6408 13.3171 10.5385 11.0678 9.99954 9.99987C9.73923 9.4842 9.34214 9.20398 8.99954 8.99987C8.91895 8.95185 9.05157 9.04005 8.99954 8.99987C8.88165 8.90955 8.0409 7.99987 7.99954 7.99987C7.98291 7.99987 8.14942 8.06776 7.99954 7.99987C7.49897 7.77355 7.24279 7.91357 6.99954 7.99987ZM24.9995 10.9999C25.1524 11.0202 25.9652 10.99 25.9995 10.9999C26.0568 11.0166 25.9995 11.0595 25.9995 11.9999V12.9999V12.9999C25.741 13.0716 24.2614 13.085 23.9995 12.9999C23.3293 12.7819 22.7079 12.5976 22.9995 11.9999C23.2496 11.4876 23.7956 10.8393 24.9995 10.9999Z" fill="#727272"/>
</g>
<defs>
<clipPath id="clip0_218_806">
<rect width="86" height="20" fill="white"/>
</clipPath>
</defs>
</svg>
