<svg width="105" height="21" viewBox="0 0 105 21" fill="none" xmlns="http://www.w3.org/2000/svg">
<g clip-path="url(#clip0_218_729)">
<mask id="mask0_218_729" style="mask-type:luminance" maskUnits="userSpaceOnUse" x="-2" y="-1" width="107" height="23">
<path d="M105 -1H-2V22H105V-1Z" fill="white"/>
</mask>
<g mask="url(#mask0_218_729)">
<path d="M37.0004 18.9998C35.0649 18.9096 33.4959 18.3533 32.0004 16.9998C31.2965 16.3682 30.6162 15.8119 30.0004 14.9998C29.7364 14.6389 29.5605 14.451 30.0004 13.9998C30.3523 13.5487 31.4725 12.7291 32.0004 12.9998C32.3523 13.1803 32.7364 13.7291 33.0004 13.9998C34.408 16.0751 35.713 16.2705 38.0004 15.9998C38.4402 15.9096 39.6484 16.0901 40.0004 15.9998C40.8801 15.6389 40.9124 14.9021 41.0004 13.9998C41.0883 13.278 40.7042 13.2705 40.0004 12.9998C38.7687 12.5487 37.232 11.451 36.0004 10.9998C34.7687 10.6389 34.232 10.6315 33.0004 9.99984C31.8567 9.45845 31.2643 8.26307 31.0004 6.99984C30.6484 5.37568 31.5048 3.90215 33.0004 2.99984C34.8478 1.82684 35.8889 1.72914 38.0004 1.99984C39.8478 2.27053 42.1206 3.28545 43.0004 4.99984C43.1763 5.27053 42.9124 5.63891 43.0004 5.99984C43.1763 6.54122 43.4402 6.72914 43.0004 6.99984C42.5605 7.36076 41.5282 7.36076 41.0004 6.99984C40.6484 6.72914 40.1763 6.36076 40.0004 5.99984C39.3845 4.91707 39.232 5.1803 38.0004 4.99984C36.9446 4.90961 36.0561 4.63891 35.0004 4.99984C34.1206 5.27053 33.0883 6.09753 33.0004 6.99984C33.0883 7.63145 33.3845 7.72914 34.0004 7.99984C34.9681 8.45099 35.9446 8.63891 37.0004 8.99984C38.144 9.36076 39.7687 9.54868 41.0004 9.99984C43.8156 11.0826 44.5839 14.4734 43.0004 16.9998C42.1206 18.3533 41.4959 18.7291 40.0004 18.9998C39.2965 19.0901 37.7042 18.9998 37.0004 18.9998Z" fill="#727272"/>
<path d="M67 10.0002C67.0922 9.47273 67 9.52763 67 9.00018C67.0922 8.209 68.2626 7.08808 69 7.00018C69.7374 7.00018 70 7.209 70 8.00018C70.0922 9.14299 70 10.8574 70 12.0002C70 13.7583 70.0922 15.242 70 17.0002C69.9078 18.143 69.1983 19.2639 68 19.0002C67.5391 18.9123 67 18.2639 67 18.0002C66.9078 17.1211 67 15.9672 67 15.0002C66.9078 15.176 67.0922 15.9123 67 16.0002C66.1704 18.4616 63.4887 19.3518 61 19.0002C57.313 18.5606 55.1704 15.6044 56 12.0002C56.8296 8.65965 60.5896 6.03318 64 7.00018C65.6591 7.35181 66.3548 8.59364 67 10.0002ZM59 13.0002C59 15.4616 60.5113 17.0002 63 17.0002C65.6731 17.0002 67.0922 15.5495 67 13.0002C66.9078 10.8904 66.0418 8.91227 63 9.00018C60.4191 9.00018 59 10.6266 59 13.0002Z" fill="#727272"/>
<path d="M95.0005 9.99997C95.1883 9.7282 94.8127 9.27173 95.0005 8.99997C96.7846 6.01055 101.841 6.37291 104 8.99997C104.47 9.5435 105 10.2753 105 11C105.094 13.2647 105 15.7353 105 18C105 18.9964 104.752 19 104 19C103.155 19 102 17.9964 102 17C101.907 15.1882 102 13.7211 102 12C101.907 9.28232 99.9724 8.63762 98.0005 8.99997C96.6859 9.27173 95.7517 10.0035 95.0005 11C94.8127 11.1811 95.0005 11.8188 95.0005 12C95.0005 13.8117 95.0005 15.2788 95.0005 17C95.0005 17.6341 94.5639 18.8188 94.0005 19C93.4371 19.1811 92.3761 18.5435 92.0005 18C91.8127 17.7282 92.0005 17.3623 92.0005 17C92.0005 14.0106 91.9066 10.9894 92.0005 7.99997C92.0005 7.09408 92.1554 6.99997 93.0005 6.99997C93.7517 7.09056 95.0005 7.18467 95.0005 7.99997C95.0005 8.5435 95.0005 9.45644 95.0005 9.99997C95.0005 10.1811 94.9066 9.99997 95.0005 9.99997Z" fill="#727272"/>
<path d="M49 7.00018C49 6.45874 49 6.45138 49 6.00018C49 5.09778 49.2977 4.00018 50 4.00018C50.6145 3.90994 50.9122 4.18802 51 5.00018C51.0878 5.36114 51.0878 6.63922 51 7.00018C50.9122 7.45138 51.5611 7.00018 52 7.00018C52.4389 7.00018 52.5611 6.90994 53 7.00018C53.6145 7.09042 53.9122 7.45874 54 8.00018C54.0878 8.54162 53.5267 8.90994 53 9.00018C52.5611 9.09042 52.3512 9.00018 52 9.00018C51.5611 8.90994 51 9.45874 51 10.0002C51.0878 12.2562 51 14.7442 51 17.0002C51 17.4514 51.0878 17.549 51 18.0002C50.9122 18.5416 50.5267 19.0002 50 19.0002C49.4733 19.0904 49.1756 18.5416 49 18.0002C48.9122 17.6392 49 17.3611 49 17.0002C49 14.6539 49 12.3464 49 10.0002C49 9.8197 49 9.2709 49 9.00018C48.4733 9.00018 47.4389 9.00018 47 9.00018C46.3855 9.00018 46 8.54162 46 8.00018C46 7.45874 46.2977 7.00018 47 7.00018C47.3512 6.90994 48.3855 7.00018 49 7.00018Z" fill="#727272"/>
<path d="M76.0002 11C76.0002 13.3337 76.0002 14.7595 76.0002 17C76.0002 17.8401 75.0347 18.9066 74.0002 19C73.2761 19.0933 73.1037 18.8401 73.0002 18C72.8968 17.7199 73.0002 17.1867 73.0002 17C73.0002 12.6125 73.0002 8.38745 73.0002 3.99996C73.0002 3.5332 72.6899 2.28001 73.0002 1.99996C73.3106 1.7199 74.5864 1.99996 75.0002 1.99996C75.5175 1.99996 75.8968 2.43985 76.0002 2.99996C76.1037 3.28001 76.0002 3.81325 76.0002 3.99996C75.8968 6.42708 75.8968 8.75954 76.0002 11Z" fill="#727272"/>
<path d="M76 12C76.2632 11.5381 76.7368 11.2771 77 11C78.2283 9.7067 78.7717 8.29332 80 7.00001C80.5264 6.44574 81.5613 6.53812 82 7.00001C82.5264 7.55429 82.5264 8.44574 82 9.00001C81.0349 10.0162 80.0528 11.0762 79 12C78.6491 12.3695 78.7368 12.7229 79 13C80.2283 14.3857 81.7717 15.6143 83 17C83.3509 17.3695 83.1755 17.5381 83 18C82.8245 18.3695 82.3509 18.9076 82 19C81.7368 19.0924 81.2632 19.1848 81 19C79.4207 17.3372 78.4915 15.7552 77 14C76.7368 13.7229 76.1755 12.4619 76 12Z" fill="#727272"/>
<path d="M85.9995 13C85.9995 11.5314 85.9995 9.46847 85.9995 7.99996C85.9995 7.35748 86.3995 7.2753 86.9995 6.99996C87.4995 6.72461 87.5995 6.63283 87.9995 6.99996C88.2995 7.2753 88.8995 7.72461 88.9995 7.99996C89.0995 8.36709 88.9995 8.54105 88.9995 8.99996C88.9995 11.3863 88.9995 14.6136 88.9995 17C88.9995 17.3671 88.9995 17.6328 88.9995 18C88.8995 18.6424 88.6995 19 87.9995 19C87.3995 19 86.0995 18.7342 85.9995 18C85.8995 17.7246 85.9995 17.3671 85.9995 17C85.8995 15.715 85.9995 14.3767 85.9995 13Z" fill="#727272"/>
<path d="M87 2C87.9679 2 89 3.03571 89 4C89 4.85714 87.9679 5 87 5C86.2081 5 86 4.85714 86 4C85.912 3.03571 86.1201 2 87 2Z" fill="#727272"/>
<path fill-rule="evenodd" clip-rule="evenodd" d="M7 0C3.05128 0 0 3 0 7V14C0 18 3.05128 21 7 21H14C17.9487 21 21 18 21 14V7C21 3 17.9487 0 14 0H7ZM12 5C11.641 5 10.4487 5 10 5C9.19231 4.90909 8.80769 4.90909 8 5C6.47436 5.18182 5 6.36364 5 8C5 9.63636 6.38462 10.7273 8 11C8.08974 11 7.91026 11 8 11C8.08974 11 8.91026 11 9 11C9.08974 11 8.91026 11 9 11C9.35897 11 10 11.3636 10 12C10 12.4545 9.71795 13 9 13C6.75641 12.9091 4.26923 11.0909 4 9C3.73077 6.18182 5.84615 3.54545 8 3C8.17949 2.90909 7.82051 3 8 3C8.53846 3 9.46154 3 10 3C10.9872 3 11.9231 3 13 3C15.1538 3 17 5 17 7C17 7.27273 17.1795 7.90909 17 8C16.8205 8.09091 16.1795 8.09091 16 8C14.9231 7.27273 14.2564 7.09091 13 7C12.2821 7 11 6.72727 11 6C11.0897 5.63636 12 5.45455 12 5ZM13 16C12.2821 16.0909 11.8077 16 11 16C10.641 16 10.359 16 10 16V15C9.91026 14.2727 9.71795 14 9 14C7.74359 13.9091 6.07692 13.6364 5 13C4.82051 12.6364 4.17949 12.9091 4 13C3.82051 13.0909 4 12.7273 4 13C4 13.1818 3.91026 13.7273 4 14C4.62821 16.0909 6.84615 18 9 18C10.2564 18 11.7436 18 13 18C14.9744 18 16.3718 15.9091 17 14C17.5385 12.1818 16.5256 10.1818 15 9C14.1923 8.36364 13.0769 8 12 8C11.5513 8 12 8.45455 12 9C12 9.54545 11.5513 10 12 10C12.1795 10 12.9103 10 13 10C14.6154 10.1818 15.9103 11.4545 16 13C16.0897 14.8182 14.6154 15.7273 13 16Z" fill="#727272"/>
</g>
</g>
<defs>
<clipPath id="clip0_218_729">
<rect width="105" height="21" fill="white"/>
</clipPath>
</defs>
</svg>
