<svg width="99" height="22" viewBox="0 0 99 22" fill="none" xmlns="http://www.w3.org/2000/svg">
<g clip-path="url(#clip0_218_627)">
<path fill-rule="evenodd" clip-rule="evenodd" d="M24 0C20.7478 0 17.9877 1.69903 16 4C18.2116 4.3961 20.2954 5.51702 22 7C23.1895 7.99116 24.1097 8.72623 25 10L26 11C26.0383 11.0588 26 10.9295 26 11C26 11.0704 26.0383 10.9412 26 11L25 12C24.1117 13.2749 23.1906 14.0106 22 15C20.2967 16.4862 18.2129 17.6055 16 18C17.9873 20.2992 20.7491 22 24 22C29.9882 22 35 17.0757 35 11C35 4.92536 29.9882 0 24 0Z" fill="#727272"/>
<path fill-rule="evenodd" clip-rule="evenodd" d="M21 11C20.9853 11.1478 21.0729 11.8692 21 12C20.9271 12.1308 20.1197 11.9066 20 12C19.8804 12.0933 20.1479 11.9588 20 12C19.8523 12.0412 20.1529 12.0174 20 12C19.8473 11.9826 19.1339 12.0732 19 12C18.8662 11.9268 19.094 12.1176 19 12C18.9061 11.8824 19.0394 11.1436 19 11C18.9606 10.8564 18.9787 11.1472 19 11C19.042 10.7112 18.761 10.1782 19 10C19.2392 9.82192 19.7002 9.9659 20 10C20.2999 10.0341 20.8104 9.77309 21 10C21.1897 10.2268 21.0287 10.7097 21 11ZM24 11C22.7174 9.44158 19.2314 6.28396 15 6V6C14.1602 7.54252 13.9975 9.25725 14 11C14 12.8043 14.1877 14.5064 15 16C15.0586 15.9968 14.9419 16.0041 15 16C19.2268 15.7228 22.715 12.5585 24 11C24.044 10.9456 24 11.069 24 11C24 10.931 24.044 11.0545 24 11Z" fill="#727272"/>
<path fill-rule="evenodd" clip-rule="evenodd" d="M15.0003 16.9998C11.4197 17.1856 7.55206 15.2547 5.00034 11.9998C4.96339 11.9533 5.00034 11.0597 5.00034 10.9998C5.00034 10.9398 4.96339 11.0462 5.00034 10.9998C7.55388 7.74339 11.422 5.81818 15.0003 5.99976C15.3983 5.22559 15.4371 4.65769 16.0003 3.99976C15.619 3.93045 15.3863 4.03273 15.0003 3.99976C11.6453 3.84466 8.52779 4.73629 6.00034 6.99976C5.23569 7.6519 4.63921 8.21863 4.00034 8.99976C3.99079 9.00941 4.01298 8.99516 4.00034 8.99976C3.98769 9.00435 4.0137 9.0011 4.00034 8.99976C3.98699 8.99841 4.01188 9.00678 4.00034 8.99976C3.9888 8.99275 4.00788 9.01113 4.00034 8.99976C3.27534 7.69549 2.39984 6.44353 2.00034 4.99976V4.99976C1.94333 4.85026 2.11133 5.11311 2.00034 4.99976C1.88934 4.88641 1.14654 5.0578 1.00034 4.99976C0.877848 4.94786 1.13286 4.99605 1.00034 4.99976C0.86781 5.00347 1.11988 4.94108 1.00034 4.99976C0.77443 5.12507 0.108718 4.76132 0.000336323 4.99976C-0.108044 5.2382 -0.0515339 5.74219 0.000336323 5.99976V5.99976C0.514666 7.8897 0.987781 9.3339 2.00034 10.9998C2.02664 11.0425 2.00034 10.9492 2.00034 10.9998C2.00034 11.0503 2.02664 11.957 2.00034 11.9998C0.988487 13.6717 0.518906 15.1061 0.000336323 16.9998V16.9998V16.9998C-0.000295766 17.2331 -0.122503 17.8031 0.000336323 17.9998C0.123176 18.1964 0.793072 17.9023 1.00034 17.9998C1.12701 18.0568 0.861779 17.9956 1.00034 17.9998C1.18123 17.9955 1.84207 18.0895 2.00034 17.9998C2.1586 17.91 1.90093 18.1545 2.00034 17.9998V17.9998V17.9998C2.40108 16.5512 3.27353 15.3086 4.00034 13.9998C4.00787 13.9884 3.9888 14.0067 4.00034 13.9998C4.01187 13.9927 3.98698 13.0012 4.00034 12.9998C4.01369 12.9984 3.98768 13.9952 4.00034 13.9998C4.01298 14.0044 3.9908 13.9902 4.00034 13.9998C4.64058 14.7832 5.23431 15.3452 6.00034 15.9998C8.33681 18.0732 10.9085 18.932 14.0003 18.9998C14.2528 18.9998 14.747 19.0209 15.0003 18.9998C15.3859 18.9673 15.6193 19.0686 16.0003 18.9998C15.4348 18.3396 15.3993 17.777 15.0003 16.9998ZM84.0003 6.99976C84.3168 6.99976 84.801 7.18368 85.0003 6.99976C85.2016 6.81349 85.0003 6.30021 85.0003 5.99976C85.0003 5.69977 85.2029 5.18228 85.0003 4.99976C84.8014 4.82098 84.3159 4.99976 84.0003 4.99976C83.6752 4.99976 83.1951 4.82052 83.0003 4.99976C82.8033 5.18135 83.0003 5.6993 83.0003 5.99976C83.0003 6.29975 82.8037 6.81349 83.0003 6.99976C83.1951 7.18415 83.6743 6.99976 84.0003 6.99976Z" fill="#727272"/>
<path fill-rule="evenodd" clip-rule="evenodd" d="M84 8.00006H80V8.00006C80 7.59376 80.8249 7.20695 81 7.00006C81.1732 6.79597 80.6096 6.0347 81 6.00006H82C82.2107 5.97946 81.8764 6.12457 82 6.00006C82.1255 5.87274 82 6.22568 82 6.00006C82 5.67708 82.6692 5.00006 82 5.00006C81.9294 4.99819 81.0698 4.98884 81 5.00006V5.00006C80.1655 5.07542 79.4617 5.48658 79 6.00006C78.5425 6.5098 78.0042 7.13973 78 8.00006V8.00006C77.2975 8.00006 77 8.66397 77 9.00006C77 9.33567 77.2975 9.00006 78 9.00006V9.00006V14.0001C78 14.2927 78.8162 14.8455 79 15.0001C79.1788 15.1507 78.7357 15.0001 79 15.0001C79.2654 15.0001 79.8254 15.1512 80 15.0001C80.1783 14.8451 80 14.2922 80 14.0001V9.00006H83V14.0001C83 14.2922 82.8172 14.8409 83 15.0001C83.1793 15.1559 83.7347 15.0001 84 15.0001C84.2653 15.0001 84.8254 15.1564 85 15.0001C85.1778 14.8409 85 14.2911 85 14.0001V9.00006C85 8.66398 84.7029 8.00006 84 8.00006ZM92 12.0001C91.8426 11.7389 91.3584 11.1719 91 11.0001C90.6514 10.8335 90.6107 11.1293 90 11.0001C89.4424 10.8839 88.1898 10.1138 88 10.0001C87.8287 9.89802 88 10.1962 88 10.0001C88 9.79129 87.8297 9.12035 88 9.00006C88.1783 8.87414 88.6856 9.00006 89 9.00006C89.2691 9.00006 89.8204 8.93499 90 9.00006C90.1843 9.06652 89.7438 9.86618 90 10.0001C90.1463 10.0834 90.9023 9.95746 91 10.0001C91.1061 10.0459 90.8889 10.0001 91 10.0001C91.1723 10.0001 91.8834 10.1452 92 10.0001C92.1125 9.86057 92 9.20414 92 9.00006C92 8.66631 91.3153 8.19899 91 8.00006C90.7129 7.81283 90.3607 8.09835 90 8.00006C89.6337 7.90146 89.3791 7.99902 89 8.00006C88.4647 8.00006 88.421 7.8175 88 8.00006C87.5754 8.18401 87.2441 8.66303 87 9.00006C86.757 9.33099 85.9974 9.5879 86 10.0001C86 10.5566 86.6323 10.6817 87 11.0001C87.3584 11.3109 88.1841 11.8335 89 12.0001C89.4459 12.0997 89.7814 11.9232 90 12.0001C90.2065 12.0721 89.924 12.9196 90 13.0001C90.0699 13.075 90 12.8672 90 13.0001C90 13.1963 90.1851 12.8882 90 13.0001C89.8023 13.1189 89.3616 14.0001 89 14.0001C88.6388 14.0001 88.2297 13.0703 88 13.0001C87.7338 12.9159 87.2517 13.1216 87 13.0001C86.7125 12.8446 87.1708 13.0001 87 13.0001C86.8291 13.0001 86.1172 12.8656 86 13.0001C85.8862 13.1311 86 13.7946 86 14.0001C86 14.353 86.6833 13.8091 87 14.0001C87.6178 14.4003 88.0007 15.0001 89 15.0001C89.8659 15.0001 90.4754 14.3853 91 14.0001C91.5335 13.6084 92 13.6503 92 13.0001C92 12.6003 92.1574 12.2608 92 12.0001Z" fill="#727272"/>
<path d="M92 5H98V15H92V5Z" fill="white"/>
<path fill-rule="evenodd" clip-rule="evenodd" d="M95.9997 8.00011C95.539 8.00011 94.3623 7.8075 93.9997 8.00011C93.7197 8.14757 94.1974 8.74064 93.9997 9.00011V6.00011C93.9997 5.73645 94.1621 5.15438 93.9997 5.00011C93.8399 4.84865 93.2567 5.00011 92.9997 5.00011C92.7413 5.00011 92.1634 4.83836 91.9997 5.00011C91.8334 5.16373 91.9997 5.73691 91.9997 6.00011V14.0001C91.9997 14.2806 91.8434 14.8366 91.9997 15.0001C92.1555 15.1628 92.7318 15.0001 92.9997 15.0001C93.2663 15.0001 93.8395 15.1623 93.9997 15.0001C94.1604 14.8365 93.9997 14.281 93.9997 14.0001V11.0001C93.9997 10.506 93.7409 10.2923 93.9997 10.0001C94.258 9.70934 94.5673 9.00011 94.9997 9.00011C95.3632 9.00011 95.8343 9.79816 95.9997 10.0001C96.1674 10.2063 95.9997 10.5406 95.9997 11.0001V14.0001C95.9997 14.281 95.8382 14.8369 95.9997 15.0001C96.1595 15.1623 96.7322 15.0001 96.9997 15.0001C97.2671 15.0001 97.8439 15.1628 97.9997 15.0001C98.156 14.8366 97.9997 14.2806 97.9997 14.0001V11.0001C97.9997 9.11104 97.5089 8.00011 95.9997 8.00011Z" fill="#727272"/>
<path fill-rule="evenodd" clip-rule="evenodd" d="M44.0003 12C43.8444 11.7398 43.3542 11.1711 43.0003 11C42.6561 10.8341 41.6038 11.1287 41.0003 11C40.4498 10.8844 40.1877 10.1133 40.0003 10C39.8311 9.89839 40.0003 10.1954 40.0003 10C40.0003 9.79211 39.8321 9.11982 40.0003 9.00003C40.1763 8.87462 40.6899 9.00003 41.0003 9.00003C41.2663 9.00003 41.823 8.93523 42.0003 9.00003C42.1823 9.06623 41.7479 9.8667 42.0003 10C42.1447 10.083 42.9033 9.9576 43.0003 10C43.1045 10.0457 42.8901 10 43.0003 10C43.1704 10 42.8846 10.1445 43.0003 10C43.1114 9.8611 44.0003 9.20329 44.0003 9.00003C44.0003 8.66765 43.3112 8.19815 43.0003 8.00003C42.7028 7.807 42.3414 8.09119 42.0003 8.00003C41.6387 7.90183 41.3746 7.999 41.0003 8.00003C40.4718 8.00003 40.4163 7.81822 40.0003 8.00003C39.5811 8.18324 39.2413 8.66438 39.0003 9.00003C38.7575 9.33754 38.0003 9.5814 38.0003 10C38.0003 10.5544 38.6373 10.6831 39.0003 11C39.3542 11.3096 40.1947 11.834 41.0003 12C41.4411 12.0993 40.7849 11.9236 41.0003 12C41.2042 12.0718 41.9253 12.9199 42.0003 13C42.0698 13.0746 42.0003 12.8677 42.0003 13C42.0003 13.1953 42.1831 12.8885 42.0003 13C41.8055 13.1184 41.3573 14 41.0003 14C40.6437 14 40.2271 13.0699 40.0003 13C39.7373 12.9162 39.2488 13.1211 39.0003 13C38.716 12.8453 39.1686 13 39.0003 13C38.8311 13 38.116 12.8663 38.0003 13C37.8879 13.1306 38.0003 13.7954 38.0003 14C38.0003 14.3516 37.6876 13.8098 38.0003 14C38.6107 14.3986 40.0137 15 41.0003 15C41.8552 15 42.4823 14.3837 43.0003 14C43.527 13.6098 44.0003 13.6475 44.0003 13C44.0003 12.6019 44.1553 12.2596 44.0003 12ZM49.0003 14L48.0003 13C47.4426 12.9581 47.0003 13.6247 47.0003 13V9.00003H48.0003C48.2618 9.00003 48.8549 9.12262 49.0003 9.00003C49.1508 8.87322 49.0003 9.23684 49.0003 9.00003C49.0003 8.7632 49.1508 8.12729 49.0003 8.00003C48.8549 7.87742 48.261 8.00003 48.0003 8.00003H47.0003V7.00003C47.0003 6.72965 47.1704 6.16319 47.0003 6.00003C46.832 5.83872 46.2723 6.00003 46.0003 6.00003C45.7191 6.00003 46.1686 5.83872 46.0003 6.00003C45.8307 6.16319 45.0003 6.72918 45.0003 7.00003V8.00003V8.00003C44.7392 8.00003 44.1457 7.87742 44.0003 8.00003C43.8494 8.12729 44.0003 8.7632 44.0003 9.00003C44.0003 9.23685 43.8498 8.87323 44.0003 9.00003C44.1452 9.12263 44.7387 9.00003 45.0003 9.00003V9.00003V12C45.0003 13.5803 46.4514 14.8872 48.0003 15V15C48.0452 15.0019 47.9577 15 48.0003 15C48.2783 15 48.8357 15.1072 49.0003 15C49.2005 14.8691 49.0003 14.2508 49.0003 14C49.0003 13.6993 49.622 14.0383 49.0003 14ZM54.0003 12V12C54.0003 12.4569 54.2646 12.7138 54.0003 13C53.7343 13.289 53.4255 14 53.0003 14C52.7255 14 52.1864 13.1731 52.0003 13C51.817 12.8294 52.0003 13.2676 52.0003 13C52.0003 12.7869 51.8751 12.1203 52.0003 12C52.1297 11.8769 52.6885 12.0518 53.0003 12C53.3249 11.9464 53.4096 12 54.0003 12V12ZM55.0003 9.00003C54.5431 8.52405 53.9321 8.00003 53.0003 8.00003C52.5751 8.00003 52.4379 7.8984 52.0003 8.00003C51.561 8.10166 51.319 7.82334 51.0003 8.00003C50.81 8.10677 50.0835 8.87415 50.0003 9.00003C49.913 9.13445 49.9972 8.83878 50.0003 9.00003C50.0003 9.21401 49.8832 9.86577 50.0003 10C50.1196 10.1385 50.8133 10 51.0003 10C51.1228 10 50.7607 10.1226 51.0003 10C51.3628 9.85551 51.7369 9.07601 52.0003 9.00003C52.2495 8.92661 52.7409 9.00146 53.0003 9.00003C53.3931 9.00003 53.8311 9.81495 54.0003 10C54.1713 10.187 54.0003 10.5791 54.0003 11V11V11C53.0246 11 52.5585 10.8714 52.0003 11C51.4302 11.1316 50.2577 11.7044 50.0003 12C49.7411 12.2984 50.0003 12.4872 50.0003 13C50.0003 13.4084 49.7864 13.6677 50.0003 14C50.2138 14.331 50.63 14.8117 51.0003 15C51.3684 15.1879 51.5505 15 52.0003 15C52.4429 15 53.6611 15.2085 54.0003 15C54.2326 14.8589 53.8484 14.2283 54.0003 14C54.0103 14.2392 53.8466 14.8476 54.0003 15C54.1644 15.1618 54.7452 15 55.0003 15C55.2732 15 55.8413 15.158 56.0003 15C56.1603 14.8419 56.0003 14.2704 56.0003 14V11C56.0003 10.0411 55.457 9.476 55.0003 9.00003ZM63.0003 13L61.0003 11L63.0003 9.00003C63.1869 8.81028 63.0003 9.23358 63.0003 9.00003C63.0003 8.76694 63.1691 8.17157 63.0003 8.00003C62.923 7.91758 63.1032 8.04459 63.0003 8.00003C62.8973 7.95546 63.1122 7.99946 63.0003 8.00003C62.7713 8.00003 62.1763 7.82055 62.0003 8.00003L59.0003 11V6.00003C59.0003 5.70867 59.1818 5.15386 59.0003 5.00003C58.8239 4.84991 58.2618 5.00003 58.0003 5.00003C57.7383 5.00003 58.1718 4.84946 58.0003 5.00003C57.8239 5.15387 57.0003 5.70914 57.0003 6.00003V14C57.0003 14.291 57.8248 14.8457 58.0003 15C58.1732 15.1506 57.7388 15 58.0003 15C58.2618 15 58.8239 15.1502 59.0003 15C59.1818 14.8462 59.0003 14.2914 59.0003 14V12L62.0003 15C62.1864 15.18 62.7813 15 63.0003 15C63.2221 15 62.8362 15.1828 63.0003 15C63.1626 14.8192 64.0003 14.2322 64.0003 14C64.0003 13.7567 63.1982 13.1921 63.0003 13ZM69.0003 11H66.0003C66.0612 10.524 66.7593 10.2574 67.0003 10C67.254 9.72778 67.5719 9.00003 68.0003 9.00003C68.4241 9.00003 68.7653 9.73057 69.0003 10C69.2211 10.2536 68.972 10.5137 69.0003 11ZM70.0003 13C69.8591 13 69.2792 12.8481 69.0003 13C68.7269 13.1259 69.2147 12.9282 69.0003 13C68.7917 13.0699 68.276 14 68.0003 14C67.464 14 67.2769 13.2778 67.0003 13C66.7379 12.7362 66.0612 12.5542 66.0003 12H70.0003C70.2733 12 71.0003 11.5608 71.0003 11C71.0003 10.332 70.2472 9.49371 70.0003 9.00003C69.7525 8.50401 69.4511 8.27273 69.0003 8.00003C68.5505 7.72871 68.6033 8.00003 68.0003 8.00003C67.3707 8.00003 66.4991 7.70167 66.0003 8.00003C65.5003 8.29967 65.2621 9.4724 65.0003 10C64.7269 10.5394 64.0003 10.305 64.0003 11C64.0003 12.0955 64.369 13.3652 65.0003 14C65.6312 14.6341 66.9259 15 68.0003 15C68.3537 15 68.6098 15.1067 69.0003 15C69.3673 14.9031 69.6678 14.1858 70.0003 14C70.3592 13.7921 70.0003 14.3162 70.0003 14C70.0003 13.7791 70.1064 13.1352 70.0003 13C69.9486 12.9324 70.0764 13.0367 70.0003 13C69.9242 12.9633 70.0844 12.9979 70.0003 13ZM74.0003 10C74.2969 10.0359 74.8155 10.7609 75.0003 11C75.1852 11.2393 75.0355 11.6976 75.0003 12C74.9652 12.3024 75.2349 11.8115 75.0003 12C74.7657 12.1885 74.2969 13.0359 74.0003 13C73.7037 12.9642 73.1851 12.2393 73.0003 12C72.8154 11.7609 72.9651 11.3024 73.0003 11C73.0354 10.6976 72.7657 10.1885 73.0003 10C73.2349 9.81151 73.7037 9.96417 74.0003 10Z" fill="#727272"/>
</g>
<defs>
<clipPath id="clip0_218_627">
<rect width="99" height="22" fill="white"/>
</clipPath>
</defs>
</svg>
