<svg width="94" height="73" viewBox="0 0 94 73" fill="none" xmlns="http://www.w3.org/2000/svg">
<rect x="13.9805" y="0.814453" width="64" height="64" rx="16" fill="white" fill-opacity="0.1"/>
<g clip-path="url(#clip0_31_8818)">
<path d="M47.0406 52.4299C58.4987 52.4299 67.7873 43.1422 67.7873 31.6852C67.7873 20.2282 58.4987 10.9404 47.0406 10.9404C35.5826 10.9404 26.2939 20.2282 26.2939 31.6852C26.2939 43.1422 35.5826 52.4299 47.0406 52.4299Z" fill="white"/>
<path d="M47.0406 52.4299C58.4987 52.4299 67.7873 43.1422 67.7873 31.6852C67.7873 20.2282 58.4987 10.9404 47.0406 10.9404C35.5826 10.9404 26.2939 20.2282 26.2939 31.6852C26.2939 43.1422 35.5826 52.4299 47.0406 52.4299Z" fill="url(#paint0_linear_31_8818)"/>
<path d="M42.1095 55.5979C42.2536 64.9122 34.8188 72.5798 25.5036 72.7237C16.1884 72.8677 8.52009 65.4337 8.37608 56.1194C8.23208 46.8049 15.6669 39.1375 24.9821 38.9935C34.2973 38.8495 41.9656 46.2835 42.1095 55.5979Z" fill="url(#paint1_radial_31_8818)"/>
<path d="M89.7012 48.4756C89.5456 48.9296 89.1567 49.3469 88.4501 49.6979C87.7416 50.0499 86.7573 50.3118 85.5047 50.4692C83.0014 50.7841 79.5408 50.6688 75.354 50.1387C66.989 49.0797 55.8326 46.3793 43.8744 42.2827C31.9163 38.1863 21.4476 33.4786 14.1905 29.1859C10.5584 27.0374 7.75405 25.0064 5.9698 23.2229C5.07687 22.3304 4.46004 21.52 4.11624 20.8075C3.77339 20.097 3.72207 19.5289 3.87762 19.0749C4.03318 18.6209 4.4221 18.2037 5.12868 17.8526C5.8372 17.5006 6.82144 17.2388 8.07416 17.0812C10.5773 16.7665 14.0381 16.8818 18.2248 17.4118C26.5899 18.4708 37.7462 21.1713 49.7044 25.2678C61.6625 29.3643 72.1312 34.072 79.3883 38.3647C83.0204 40.5132 85.8247 42.5442 87.609 44.3277C88.5019 45.2202 89.1188 46.0306 89.4625 46.7431C89.8054 47.4536 89.8568 48.0216 89.7012 48.4756Z" stroke="url(#paint2_linear_31_8818)" stroke-width="0.999783"/>
<path d="M68.3602 16.3411C65.4039 13.2875 60.5321 13.2086 57.4785 16.1649C54.425 19.1211 54.3461 23.993 57.3023 27.0464C60.2585 30.1 65.1305 30.1789 68.184 27.2227C71.2375 24.2664 71.3164 19.3946 68.3602 16.3411Z" fill="url(#paint3_radial_31_8818)"/>
</g>
<defs>
<linearGradient id="paint0_linear_31_8818" x1="47.0406" y1="10.9404" x2="47.0406" y2="52.4299" gradientUnits="userSpaceOnUse">
<stop stop-color="#FD91FF"/>
<stop offset="0.34375" stop-color="#A0A8FF"/>
<stop offset="0.947005" stop-color="#C9F2FF"/>
</linearGradient>
<radialGradient id="paint1_radial_31_8818" cx="0" cy="0" r="1" gradientUnits="userSpaceOnUse" gradientTransform="translate(18.9133 61.0028) rotate(-43.7124) scale(25.9917 33.4947)">
<stop offset="0.581217" stop-color="#2B152F"/>
<stop offset="0.753744" stop-color="#413686"/>
<stop offset="0.963759" stop-color="#5CB1E0"/>
</radialGradient>
<linearGradient id="paint2_linear_31_8818" x1="47.9507" y1="41.8032" x2="52.4492" y2="28.8065" gradientUnits="userSpaceOnUse">
<stop stop-color="#F3FCFF"/>
<stop offset="0.47974" stop-color="#654BAE"/>
<stop offset="1" stop-color="#303261" stop-opacity="0"/>
</linearGradient>
<radialGradient id="paint3_radial_31_8818" cx="0" cy="0" r="1" gradientUnits="userSpaceOnUse" gradientTransform="translate(72.6972 17.345) rotate(148.456) scale(18.244 18.244)">
<stop offset="0.357721" stop-color="#171717"/>
<stop offset="0.703125" stop-color="#261C33"/>
<stop offset="0.866261" stop-color="#582A60"/>
</radialGradient>
<clipPath id="clip0_31_8818">
<rect width="92.8" height="71.98" fill="white" transform="translate(0.550781 0.814453)"/>
</clipPath>
</defs>
</svg>
